<?xml version="1.0" encoding="utf-8"?>
<!-- Generator: Adobe Illustrator 29.8.2, SVG Export Plug-In . SVG Version: 9.03 Build 0)  -->
<svg version="1.0" id="Layer_1" xmlns="http://www.w3.org/2000/svg" xmlns:xlink="http://www.w3.org/1999/xlink" x="0px" y="0px"
	 viewBox="0 0 1110 693" style="enable-background:new 0 0 1110 693;" xml:space="preserve">
<style type="text/css">
	.st0{clip-path:url(#SVGID_00000095320543102227428340000012766880003296294280_);fill:#FFFFFF;}
	.st1{fill:#FFFFFF;}
	.st2{fill:none;stroke:#262626;stroke-width:0.6667;stroke-linejoin:round;stroke-miterlimit:10;stroke-opacity:0.149;}
	.st3{fill:none;stroke:#262626;stroke-width:0.6667;stroke-linecap:square;stroke-linejoin:round;stroke-miterlimit:10;}
	.st4{fill:#262626;}
	.st5{font-family:'MyriadPro-Regular';}
	.st6{font-size:13.3333px;}
	.st7{font-family:'TimesNewRomanPS-BoldMT';}
	.st8{font-size:14px;}
	.st9{font-size:15px;}
	.st10{font-size:17.2605px;}
	.st11{fill:none;stroke:#0072BD;stroke-width:0.6667;stroke-linejoin:round;stroke-miterlimit:10;}
	.st12{fill:none;stroke:#0072BD;stroke-miterlimit:10;}
	.st13{fill:none;stroke:#D95319;stroke-width:0.6667;stroke-linejoin:round;stroke-miterlimit:10;}
	.st14{fill:none;stroke:#D95319;stroke-miterlimit:10;}
	.st15{fill:none;stroke:#000000;stroke-width:0.6667;stroke-miterlimit:10;}
	.st16{font-family:'TimesNewRomanPS-BoldItalicMT';}
	.st17{font-size:12px;}
	.st18{fill:none;stroke:#262626;stroke-width:0.6667;stroke-miterlimit:10;}
	.st19{fill:none;stroke:#262626;stroke-width:2;stroke-miterlimit:10;}
	.st20{fill:#065418;}
</style>
<g>
	<g>
		<g>
			<defs>
				<rect id="SVGID_1_" width="1110" height="693"/>
			</defs>
			<clipPath id="SVGID_00000182518485472468147080000011414406278420094082_">
				<use xlink:href="#SVGID_1_"  style="overflow:visible;"/>
			</clipPath>
			
				<rect style="clip-path:url(#SVGID_00000182518485472468147080000011414406278420094082_);fill:#FFFFFF;" width="1110" height="693"/>
		</g>
	</g>
	<g>
		<rect class="st1" width="1110" height="693"/>
		<path class="st1" d="M45,651h1043V40H45V651z"/>
	</g>
	<g>
		<line class="st2" x1="45" y1="651" x2="45" y2="40"/>
		<path class="st2" d="M392.67,40"/>
		<path class="st2" d="M392.67,651"/>
		<path class="st2" d="M740.33,40"/>
		<path class="st2" d="M740.33,651"/>
		<line class="st2" x1="1088" y1="651" x2="1088" y2="40"/>
		<line class="st2" x1="1088" y1="651" x2="45" y2="651"/>
		<path class="st2" d="M45,563.71"/>
		<path class="st2" d="M1088,563.71"/>
		<path class="st2" d="M45,476.43"/>
		<path class="st2" d="M1088,476.43"/>
		<path class="st2" d="M45,389.14"/>
		<path class="st2" d="M1088,389.14"/>
		<path class="st2" d="M45,301.86"/>
		<path class="st2" d="M1088,301.86"/>
		<path class="st2" d="M45,214.57"/>
		<path class="st2" d="M1088,214.57"/>
		<path class="st2" d="M45,127.29"/>
		<path class="st2" d="M1088,127.29"/>
		<line class="st2" x1="1088" y1="40" x2="45" y2="40"/>
		<line class="st3" x1="45" y1="651" x2="1088" y2="651"/>
		<line class="st3" x1="45" y1="40" x2="1088" y2="40"/>
		<line class="st3" x1="45" y1="651" x2="45" y2="640.57"/>
		<line class="st3" x1="392.67" y1="651" x2="392.67" y2="640.57"/>
		<line class="st3" x1="740.33" y1="651" x2="740.33" y2="640.57"/>
		<line class="st3" x1="1088" y1="651" x2="1088" y2="640.57"/>
		<line class="st3" x1="45" y1="40" x2="45" y2="50.43"/>
		<path class="st3" d="M392.67,40"/>
		<path class="st3" d="M740.33,40"/>
		<line class="st3" x1="1088" y1="40" x2="1088" y2="50.43"/>
	</g>
	<g transform="translate(45,656.3334)">
		<text transform="matrix(1 0 0 1 -4.5 13)" class="st4 st5 st6">0</text>
	</g>
	<g transform="translate(392.6667,656.3334)">
		<text transform="matrix(1 0 0 1 -11 13)" class="st4 st5 st6">0.5</text>
	</g>
	<g transform="translate(740.3333,656.3334)">
		<text transform="matrix(1 0 0 1 -4.5001 13)" class="st4 st5 st6">1</text>
	</g>
	<g transform="translate(1088,656.3334)">
		<text transform="matrix(1 0 0 1 -11 13)" class="st4 st5 st6">1.5</text>
	</g>
	<g transform="translate(566.5005,674.6667)">
		<text transform="matrix(1 0 0 1 -124.041 7.333)" class="st4 st7 st8">ALL ACG CENTER BINS THRESHOLD</text>
	</g>
	<g>
		<line class="st3" x1="45" y1="651" x2="45" y2="40"/>
		<line class="st3" x1="1088" y1="651" x2="1088" y2="40"/>
		<line class="st3" x1="45" y1="651" x2="55.43" y2="651"/>
		<line class="st3" x1="45" y1="563.71" x2="55.43" y2="563.71"/>
		<line class="st3" x1="45" y1="476.43" x2="55.43" y2="476.43"/>
		<line class="st3" x1="45" y1="389.14" x2="55.43" y2="389.14"/>
		<line class="st3" x1="45" y1="301.86" x2="55.43" y2="301.86"/>
		<line class="st3" x1="45" y1="214.57" x2="55.43" y2="214.57"/>
		<line class="st3" x1="45" y1="127.29" x2="55.43" y2="127.29"/>
		<line class="st3" x1="45" y1="40" x2="55.43" y2="40"/>
		<line class="st3" x1="1088" y1="651" x2="1077.57" y2="651"/>
		<line class="st3" x1="1088" y1="563.71" x2="1077.57" y2="563.71"/>
		<line class="st3" x1="1088" y1="476.43" x2="1077.57" y2="476.43"/>
		<line class="st3" x1="1088" y1="389.14" x2="1077.57" y2="389.14"/>
		<line class="st3" x1="1088" y1="301.86" x2="1077.57" y2="301.86"/>
		<line class="st3" x1="1088" y1="214.57" x2="1077.57" y2="214.57"/>
		<line class="st3" x1="1088" y1="127.29" x2="1077.57" y2="127.29"/>
		<line class="st3" x1="1088" y1="40" x2="1077.57" y2="40"/>
	</g>
	<g transform="translate(39.6667,651)">
		<text transform="matrix(1 0 0 1 -17 4.5)" class="st4 st5 st6">45</text>
	</g>
	<g transform="translate(39.6667,563.7143)">
		<text transform="matrix(1 0 0 1 -17 4.5)" class="st4 st5 st6">50</text>
	</g>
	<g transform="translate(39.6667,476.4286)">
		<text transform="matrix(1 0 0 1 -17 4.5)" class="st4 st5 st6">55</text>
	</g>
	<g transform="translate(39.6667,389.1429)">
		<text transform="matrix(1 0 0 1 -17 4.5)" class="st4 st5 st6">60</text>
	</g>
	<g transform="translate(39.6667,301.8571)">
		<text transform="matrix(1 0 0 1 -17 4.5)" class="st4 st5 st6">65</text>
	</g>
	<g transform="translate(39.6667,214.5714)">
		<text transform="matrix(1 0 0 1 -17 4.5)" class="st4 st5 st6">70</text>
	</g>
	<g transform="translate(39.6667,127.2857)">
		<text transform="matrix(1 0 0 1 -17 4.5)" class="st4 st5 st6">75</text>
	</g>
	<g transform="translate(39.6667,40)">
		<text transform="matrix(1 0 0 1 -17 4.5)" class="st4 st5 st6">80</text>
	</g>
	<g transform="translate(18.6667,345.4997) rotate(-90)">
		<text transform="matrix(0.9334 0 0 1 -266.4319 0.5013)" class="st4 st7 st9">SPIKECLEANER ACG CENTER FILL NOISE/MUA == USER NOISE/MUA  PERCENTAGE</text>
	</g>
	<g transform="translate(566.5005,37.2499)">
		<text transform="matrix(0.8999 0 0 1 -405.9913 -10.1533)" class="st7 st10">HIGHEST MATCHES OF SPIKECLEANER WITH USER CURATION FOR ACG CENTER FILL THRESHOLD</text>
	</g>
	<g>
		<path class="st11" d="M114.53,625.57l69.53-206.19l69.53-132.88l69.53-128.29l69.53-41.24l69.53-13.75h69.53l69.53,4.58
			l69.53-4.58h69.53h69.53h69.53h69.53h69.53H1088"/>
		<circle class="st12" cx="114.53" cy="625.57" r="4"/>
		<circle class="st12" cx="184.07" cy="419.38" r="4"/>
		<circle class="st12" cx="253.6" cy="286.51" r="4"/>
		<circle class="st12" cx="323.13" cy="158.21" r="4"/>
		<circle class="st12" cx="392.67" cy="116.98" r="4"/>
		<circle class="st12" cx="462.2" cy="103.23" r="4"/>
		<circle class="st12" cx="531.73" cy="103.23" r="4"/>
		<circle class="st12" cx="601.27" cy="107.81" r="4"/>
		<circle class="st12" cx="670.8" cy="103.23" r="4"/>
		<circle class="st12" cx="740.33" cy="103.23" r="4"/>
		<circle class="st12" cx="809.87" cy="103.23" r="4"/>
		<circle class="st12" cx="879.4" cy="103.23" r="4"/>
		<circle class="st12" cx="948.93" cy="103.23" r="4"/>
		<circle class="st12" cx="1018.47" cy="103.23" r="4"/>
		<circle class="st12" cx="1088" cy="103.23" r="4"/>
		<path class="st13" d="M114.53,121.56l69.53,206.19l69.53,132.88l69.53,128.29l69.53,41.24l69.53,13.75h69.53l69.53-4.58
			l69.53,4.58h69.53h69.53h69.53h69.53h69.53H1088"/>
	</g>
	<g transform="translate(114.5333,121.5583)">
		<path class="st14" d="M-3-3v6h6v-6H-3z"/>
		<path class="st14" d="M66.53,203.19v6h6v-6H66.53z"/>
		<path class="st14" d="M136.07,336.06v6h6v-6H136.07z"/>
		<path class="st14" d="M205.6,464.36v6h6v-6H205.6z"/>
		<path class="st14" d="M275.13,505.59v6h6v-6H275.13z"/>
		<path class="st14" d="M344.67,519.34v6h6v-6H344.67z"/>
		<path class="st14" d="M414.2,519.34v6h6v-6H414.2z"/>
		<path class="st14" d="M483.73,514.76v6h6v-6H483.73z"/>
		<path class="st14" d="M553.27,519.34v6h6v-6H553.27z"/>
		<path class="st14" d="M622.8,519.34v6h6v-6H622.8z"/>
		<path class="st14" d="M692.33,519.34v6h6v-6H692.33z"/>
		<path class="st14" d="M761.87,519.34v6h6v-6H761.87z"/>
		<path class="st14" d="M831.4,519.34v6h6v-6H831.4z"/>
		<path class="st14" d="M900.93,519.34v6h6v-6H900.93z"/>
		<path class="st14" d="M970.47,519.34v6h6v-6H970.47z"/>
	</g>
	<g>
		<path class="st15" d="M828.48,253.63"/>
		<path class="st15" d="M83.82,192.97"/>
	</g>
	<g transform="translate(97.15,223.3)">
		<text transform="matrix(1 0 0 1 351.1566 177.0623)" class="st16 st8">Choose the label of the rising curve for this criterion and plug it into defaultThresholds in dz_classifyAllUnits.</text>
	</g>
	<g transform="translate(97.15,223.3)">
		<text transform="matrix(1 0 0 1 350.2996 200.1316)" class="st16 st8">Choose the first x-value where the y-value elbows and then plateaus.</text>
	</g>
	<g>
		<path class="st1" d="M1065,363v-35h-85v35H1065z"/>
	</g>
	<g transform="translate(1027,337.6377)">
		<text transform="matrix(1 0 0 1 0 4.5)" class="st5 st17">Noise</text>
	</g>
	<g>
		<line class="st11" x1="984" y1="337.64" x2="1024" y2="337.64"/>
		<circle class="st12" cx="1004" cy="337.64" r="4"/>
	</g>
	<g transform="translate(1027,353.3623)">
		<text transform="matrix(1 0 0 1 0 4.5)" class="st5 st17">MUA</text>
	</g>
	<g>
		<line class="st13" x1="984" y1="353.36" x2="1024" y2="353.36"/>
		<path class="st14" d="M1001,350.36v6h6v-6H1001z"/>
		<path class="st18" d="M980,363v-35h85v35H980z"/>
	</g>
</g>
<circle class="st19" cx="740.21" cy="103.1" r="8.87"/>
<text transform="matrix(1 0 0 1 404.0264 77.75)" class="st20 st16 st8">ACG center fill Vs shoulder threshold over which user thinks the ACG is too full = 1 = 100%</text>
</svg>
