<?xml version="1.0" encoding="utf-8"?>
<!-- Generator: Adobe Illustrator 29.8.2, SVG Export Plug-In . SVG Version: 9.03 Build 0)  -->
<svg version="1.0" id="Layer_1" xmlns="http://www.w3.org/2000/svg" xmlns:xlink="http://www.w3.org/1999/xlink" x="0px" y="0px"
	 viewBox="0 0 1038.02 618.5" style="enable-background:new 0 0 1038.02 618.5;" xml:space="preserve">
<style type="text/css">
	.st0{fill:#065418;}
	.st1{font-family:'TimesNewRomanPS-BoldMT';}
	.st2{font-size:14px;}
	.st3{fill:none;stroke:#000000;stroke-width:2;stroke-miterlimit:10;}
	.st4{clip-path:url(#SVGID_00000121239403277211303030000009925531121705218705_);}
	.st5{clip-path:url(#SVGID_00000039108807178875349620000000507959730050191249_);fill:#FFFFFF;}
	.st6{fill:#FFFFFF;}
	.st7{fill:none;stroke:#262626;stroke-width:0.6667;stroke-linecap:square;stroke-linejoin:round;stroke-miterlimit:10;}
	.st8{fill:#262626;}
	.st9{font-family:'ArialMT';}
	.st10{font-size:12.3632px;}
	.st11{font-size:14.2534px;}
	.st12{font-size:15px;}
	.st13{font-size:17.5775px;}
	.st14{fill:none;stroke:#0072BD;stroke-width:0.6667;stroke-linejoin:round;stroke-miterlimit:10;}
	.st15{fill:none;stroke:#0072BD;stroke-miterlimit:10;}
	.st16{font-family:'TimesNewRomanPS-BoldItalicMT';}
	.st17{font-size:16.6903px;}
	.st18{font-size:21.0639px;}
</style>
<text transform="matrix(1 0 0 1 507.8598 83.1797)" class="st0 st1 st2">Correlation threshold after which the user thinks channels are way too correlated =0.95</text>
<circle class="st3" cx="881.82" cy="97.86" r="7.58"/>
<g>
	<g>
		<g>
			<g>
				<defs>
					<rect id="SVGID_1_" width="1038.02" height="618.5"/>
				</defs>
				<clipPath id="SVGID_00000064316814271731960880000005287155499648054168_">
					<use xlink:href="#SVGID_1_"  style="overflow:visible;"/>
				</clipPath>
				<g style="clip-path:url(#SVGID_00000064316814271731960880000005287155499648054168_);">
					<g>
						<g>
							<g>
								<g>
									<g>
										<defs>
											<rect id="SVGID_00000180360034707574376190000014359247292006970556_" x="-74.34" width="1110" height="642.58"/>
										</defs>
										<clipPath id="SVGID_00000006670473657126657560000003629763241590167715_">
											<use xlink:href="#SVGID_00000180360034707574376190000014359247292006970556_"  style="overflow:visible;"/>
										</clipPath>
										
											<rect x="-74.34" style="clip-path:url(#SVGID_00000006670473657126657560000003629763241590167715_);fill:#FFFFFF;" width="1110" height="642.58"/>
									</g>
								</g>
							</g>
						</g>
					</g>
					<g>
						<rect x="-71.98" y="0.92" class="st6" width="1110" height="642.58"/>
						<path class="st6" d="M72.02,573.03h861V49.14h-861L72.02,573.03L72.02,573.03z"/>
					</g>
					<g>
						<line class="st7" x1="69.66" y1="572.11" x2="930.66" y2="572.11"/>
						<line class="st7" x1="69.66" y1="48.22" x2="930.66" y2="48.22"/>
						<line class="st7" x1="69.66" y1="572.11" x2="69.66" y2="564.12"/>
						<line class="st7" x1="165.33" y1="572.11" x2="165.33" y2="564.12"/>
						<line class="st7" x1="260.99" y1="572.11" x2="260.99" y2="564.12"/>
						<line class="st7" x1="356.66" y1="572.11" x2="356.66" y2="564.12"/>
						<line class="st7" x1="452.33" y1="572.11" x2="452.33" y2="564.12"/>
						<line class="st7" x1="547.99" y1="572.11" x2="547.99" y2="564.12"/>
						<line class="st7" x1="643.66" y1="572.11" x2="643.66" y2="564.12"/>
						<line class="st7" x1="739.33" y1="572.11" x2="739.33" y2="564.12"/>
						<line class="st7" x1="834.99" y1="572.11" x2="834.99" y2="564.12"/>
						<line class="st7" x1="930.66" y1="572.11" x2="930.66" y2="564.12"/>
						<line class="st7" x1="69.66" y1="48.22" x2="69.66" y2="56.2"/>
						<line class="st7" x1="165.33" y1="48.22" x2="165.33" y2="56.2"/>
						<line class="st7" x1="260.99" y1="48.22" x2="260.99" y2="56.2"/>
						<line class="st7" x1="356.66" y1="48.22" x2="356.66" y2="56.2"/>
						<line class="st7" x1="452.33" y1="48.22" x2="452.33" y2="56.2"/>
						<line class="st7" x1="547.99" y1="48.22" x2="547.99" y2="56.2"/>
						<line class="st7" x1="643.66" y1="48.22" x2="643.66" y2="56.2"/>
						<line class="st7" x1="739.33" y1="48.22" x2="739.33" y2="56.2"/>
						<line class="st7" x1="834.99" y1="48.22" x2="834.99" y2="56.2"/>
						<line class="st7" x1="930.66" y1="48.22" x2="930.66" y2="56.2"/>
					</g>
					<g transform="translate(144,622.3333)">
						<text transform="matrix(1.0785 0 0 1 -85.3398 -33.2259)" class="st8 st9 st10">0.1</text>
					</g>
					<g transform="translate(239.6667,622.3333)">
						<text transform="matrix(1.0785 0 0 1 -85.3405 -33.2259)" class="st8 st9 st10">0.2</text>
					</g>
					<g transform="translate(335.3333,622.3333)">
						<text transform="matrix(1.0785 0 0 1 -85.3392 -33.2259)" class="st8 st9 st10">0.3</text>
					</g>
					<g transform="translate(431,622.3333)">
						<text transform="matrix(1.0785 0 0 1 -85.3398 -33.2259)" class="st8 st9 st10">0.4</text>
					</g>
					<g transform="translate(526.6667,622.3333)">
						<text transform="matrix(1.0785 0 0 1 -85.3395 -33.2259)" class="st8 st9 st10">0.5</text>
					</g>
					<g transform="translate(622.3334,622.3333)">
						<text transform="matrix(1.0785 0 0 1 -85.3392 -33.2259)" class="st8 st9 st10">0.6</text>
					</g>
					<g transform="translate(718,622.3333)">
						<text transform="matrix(1.0785 0 0 1 -85.3398 -33.2259)" class="st8 st9 st10">0.7</text>
					</g>
					<g transform="translate(813.6667,622.3333)">
						<text transform="matrix(1.0785 0 0 1 -85.3395 -33.2259)" class="st8 st9 st10">0.8</text>
					</g>
					<g transform="translate(909.3333,622.3333)">
						<text transform="matrix(1.0785 0 0 1 -85.3392 -33.2259)" class="st8 st9 st10">0.9</text>
					</g>
					<g transform="translate(1005,622.3333)">
						<text transform="matrix(1.0785 0 0 1 -78.8398 -33.2259)" class="st8 st9 st10">1</text>
					</g>
					<g transform="translate(574.5004,640.6667)">
						<text transform="matrix(1.0785 0 0 1 -168.8393 -33.6345)" class="st8 st1 st11">MAXIMUM CORRELATION THRESHOLD</text>
					</g>
					<g>
						<line class="st7" x1="69.66" y1="572.11" x2="69.66" y2="48.22"/>
						<line class="st7" x1="930.66" y1="572.11" x2="930.66" y2="48.22"/>
						<line class="st7" x1="69.66" y1="572.11" x2="78.27" y2="572.11"/>
						<line class="st7" x1="69.66" y1="506.62" x2="78.27" y2="506.62"/>
						<line class="st7" x1="69.66" y1="441.14" x2="78.27" y2="441.14"/>
						<line class="st7" x1="69.66" y1="375.65" x2="78.27" y2="375.65"/>
						<line class="st7" x1="69.66" y1="310.16" x2="78.27" y2="310.16"/>
						<line class="st7" x1="69.66" y1="244.68" x2="78.27" y2="244.68"/>
						<line class="st7" x1="69.66" y1="179.19" x2="78.27" y2="179.19"/>
						<line class="st7" x1="69.66" y1="113.7" x2="78.27" y2="113.7"/>
						<line class="st7" x1="69.66" y1="48.22" x2="78.27" y2="48.22"/>
						<line class="st7" x1="930.66" y1="572.11" x2="922.05" y2="572.11"/>
						<line class="st7" x1="930.66" y1="506.62" x2="922.05" y2="506.62"/>
						<line class="st7" x1="930.66" y1="441.14" x2="922.05" y2="441.14"/>
						<line class="st7" x1="930.66" y1="375.65" x2="922.05" y2="375.65"/>
						<line class="st7" x1="930.66" y1="310.16" x2="922.05" y2="310.16"/>
						<line class="st7" x1="930.66" y1="244.68" x2="922.05" y2="244.68"/>
						<line class="st7" x1="930.66" y1="179.19" x2="922.05" y2="179.19"/>
						<line class="st7" x1="930.66" y1="113.7" x2="922.05" y2="113.7"/>
						<line class="st7" x1="930.66" y1="48.22" x2="922.05" y2="48.22"/>
					</g>
					<g transform="translate(138.6667,617)">
						<text transform="matrix(1.0785 0 0 1 -91.3405 -40.7227)" class="st8 st9 st10">20</text>
					</g>
					<g transform="translate(138.6667,546.375)">
						<text transform="matrix(1.0785 0 0 1 -91.3405 -35.584)" class="st8 st9 st10">30</text>
					</g>
					<g transform="translate(138.6667,475.75)">
						<text transform="matrix(1.0785 0 0 1 -91.3405 -30.4424)" class="st8 st9 st10">40</text>
					</g>
					<g transform="translate(138.6667,405.125)">
						<text transform="matrix(1.0785 0 0 1 -91.3405 -25.3057)" class="st8 st9 st10">50</text>
					</g>
					<g transform="translate(138.6667,334.5)">
						<text transform="matrix(1.0785 0 0 1 -91.3405 -20.166)" class="st8 st9 st10">60</text>
					</g>
					<g transform="translate(138.6667,263.875)">
						<text transform="matrix(1.0785 0 0 1 -91.3405 -15.0254)" class="st8 st9 st10">70</text>
					</g>
					<g transform="translate(138.6667,193.25)">
						<text transform="matrix(1.0785 0 0 1 -91.3405 -9.8867)" class="st8 st9 st10">80</text>
					</g>
					<g transform="translate(138.6667,122.625)">
						<text transform="matrix(1.0785 0 0 1 -91.3405 -4.7505)" class="st8 st9 st10">90</text>
					</g>
					<g transform="translate(138.6667,52)">
						<text transform="matrix(1.0785 0 0 1 -100.3405 0.3892)" class="st8 st9 st10">100</text>
					</g>
					<g transform="translate(108.6667,334.4997) rotate(-90)">
						<text transform="matrix(0.8865 0 0 1 -216.3089 -78.3381)" class="st8 st1 st12">SPIKECLEANER HIGH CORRELATION NOISE == USER NOISE PERCENTAGE</text>
					</g>
					<g transform="translate(574.5005,49.25)">
						<text transform="matrix(0.8197 0 0 1 -428.2915 -16.625)" class="st1 st13">HIGHEST MATCHES OF SPIKECLEANER WITH USER CURATION FOR HIGH CORRELATION THRESHOLD</text>
					</g>
					<g>
						<path class="st14" d="M69.66,514.01l95.67-10.31L261,486.51l95.67-18.91l95.67-34.38l95.67-58.44l95.67-65.31l47.83-41.25
							l47.83-51.56l47.83-41.25L835,135.88l47.83-37.81h9.57l9.57-3.44h9.57l9.57,1.72"/>
						<ellipse class="st15" cx="69.66" cy="514.01" rx="4" ry="3.71"/>
						<ellipse class="st15" cx="165.33" cy="503.7" rx="4" ry="3.71"/>
						<ellipse class="st15" cx="260.99" cy="486.51" rx="4" ry="3.71"/>
						<ellipse class="st15" cx="356.66" cy="467.6" rx="4" ry="3.71"/>
						<ellipse class="st15" cx="452.33" cy="433.23" rx="4" ry="3.71"/>
						<ellipse class="st15" cx="547.99" cy="374.79" rx="4" ry="3.71"/>
						<ellipse class="st15" cx="643.66" cy="309.47" rx="4" ry="3.71"/>
						<ellipse class="st15" cx="691.49" cy="268.22" rx="4" ry="3.71"/>
						<ellipse class="st15" cx="739.33" cy="216.66" rx="4" ry="3.71"/>
						<ellipse class="st15" cx="787.16" cy="175.41" rx="4" ry="3.71"/>
						<ellipse class="st15" cx="834.99" cy="135.88" rx="4" ry="3.71"/>
						<ellipse class="st15" cx="882.83" cy="98.06" rx="4" ry="3.71"/>
						<ellipse class="st15" cx="892.39" cy="98.06" rx="4" ry="3.71"/>
						<ellipse class="st15" cx="901.96" cy="94.62" rx="4" ry="3.71"/>
						<ellipse class="st15" cx="911.53" cy="94.62" rx="4" ry="3.71"/>
						<ellipse class="st15" cx="921.09" cy="96.34" rx="4" ry="3.71"/>
					</g>
					<g transform="translate(187.05,221.5)">
						<text transform="matrix(0.9155 0 0 1 -80.3547 -85.3501)" class="st16 st11">Choose the first value on x-axis, where y-axis value elbows and then plateaus.</text>
					</g>
					<g transform="translate(187.05,221.5)">
						<text transform="matrix(0.7032 0 0 1 -79.9016 -54.4141)" class="st16 st17">We are trying to find a coefficient of correlation at and after which user thinks all waveform channels are too correlated.</text>
						<text transform="matrix(0.7014 0 0 1 -79.9016 -27.6738)" class="st16 st17">You should see a rising curve that plateaus</text>
						<text transform="matrix(0.7014 0 0 1 127.2635 -27.6738)" class="st16 st18">.</text>
					</g>
				</g>
			</g>
		</g>
	</g>
</g>
<circle class="st3" cx="881.95" cy="98.99" r="9.71"/>
<text transform="matrix(1 0 0 1 540.2079 83.1797)" class="st0 st16 st2">Correlation value after which user thinks channels are way too correlated = 0.95</text>
<text transform="matrix(0.7289 0 0 1 -243.5327 45.6221)" style="font-family:'ArialRoundedMTBold'; font-size:18.4164px;">              </text>
<text transform="matrix(1 0 0 1 -233.9415 577.8024)" class="st9" style="font-size:12px;">            </text>
</svg>
