<?xml version="1.0" encoding="utf-8"?>
<!-- Generator: Adobe Illustrator 29.8.2, SVG Export Plug-In . SVG Version: 9.03 Build 0)  -->
<svg version="1.0" id="Layer_1" xmlns="http://www.w3.org/2000/svg" xmlns:xlink="http://www.w3.org/1999/xlink" x="0px" y="0px"
	 viewBox="0 0 957 669" style="enable-background:new 0 0 957 669;" xml:space="preserve">
<style type="text/css">
	.st0{clip-path:url(#SVGID_00000067928658045884216680000000026117731279689860_);}
	.st1{clip-path:url(#SVGID_00000099620321360670390390000006765302739181210262_);fill:#FFFFFF;}
	.st2{fill:#FFFFFF;}
	.st3{fill:none;stroke:#262626;stroke-width:0.6667;stroke-linecap:square;stroke-linejoin:round;stroke-miterlimit:10;}
	.st4{fill:#262626;}
	.st5{font-family:'MyriadPro-Regular';}
	.st6{font-size:13.3333px;}
	.st7{font-family:'TimesNewRomanPS-BoldMT';}
	.st8{font-size:14px;}
	.st9{font-size:15px;}
	.st10{font-size:17.2605px;}
	.st11{fill:none;stroke:#0072BD;stroke-width:0.6667;stroke-linejoin:round;stroke-miterlimit:10;}
	.st12{fill:none;stroke:#0072BD;stroke-miterlimit:10;}
	.st13{font-family:'TimesNewRomanPS-BoldItalicMT';}
	.st14{fill:none;stroke:#000000;stroke-width:2;stroke-miterlimit:10;}
	.st15{fill:#065418;}
</style>
<g>
	<defs>
		<rect id="SVGID_1_" width="957" height="669"/>
	</defs>
	<clipPath id="SVGID_00000177450430356094391030000012546698926190868107_">
		<use xlink:href="#SVGID_1_"  style="overflow:visible;"/>
	</clipPath>
	<g style="clip-path:url(#SVGID_00000177450430356094391030000012546698926190868107_);">
		<g>
			<g>
				<defs>
					<rect id="SVGID_00000030453356458291250220000001674400557077136818_" x="-83" width="1110" height="693"/>
				</defs>
				<clipPath id="SVGID_00000097479391611334357780000012358091965156923317_">
					<use xlink:href="#SVGID_00000030453356458291250220000001674400557077136818_"  style="overflow:visible;"/>
				</clipPath>
				
					<rect x="-83" style="clip-path:url(#SVGID_00000097479391611334357780000012358091965156923317_);fill:#FFFFFF;" width="1110" height="693"/>
			</g>
		</g>
		<g>
			<rect x="-112.87" y="3.05" class="st2" width="1110" height="693"/>
			<path class="st2" d="M49.37,617.05h861v-565h-861V617.05z"/>
		</g>
		<g>
			<line class="st3" x1="61" y1="617" x2="922" y2="617"/>
			<line class="st3" x1="61" y1="52" x2="922" y2="52"/>
			<line class="st3" x1="61" y1="617" x2="61" y2="608.39"/>
			<line class="st3" x1="156.67" y1="617" x2="156.67" y2="608.39"/>
			<line class="st3" x1="252.33" y1="617" x2="252.33" y2="608.39"/>
			<line class="st3" x1="348" y1="617" x2="348" y2="608.39"/>
			<line class="st3" x1="443.67" y1="617" x2="443.67" y2="608.39"/>
			<line class="st3" x1="539.33" y1="617" x2="539.33" y2="608.39"/>
			<line class="st3" x1="635" y1="617" x2="635" y2="608.39"/>
			<line class="st3" x1="730.67" y1="617" x2="730.67" y2="608.39"/>
			<line class="st3" x1="826.33" y1="617" x2="826.33" y2="608.39"/>
			<line class="st3" x1="922" y1="617" x2="922" y2="608.39"/>
			<line class="st3" x1="61" y1="52" x2="61" y2="60.61"/>
			<line class="st3" x1="156.67" y1="52" x2="156.67" y2="60.61"/>
			<line class="st3" x1="252.33" y1="52" x2="252.33" y2="60.61"/>
			<line class="st3" x1="348" y1="52" x2="348" y2="60.61"/>
			<line class="st3" x1="443.67" y1="52" x2="443.67" y2="60.61"/>
			<line class="st3" x1="539.33" y1="52" x2="539.33" y2="60.61"/>
			<line class="st3" x1="635" y1="52" x2="635" y2="60.61"/>
			<line class="st3" x1="730.67" y1="52" x2="730.67" y2="60.61"/>
			<line class="st3" x1="826.33" y1="52" x2="826.33" y2="60.61"/>
			<line class="st3" x1="922" y1="52" x2="922" y2="60.61"/>
		</g>
		<g transform="translate(144,622.3333)">
			<text transform="matrix(1 0 0 1 -94 13)" class="st4 st5 st6">0.1</text>
		</g>
		<g transform="translate(239.6667,622.3333)">
			<text transform="matrix(1 0 0 1 -94 13)" class="st4 st5 st6">0.2</text>
		</g>
		<g transform="translate(335.3333,622.3333)">
			<text transform="matrix(1 0 0 1 -94 13)" class="st4 st5 st6">0.3</text>
		</g>
		<g transform="translate(431,622.3333)">
			<text transform="matrix(1 0 0 1 -94 13)" class="st4 st5 st6">0.4</text>
		</g>
		<g transform="translate(526.6667,622.3333)">
			<text transform="matrix(1 0 0 1 -94 13)" class="st4 st5 st6">0.5</text>
		</g>
		<g transform="translate(622.3334,622.3333)">
			<text transform="matrix(1 0 0 1 -94 13)" class="st4 st5 st6">0.6</text>
		</g>
		<g transform="translate(718,622.3333)">
			<text transform="matrix(1 0 0 1 -94 13)" class="st4 st5 st6">0.7</text>
		</g>
		<g transform="translate(813.6667,622.3333)">
			<text transform="matrix(1 0 0 1 -93.9999 13)" class="st4 st5 st6">0.8</text>
		</g>
		<g transform="translate(909.3333,622.3333)">
			<text transform="matrix(1 0 0 1 -94.0001 13)" class="st4 st5 st6">0.9</text>
		</g>
		<g transform="translate(1005,622.3333)">
			<text transform="matrix(1 0 0 1 -87.5 13)" class="st4 st5 st6">1</text>
		</g>
		<g transform="translate(574.5004,640.6667)">
			<text transform="matrix(1 0 0 1 -201.5005 13.333)" class="st4 st7 st8">MAXIMUM HALF WIDTH THRESHOLD (ms)</text>
		</g>
		<g>
			<line class="st3" x1="61" y1="617" x2="61" y2="52"/>
			<line class="st3" x1="922" y1="617" x2="922" y2="52"/>
			<line class="st3" x1="61" y1="617" x2="69.61" y2="617"/>
			<line class="st3" x1="61" y1="546.38" x2="69.61" y2="546.38"/>
			<line class="st3" x1="61" y1="475.75" x2="69.61" y2="475.75"/>
			<line class="st3" x1="61" y1="405.12" x2="69.61" y2="405.12"/>
			<line class="st3" x1="61" y1="334.5" x2="69.61" y2="334.5"/>
			<line class="st3" x1="61" y1="263.88" x2="69.61" y2="263.88"/>
			<line class="st3" x1="61" y1="193.25" x2="69.61" y2="193.25"/>
			<line class="st3" x1="61" y1="122.62" x2="69.61" y2="122.62"/>
			<line class="st3" x1="61" y1="52" x2="69.61" y2="52"/>
			<line class="st3" x1="922" y1="617" x2="913.39" y2="617"/>
			<line class="st3" x1="922" y1="546.38" x2="913.39" y2="546.38"/>
			<line class="st3" x1="922" y1="475.75" x2="913.39" y2="475.75"/>
			<line class="st3" x1="922" y1="405.12" x2="913.39" y2="405.12"/>
			<line class="st3" x1="922" y1="334.5" x2="913.39" y2="334.5"/>
			<line class="st3" x1="922" y1="263.88" x2="913.39" y2="263.88"/>
			<line class="st3" x1="922" y1="193.25" x2="913.39" y2="193.25"/>
			<line class="st3" x1="922" y1="122.62" x2="913.39" y2="122.62"/>
			<line class="st3" x1="922" y1="52" x2="913.39" y2="52"/>
		</g>
		<g transform="translate(138.6667,617)">
			<text transform="matrix(1 0 0 1 -92 4.5)" class="st4 st5 st6">0</text>
		</g>
		<g transform="translate(138.6667,546.375)">
			<text transform="matrix(1 0 0 1 -100 4.5)" class="st4 st5 st6">10</text>
		</g>
		<g transform="translate(138.6667,475.75)">
			<text transform="matrix(1 0 0 1 -100 4.5)" class="st4 st5 st6">20</text>
		</g>
		<g transform="translate(138.6667,405.125)">
			<text transform="matrix(1 0 0 1 -100 4.5)" class="st4 st5 st6">30</text>
		</g>
		<g transform="translate(138.6667,334.5)">
			<text transform="matrix(1 0 0 1 -100 4.5)" class="st4 st5 st6">40</text>
		</g>
		<g transform="translate(138.6667,263.875)">
			<text transform="matrix(1 0 0 1 -100 4.5)" class="st4 st5 st6">50</text>
		</g>
		<g transform="translate(138.6667,193.25)">
			<text transform="matrix(1 0 0 1 -100 4.5)" class="st4 st5 st6">60</text>
		</g>
		<g transform="translate(138.6667,122.625)">
			<text transform="matrix(1 0 0 1 -100 4.5)" class="st4 st5 st6">70</text>
		</g>
		<g transform="translate(138.6667,52)">
			<text transform="matrix(1 0 0 1 -100 4.5)" class="st4 st5 st6">80</text>
		</g>
		<g transform="translate(117.6667,334.4997) rotate(-90)">
			<text transform="matrix(0.9334 0 0 1 -231.8763 -88.0566)" class="st4 st7 st9">SPIKECLEANER HW TOO WIDE NOISE == USER NOISE PERCENTAGE</text>
		</g>
		<g transform="translate(574.5005,49.25)">
			<text transform="matrix(0.8999 0 0 1 -490.3809 -13.7549)" class="st7 st10">HIGHEST MATCHES OF SPIKECLEANER WITH USER CURATION FOR MAXIMUM HALF WIDTH THRESHOLD</text>
		</g>
		<g>
			<path class="st11" d="M61,579.93h47.83l47.83-29.66l47.83-46.34l47.83-79.71l47.83-129.76L348,188.8l47.83-38.93l47.83-29.66
				l47.83-12.98l47.83-16.68l47.83-9.27L635,77.58l47.83-1.85l47.83-3.71h47.83h47.83h47.83L922,79.43"/>
			<circle class="st12" cx="61" cy="579.93" r="4"/>
			<circle class="st12" cx="108.83" cy="579.93" r="4"/>
			<circle class="st12" cx="156.67" cy="550.27" r="4"/>
			<circle class="st12" cx="204.5" cy="503.93" r="4"/>
			<circle class="st12" cx="252.33" cy="424.22" r="4"/>
			<circle class="st12" cx="300.17" cy="294.46" r="4"/>
			<circle class="st12" cx="348" cy="188.8" r="4"/>
			<circle class="st12" cx="395.83" cy="149.87" r="4"/>
			<circle class="st12" cx="443.67" cy="120.22" r="4"/>
			<circle class="st12" cx="491.5" cy="107.24" r="4"/>
			<circle class="st12" cx="539.33" cy="90.56" r="4"/>
			<circle class="st12" cx="587.17" cy="81.29" r="4"/>
			<circle class="st12" cx="635" cy="77.58" r="4"/>
			<circle class="st12" cx="682.83" cy="75.73" r="4"/>
			<circle class="st12" cx="730.67" cy="72.02" r="4"/>
			<circle class="st12" cx="778.5" cy="72.02" r="4"/>
			<circle class="st12" cx="826.33" cy="72.02" r="4"/>
			<circle class="st12" cx="874.17" cy="72.02" r="4"/>
			<circle class="st12" cx="922" cy="79.43" r="4"/>
		</g>
		<g transform="translate(187.05,221.5)">
			<text transform="matrix(1 0 0 1 151.8125 156.4873)" class="st13 st8">Choose the first value on x-axis, where y-axis value elbows and then platues.</text>
		</g>
		<g transform="translate(187.05,221.5)">
			<text transform="matrix(1 0 0 1 150.1457 182.4111)" class="st13 st8">We are trying to find a waveform half width(ms) after which a spike appears non physiological.</text>
			<text transform="matrix(1 0 0 1 149.8916 209.6943)" class="st13 st8"> You should see a rising curve that platues.</text>
		</g>
	</g>
</g>
<circle class="st14" cx="729.86" cy="71.71" r="9.71"/>
<text transform="matrix(1 0 0 1 371.0674 104.832)" class="st15 st13 st8">Half Width threshold after which user thinks the waveform doesn’t look physiological = 0.8ms</text>
</svg>
