<?xml version="1.0" encoding="utf-8"?>
<!-- Generator: Adobe Illustrator 29.8.2, SVG Export Plug-In . SVG Version: 9.03 Build 0)  -->
<svg version="1.0" id="Layer_1" xmlns="http://www.w3.org/2000/svg" xmlns:xlink="http://www.w3.org/1999/xlink" x="0px" y="0px"
	 viewBox="0 0 965 668" style="enable-background:new 0 0 965 668;" xml:space="preserve">
<style type="text/css">
	.st0{clip-path:url(#SVGID_00000104680836543881426610000012861228369876274331_);fill:#FFFFFF;}
	.st1{fill:none;stroke:#262626;stroke-width:0.6667;stroke-linecap:square;stroke-linejoin:round;stroke-miterlimit:10;}
	.st2{fill:#262626;}
	.st3{font-family:'ArialMT';}
	.st4{font-size:13.3333px;}
	.st5{font-family:'TimesNewRomanPS-BoldMT';}
	.st6{font-size:14px;}
	.st7{font-size:15px;}
	.st8{font-size:17.2605px;}
	.st9{fill:none;stroke:#0072BD;stroke-width:0.6667;stroke-linejoin:round;stroke-miterlimit:10;}
	.st10{fill:none;stroke:#0072BD;stroke-miterlimit:10;}
	.st11{font-family:'TimesNewRomanPS-BoldItalicMT';}
	.st12{fill:none;stroke:#000000;stroke-width:2;stroke-miterlimit:10;}
	.st13{fill:#065418;}
</style>
<g>
	<g>
		<g>
			<defs>
				<rect id="SVGID_1_" x="61" y="52" width="861" height="565"/>
			</defs>
			<clipPath id="SVGID_00000050655281835355508150000015990935722709902517_">
				<use xlink:href="#SVGID_1_"  style="overflow:visible;"/>
			</clipPath>
			
				<rect x="-83" style="clip-path:url(#SVGID_00000050655281835355508150000015990935722709902517_);fill:#FFFFFF;" width="1110" height="693"/>
		</g>
	</g>
	<g>
		<line class="st1" x1="61" y1="617" x2="922" y2="617"/>
		<line class="st1" x1="61" y1="52" x2="922" y2="52"/>
		<line class="st1" x1="61" y1="617" x2="61" y2="608.39"/>
		<line class="st1" x1="147.1" y1="617" x2="147.1" y2="608.39"/>
		<line class="st1" x1="233.2" y1="617" x2="233.2" y2="608.39"/>
		<line class="st1" x1="319.3" y1="617" x2="319.3" y2="608.39"/>
		<line class="st1" x1="405.4" y1="617" x2="405.4" y2="608.39"/>
		<line class="st1" x1="491.5" y1="617" x2="491.5" y2="608.39"/>
		<line class="st1" x1="577.6" y1="617" x2="577.6" y2="608.39"/>
		<line class="st1" x1="663.7" y1="617" x2="663.7" y2="608.39"/>
		<line class="st1" x1="749.8" y1="617" x2="749.8" y2="608.39"/>
		<line class="st1" x1="835.9" y1="617" x2="835.9" y2="608.39"/>
		<line class="st1" x1="922" y1="617" x2="922" y2="608.39"/>
		<line class="st1" x1="61" y1="52" x2="61" y2="60.61"/>
		<line class="st1" x1="147.1" y1="52" x2="147.1" y2="60.61"/>
		<line class="st1" x1="233.2" y1="52" x2="233.2" y2="60.61"/>
		<line class="st1" x1="319.3" y1="52" x2="319.3" y2="60.61"/>
		<line class="st1" x1="405.4" y1="52" x2="405.4" y2="60.61"/>
		<line class="st1" x1="491.5" y1="52" x2="491.5" y2="60.61"/>
		<line class="st1" x1="577.6" y1="52" x2="577.6" y2="60.61"/>
		<line class="st1" x1="663.7" y1="52" x2="663.7" y2="60.61"/>
		<line class="st1" x1="749.8" y1="52" x2="749.8" y2="60.61"/>
		<line class="st1" x1="835.9" y1="52" x2="835.9" y2="60.61"/>
		<line class="st1" x1="922" y1="52" x2="922" y2="60.61"/>
	</g>
	<g transform="translate(144,622.3333)">
		<text transform="matrix(1 0 0 1 -87.5 13)" class="st2 st3 st4">0</text>
	</g>
	<g transform="translate(230.1,622.3333)">
		<text transform="matrix(1 0 0 1 -96 13)" class="st2 st3 st4">200</text>
	</g>
	<g transform="translate(316.2,622.3333)">
		<text transform="matrix(1 0 0 1 -96 13)" class="st2 st3 st4">400</text>
	</g>
	<g transform="translate(402.3,622.3333)">
		<text transform="matrix(1 0 0 1 -96 13)" class="st2 st3 st4">600</text>
	</g>
	<g transform="translate(488.4,622.3333)">
		<text transform="matrix(1 0 0 1 -96 13)" class="st2 st3 st4">800</text>
	</g>
	<g transform="translate(574.5,622.3333)">
		<text transform="matrix(1 0 0 1 -100 13)" class="st2 st3 st4">1000</text>
	</g>
	<g transform="translate(660.6,622.3333)">
		<text transform="matrix(1 0 0 1 -100 13)" class="st2 st3 st4">1200</text>
	</g>
	<g transform="translate(746.7,622.3333)">
		<text transform="matrix(1 0 0 1 -100.0001 13)" class="st2 st3 st4">1400</text>
	</g>
	<g transform="translate(832.8,622.3333)">
		<text transform="matrix(1 0 0 1 -99.9999 13)" class="st2 st3 st4">1600</text>
	</g>
	<g transform="translate(918.9,622.3333)">
		<text transform="matrix(1 0 0 1 -100 13)" class="st2 st3 st4">1800</text>
	</g>
	<g transform="translate(1005,622.3333)">
		<text transform="matrix(1 0 0 1 -100 13)" class="st2 st3 st4">2000</text>
	</g>
	<g transform="translate(574.5004,640.6667)">
		<text transform="matrix(1 0 0 1 -206.8703 12.4764)" class="st2 st5 st6">MINIMUM SLOPE THRESHOLD (uV/ms) </text>
	</g>
	<g>
		<line class="st1" x1="61" y1="617" x2="61" y2="52"/>
		<line class="st1" x1="922" y1="617" x2="922" y2="52"/>
		<line class="st1" x1="61" y1="617" x2="69.61" y2="617"/>
		<line class="st1" x1="61" y1="536.29" x2="69.61" y2="536.29"/>
		<line class="st1" x1="61" y1="455.57" x2="69.61" y2="455.57"/>
		<line class="st1" x1="61" y1="374.86" x2="69.61" y2="374.86"/>
		<line class="st1" x1="61" y1="294.14" x2="69.61" y2="294.14"/>
		<line class="st1" x1="61" y1="213.43" x2="69.61" y2="213.43"/>
		<line class="st1" x1="61" y1="132.71" x2="69.61" y2="132.71"/>
		<line class="st1" x1="61" y1="52" x2="69.61" y2="52"/>
		<line class="st1" x1="922" y1="617" x2="913.39" y2="617"/>
		<line class="st1" x1="922" y1="536.29" x2="913.39" y2="536.29"/>
		<line class="st1" x1="922" y1="455.57" x2="913.39" y2="455.57"/>
		<line class="st1" x1="922" y1="374.86" x2="913.39" y2="374.86"/>
		<line class="st1" x1="922" y1="294.14" x2="913.39" y2="294.14"/>
		<line class="st1" x1="922" y1="213.43" x2="913.39" y2="213.43"/>
		<line class="st1" x1="922" y1="132.71" x2="913.39" y2="132.71"/>
		<line class="st1" x1="922" y1="52" x2="913.39" y2="52"/>
	</g>
	<g transform="translate(138.6667,617)">
		<text transform="matrix(1 0 0 1 -100 4.5)" class="st2 st3 st4">10</text>
	</g>
	<g transform="translate(138.6667,536.2857)">
		<text transform="matrix(1 0 0 1 -100 4.5)" class="st2 st3 st4">20</text>
	</g>
	<g transform="translate(138.6667,455.5714)">
		<text transform="matrix(1 0 0 1 -100 4.5)" class="st2 st3 st4">30</text>
	</g>
	<g transform="translate(138.6667,374.8571)">
		<text transform="matrix(1 0 0 1 -100 4.5)" class="st2 st3 st4">40</text>
	</g>
	<g transform="translate(138.6667,294.1429)">
		<text transform="matrix(1 0 0 1 -100 4.5)" class="st2 st3 st4">50</text>
	</g>
	<g transform="translate(138.6667,213.4286)">
		<text transform="matrix(1 0 0 1 -100 4.5)" class="st2 st3 st4">60</text>
	</g>
	<g transform="translate(138.6667,132.7143)">
		<text transform="matrix(1 0 0 1 -100 4.5)" class="st2 st3 st4">70</text>
	</g>
	<g transform="translate(138.6667,52)">
		<text transform="matrix(1 0 0 1 -100 4.5)" class="st2 st3 st4">80</text>
	</g>
	<g transform="translate(117.6667,334.4997) rotate(-90)">
		<text transform="matrix(0.9334 0 0 1 -250.1526 -89.2771)" class="st2 st5 st7">SPIKECLEANER SLOPE TOO SMALL  NOISE == USER NOISE PERCENTAGE</text>
	</g>
	<g transform="translate(574.5005,49.25)">
		<text transform="matrix(0.8999 0 0 1 -461.4263 -18.0801)" class="st5 st8">HIGHEST MATCHES OF SPIKECLEANER WITH USER CURATION FOR MINIMUM SLOPE THRESHOLD</text>
	</g>
	<g>
		<path class="st9" d="M61.04,87.59h0.17h0.22h1.72h2.15h17.22h21.53h21.52l21.53,2.12l21.52,2.12l21.52,8.47l21.52,19.07
			l21.53,31.78l43.05,46.61l43.05,42.37l43.05,40.25l43.05,74.15l43.05,44.49l43.05,36.01l215.25,82.62L922,579.08"/>
		<circle class="st10" cx="61.04" cy="87.59" r="4"/>
		<circle class="st10" cx="61.22" cy="87.59" r="4"/>
		<circle class="st10" cx="61.43" cy="87.59" r="4"/>
		<circle class="st10" cx="63.15" cy="87.59" r="4"/>
		<circle class="st10" cx="65.3" cy="87.59" r="4"/>
		<circle class="st10" cx="82.52" cy="87.59" r="4"/>
		<circle class="st10" cx="104.05" cy="87.59" r="4"/>
		<circle class="st10" cx="125.57" cy="87.59" r="4"/>
		<circle class="st10" cx="147.1" cy="89.71" r="4"/>
		<circle class="st10" cx="168.62" cy="91.83" r="4"/>
		<circle class="st10" cx="190.15" cy="100.3" r="4"/>
		<circle class="st10" cx="211.67" cy="119.37" r="4"/>
		<circle class="st10" cx="233.2" cy="151.15" r="4"/>
		<circle class="st10" cx="276.25" cy="197.75" r="4"/>
		<circle class="st10" cx="319.3" cy="240.12" r="4"/>
		<circle class="st10" cx="362.35" cy="280.37" r="4"/>
		<circle class="st10" cx="405.4" cy="354.52" r="4"/>
		<circle class="st10" cx="448.45" cy="399.01" r="4"/>
		<circle class="st10" cx="491.5" cy="435.02" r="4"/>
		<circle class="st10" cx="706.75" cy="517.64" r="4"/>
		<circle class="st10" cx="922" cy="579.08" r="4"/>
	</g>
	<g transform="translate(187.05,221.5)">
		<text transform="matrix(1 0 0 1 -106.8446 194.8583)" class="st11 st6">Choose the last value on x-axis, where y-axis value elbows and then falls.</text>
	</g>
	<g transform="translate(187.05,221.5)">
		<text transform="matrix(1 0 0 1 -105.6992 216.0836)" class="st11 st6">We are trying to find a waveform slope(uV/ms) lower than which a spike appears non physiological, too slow to progress.</text>
		<text transform="matrix(1 0 0 1 -107.6099 237.926)" class="st11 st6">You should see a falling curve because matches would decrease if we choose a bigger minimum slope </text>
		<text transform="matrix(1 0 0 1 -106.741 256.0586)" class="st11 st6">thershold as those spikes would still look physiological.</text>
	</g>
	<circle class="st12" cx="104.45" cy="87.31" r="7.4"/>
	<text transform="matrix(1 0 0 1 113.2419 114.0495)" class="st13 st11 st6">Slope threshold under which user thinks the waveform doesn’t look physiological/progresses too slowly = 100uV/ms</text>
</g>
</svg>
