<?xml version="1.0" encoding="utf-8"?>
<!-- Generator: Adobe Illustrator 29.8.2, SVG Export Plug-In . SVG Version: 9.03 Build 0)  -->
<svg version="1.0" id="Layer_1" xmlns="http://www.w3.org/2000/svg" xmlns:xlink="http://www.w3.org/1999/xlink" x="0px" y="0px"
	 viewBox="0 0 570 413" style="enable-background:new 0 0 570 413;" xml:space="preserve">
<style type="text/css">
	.st0{clip-path:url(#SVGID_00000056428448240538505440000015030898947721201072_);fill:#FFFFFF;}
	.st1{fill:#FFFFFF;}
	.st2{fill:none;stroke:#262626;stroke-width:0.6667;stroke-linejoin:round;stroke-miterlimit:10;stroke-opacity:0.149;}
	
		.st3{fill:none;stroke:#262626;stroke-width:0.6667;stroke-linecap:square;stroke-linejoin:round;stroke-miterlimit:10;stroke-opacity:0.149;}
	.st4{fill:#262626;}
	.st5{font-family:'MyriadPro-Regular';}
	.st6{font-size:13.075px;}
	.st7{enable-background:new    ;}
	.st8{font-size:14.3826px;}
	.st9{font-family:'ArialRoundedMTBold';}
	.st10{font-size:13.7288px;}
	.st11{fill:none;stroke:#0072BD;stroke-width:2;stroke-linejoin:round;stroke-miterlimit:10;}
	.st12{fill:none;stroke:#0072BD;stroke-width:2;stroke-miterlimit:10;}
	.st13{fill:#F15923;}
	.st14{font-size:14px;}
	.st15{font-size:14.2846px;}
	.st16{font-size:10.9874px;}
</style>
<g>
	<g>
		<g>
			<defs>
				<rect id="SVGID_1_" y="8" width="570" height="405"/>
			</defs>
			<clipPath id="SVGID_00000054267444041151641580000012634396843075458981_">
				<use xlink:href="#SVGID_1_"  style="overflow:visible;"/>
			</clipPath>
			
				<rect y="8" style="clip-path:url(#SVGID_00000054267444041151641580000012634396843075458981_);fill:#FFFFFF;" width="570" height="405"/>
		</g>
	</g>
	<g>
		<rect y="8" class="st1" width="570" height="405"/>
		<path class="st1" d="M457,210.01l-0.51-12.62l-1.53-12.54l-2.54-12.38l-3.54-12.15l-4.51-11.83l-5.46-11.44l-6.37-10.98
			l-7.24-10.45l-8.06-9.85l-8.83-9.19l-9.55-8.48l-10.21-7.71l-10.8-6.89l-11.32-6.02l-11.77-5.12l-12.15-4.19l-12.45-3.23
			l-12.68-2.25l-12.82-1.25l-12.88-0.25l-12.86,0.75l-12.76,1.75l-12.57,2.74l-12.31,3.71L229.3,64.8l-11.56,5.58l-11.07,6.46
			l-10.51,7.3l-9.89,8.1l-9.2,8.84l-8.45,9.53l-7.65,10.16l-6.81,10.72l-5.92,11.22l-4.99,11.65l-4.03,12l-3.04,12.27l-2.04,12.47
			l-1.02,12.59v12.63l1.02,12.59l2.04,12.47l3.04,12.27l4.03,12l4.99,11.65l5.92,11.22l6.81,10.72l7.65,10.16l8.45,9.53l9.2,8.84
			l9.89,8.1l10.51,7.3l11.07,6.46l11.56,5.58l11.97,4.66l12.31,3.71l12.57,2.74l12.76,1.75l12.86,0.75l12.88-0.25l12.82-1.25
			l12.68-2.25l12.45-3.23l12.15-4.19l11.77-5.12l11.32-6.02l10.8-6.89l10.21-7.71l9.55-8.48l8.83-9.19l8.06-9.85l7.24-10.45
			l6.37-10.98l5.46-11.44l4.51-11.83l3.54-12.15l2.54-12.38l1.53-12.54L457,210.01z"/>
	</g>
	<g>
		<line class="st2" x1="295" y1="210.01" x2="457" y2="210.01"/>
		<line class="st2" x1="295" y1="210.01" x2="409.55" y2="97.68"/>
		<line class="st2" x1="295" y1="210.01" x2="295" y2="51.15"/>
		<line class="st2" x1="295" y1="210.01" x2="180.45" y2="97.68"/>
		<line class="st2" x1="295" y1="210.01" x2="133" y2="210.01"/>
		<line class="st2" x1="295" y1="210.01" x2="180.45" y2="322.34"/>
		<line class="st2" x1="295" y1="210.01" x2="295" y2="368.87"/>
		<line class="st2" x1="295" y1="210.01" x2="409.55" y2="322.34"/>
		<path class="st2" d="M295,210.01L295,210.01L295,210.01L295,210.01L295,210.01L295,210.01L295,210.01L295,210.01L295,210.01
			L295,210.01L295,210.01L295,210.01L295,210.01L295,210.01L295,210.01L295,210.01L295,210.01L295,210.01L295,210.01L295,210.01
			L295,210.01L295,210.01L295,210.01L295,210.01L295,210.01L295,210.01L295,210.01L295,210.01L295,210.01L295,210.01L295,210.01
			L295,210.01L295,210.01L295,210.01L295,210.01L295,210.01L295,210.01L295,210.01L295,210.01L295,210.01L295,210.01L295,210.01
			L295,210.01L295,210.01L295,210.01L295,210.01L295,210.01L295,210.01L295,210.01L295,210.01L295,210.01L295,210.01L295,210.01
			L295,210.01L295,210.01L295,210.01L295,210.01L295,210.01L295,210.01L295,210.01L295,210.01L295,210.01L295,210.01L295,210.01
			L295,210.01L295,210.01L295,210.01L295,210.01L295,210.01L295,210.01L295,210.01L295,210.01L295,210.01L295,210.01L295,210.01
			L295,210.01L295,210.01L295,210.01L295,210.01L295,210.01"/>
		<path class="st2" d="M349,210.01l-0.17,4.21l-0.51,4.18l-0.85,4.13l-1.18,4.05l-1.5,3.94l-1.82,3.81l-2.12,3.66l-2.41,3.48
			l-2.69,3.28l-2.94,3.06l-3.18,2.83l-3.4,2.57l-3.6,2.3l-3.77,2.01l-3.92,1.71l-4.05,1.4l-4.15,1.08l-4.23,0.75l-4.27,0.42
			l-4.29,0.08l-4.29-0.25l-4.25-0.58l-4.19-0.91l-4.1-1.24l-3.99-1.55l-3.85-1.86l-3.69-2.15l-3.5-2.43l-3.3-2.7l-3.07-2.95
			l-2.82-3.18l-2.55-3.39l-2.27-3.57l-1.97-3.74l-1.66-3.88l-1.34-4l-1.01-4.09l-0.68-4.16l-0.34-4.2v-4.21l0.34-4.2l0.68-4.16
			l1.01-4.09l1.34-4l1.66-3.88l1.97-3.74l2.27-3.57l2.55-3.39l2.82-3.18l3.07-2.95l3.3-2.7l3.5-2.43l3.69-2.15l3.85-1.86l3.99-1.55
			l4.1-1.24l4.19-0.91l4.25-0.58l4.29-0.25l4.29,0.08l4.27,0.42l4.23,0.75l4.15,1.08l4.05,1.4l3.92,1.71l3.77,2.01l3.6,2.3l3.4,2.57
			l3.18,2.83l2.94,3.06l2.69,3.28l2.41,3.48l2.12,3.66l1.82,3.81l1.5,3.94l1.18,4.05l0.85,4.13l0.51,4.18L349,210.01"/>
		<path class="st2" d="M403,210.01l-0.34,8.41l-1.02,8.36l-1.7,8.26l-2.36,8.1l-3.01,7.89l-3.64,7.63l-4.24,7.32l-4.82,6.97
			l-5.37,6.57l-5.89,6.13l-6.37,5.65l-6.8,5.14l-7.2,4.59l-7.55,4.02l-7.85,3.41l-8.1,2.79l-8.3,2.15l-8.45,1.5l-8.55,0.84
			l-8.59,0.17l-8.57-0.5l-8.5-1.17l-8.38-1.83l-8.21-2.47l-7.98-3.11l-7.7-3.72l-7.38-4.31l-7.01-4.87l-6.59-5.4l-6.13-5.9
			l-5.64-6.35l-5.1-6.77l-4.54-7.15l-3.94-7.48l-3.33-7.76l-2.69-8l-2.03-8.18l-1.36-8.31l-0.68-8.39v-8.42l0.68-8.39l1.36-8.31
			l2.03-8.18l2.69-8l3.33-7.76l3.94-7.48l4.54-7.15l5.1-6.77l5.64-6.35l6.13-5.9l6.59-5.4l7.01-4.87l7.38-4.31l7.7-3.72l7.98-3.11
			l8.21-2.47l8.38-1.83l8.5-1.17l8.57-0.5l8.59,0.17l8.55,0.84l8.45,1.5l8.3,2.15l8.1,2.79l7.85,3.41l7.55,4.02l7.2,4.59l6.8,5.14
			l6.37,5.65l5.89,6.13l5.37,6.57l4.82,6.97l4.24,7.32l3.64,7.63l3.01,7.89l2.36,8.1l1.7,8.26l1.02,8.36L403,210.01"/>
		<path class="st2" d="M457,210.01l-0.51,12.62l-1.53,12.54l-2.54,12.38l-3.54,12.15l-4.51,11.83l-5.46,11.44l-6.37,10.98
			l-7.24,10.45l-8.06,9.85l-8.83,9.19l-9.55,8.48l-10.21,7.71l-10.8,6.89l-11.32,6.02l-11.77,5.12l-12.15,4.19l-12.45,3.23
			l-12.68,2.25l-12.82,1.25l-12.88,0.25l-12.86-0.75l-12.76-1.75l-12.57-2.74l-12.31-3.71l-11.97-4.66l-11.56-5.58l-11.07-6.46
			l-10.51-7.3l-9.89-8.1l-9.2-8.84l-8.45-9.53l-7.65-10.16l-6.81-10.72l-5.92-11.22l-4.99-11.65l-4.03-12l-3.04-12.27l-2.04-12.47
			l-1.02-12.59v-12.63l1.02-12.59l2.04-12.47l3.04-12.27l4.03-12l4.99-11.65l5.92-11.22l6.81-10.72l7.65-10.16l8.45-9.53l9.2-8.84
			l9.89-8.1l10.51-7.3l11.07-6.46l11.56-5.58l11.97-4.66l12.31-3.71l12.57-2.74l12.76-1.75l12.86-0.75l12.88,0.25l12.82,1.25
			l12.68,2.25l12.45,3.23l12.15,4.19l11.77,5.12l11.32,6.02l10.8,6.89l10.21,7.71l9.55,8.48l8.83,9.19l8.06,9.85l7.24,10.45
			l6.37,10.98l5.46,11.44l4.51,11.83l3.54,12.15l2.54,12.38l1.53,12.54L457,210.01"/>
		<path class="st3" d="M457,210.01l-0.51-12.62l-1.53-12.54l-2.54-12.38l-3.54-12.15l-4.51-11.83l-5.46-11.44l-6.37-10.98
			l-7.24-10.45l-8.06-9.85l-8.83-9.19l-9.55-8.48l-10.21-7.71l-10.8-6.89l-11.32-6.02l-11.77-5.12l-12.15-4.19l-12.45-3.23
			l-12.68-2.25l-12.82-1.25l-12.88-0.25l-12.86,0.75l-12.76,1.75l-12.57,2.74l-12.31,3.71L229.3,64.8l-11.56,5.58l-11.07,6.46
			l-10.51,7.3l-9.89,8.1l-9.2,8.84l-8.45,9.53l-7.65,10.16l-6.81,10.72l-5.92,11.22l-4.99,11.65l-4.03,12l-3.04,12.27l-2.04,12.47
			l-1.02,12.59v12.63l1.02,12.59l2.04,12.47l3.04,12.27l4.03,12l4.99,11.65l5.92,11.22l6.81,10.72l7.65,10.16l8.45,9.53l9.2,8.84
			l9.89,8.1l10.51,7.3l11.07,6.46l11.56,5.58l11.97,4.66l12.31,3.71l12.57,2.74l12.76,1.75l12.86,0.75l12.88-0.25l12.82-1.25
			l12.68-2.25l12.45-3.23l12.15-4.19l11.77-5.12l11.32-6.02l10.8-6.89l10.21-7.71l9.55-8.48l8.83-9.19l8.06-9.85l7.24-10.45
			l6.37-10.98l5.46-11.44l4.51-11.83l3.54-12.15l2.54-12.38l1.53-12.54L457,210.01"/>
	</g>
	<g transform="translate(462.3333,206)">
		<text transform="matrix(1.0482 0 0 1 13.4362 8.4229)" class="st4 st5 st6">Low Firing</text>
	</g>
	<g transform="translate(413.3225,87.6775)">
		<text transform="matrix(1.0482 0 0 1 12.0701 2.3796)" class="st4 st5 st6">Correlation</text>
	</g>
	<g transform="translate(295,38.6667)">
		<text transform="matrix(1.0482 0 0 1 -26.6865 3.3289)" class="st4 st5 st6">Amplitude</text>
	</g>
	<g transform="translate(176.6775,87.6775)">
		<text transform="matrix(1.0482 0 0 1 -66.4715 2.3796)" class="st4 st5 st6">Half Width</text>
	</g>
	<g transform="translate(127.6667,206)">
		<text transform="matrix(1.0482 0 0 1 -33.9172 8.4229)" class="st4 st5 st6">Slope</text>
	</g>
	<g transform="translate(176.6775,324.3225)">
		<text transform="matrix(1.0482 0 0 1 -72.6384 14.4656)" class="st4 st5 st6">ACG Empty</text>
	</g>
	<g transform="translate(295,373.3333)">
		<text transform="matrix(1.0482 0 0 1 -16.9219 13.5163)" class="st4 st5 st6">ACG All</text>
	</g>
	<g transform="translate(413.3225,324.3225)">
		<text transform="matrix(1.0482 0 0 1 12.0701 14.4656)" class="st4 st5 st6">MUA</text>
	</g>
	<g transform="translate(295,206)">
		<text transform="matrix(1.0482 0 0 1 4.1494 8.4229)" class="st4 st5 st6">0</text>
	</g>
	<g transform="translate(304.377,152.8204)">
		<text transform="matrix(1.0482 0 0 1 0.2988 9.453)" class="st4 st5 st6">20</text>
	</g>
	<g transform="translate(313.754,99.6408)">
		<text transform="matrix(1.0482 0 0 1 0.5605 10.4827)" class="st4 st5 st6">40</text>
	</g>
	<g transform="translate(323.131,46.4611)">
		<text transform="matrix(1.0482 0 0 1 0.8211 11.513)" class="st4 st5 st6">60</text>
	</g>
	<g transform="translate(295.0003,18.9167)">
		<text transform="matrix(1.0482 0 0 1 -314.9998 3.7112)" class="st7"><tspan x="0" y="0" class="st5 st8">                   </tspan><tspan x="57.93" y="0" class="st9 st10">PERCENTAGE OF NOISY + MUA CLUSTERS REMOVED AT EVERY STEP</tspan></text>
	</g>
	<g>
		<path class="st11" d="M301.38,210.01l30.2-35.87L295,210.01l-3.01-2.95l3.01,2.95l-2,1.97l2-1.27l105.73,102.99L301.38,210.01"/>
		<ellipse class="st12" cx="301.38" cy="210.01" rx="4" ry="3.92"/>
		<ellipse class="st12" cx="331.58" cy="174.14" rx="4" ry="3.92"/>
		<ellipse class="st12" cx="295" cy="210.01" rx="4" ry="3.92"/>
		<ellipse class="st12" cx="291.99" cy="207.06" rx="4" ry="3.92"/>
		<ellipse class="st12" cx="295" cy="210.01" rx="4" ry="3.92"/>
		<ellipse class="st12" cx="293" cy="211.98" rx="4" ry="3.92"/>
		<ellipse class="st12" cx="295" cy="210.7" rx="4" ry="3.92"/>
		<ellipse class="st12" cx="400.73" cy="313.69" rx="4" ry="3.92"/>
		<ellipse class="st12" cx="301.38" cy="210.01" rx="4" ry="3.92"/>
	</g>
	<g transform="translate(328.378,206)">
	</g>
</g>
<text transform="matrix(1 0 0 1 533 200)" class="st13 st9 st14">1</text>
<text transform="matrix(1 0 0 1 490 74)" class="st13 st9 st14">2</text>
<text transform="matrix(1.2322 0 0 1 336 41.2461)" class="st13 st9 st15">3</text>
<text transform="matrix(1 0 0 1 96 76)" class="st13 st9 st14">4</text>
<text transform="matrix(1 0 0 1 80 198)" class="st13 st9 st14">5</text>
<text transform="matrix(1 0 0 1 85 327)" class="st13 st9 st14">6</text>
<text transform="matrix(1.2742 0 0 1 262 399.6348)" class="st13 st9 st16">7</text>
<text transform="matrix(1 0 0 1 416 355)" class="st13 st9 st14">8</text>
</svg>
