<?xml version="1.0" encoding="utf-8"?>
<!-- Generator: Adobe Illustrator 29.8.2, SVG Export Plug-In . SVG Version: 9.03 Build 0)  -->
<svg version="1.0" id="Layer_1" xmlns="http://www.w3.org/2000/svg" xmlns:xlink="http://www.w3.org/1999/xlink" x="0px" y="0px"
	 viewBox="0 0 612 236.35" style="enable-background:new 0 0 612 236.35;" xml:space="preserve">
<style type="text/css">
	.st0{enable-background:new    ;}
	.st1{fill:none;stroke:#000000;stroke-miterlimit:10;}
	.st2{fill:#938585;}
	.st3{fill:url(#SVGID_1_);}
	.st4{font-family:'TimesNewRomanPSMT';}
	.st5{font-size:12px;}
</style>
<g class="st0">
	<path d="M130.36,25.97c0,0.61-0.16,1.15-0.47,1.63s-0.77,0.86-1.37,1.13s-1.31,0.41-2.14,0.41c-0.99,0-1.8-0.19-2.45-0.56
		c-0.46-0.27-0.83-0.63-1.11-1.08c-0.28-0.45-0.43-0.88-0.43-1.31c0-0.25,0.09-0.46,0.26-0.63c0.17-0.17,0.39-0.26,0.65-0.26
		c0.21,0,0.4,0.07,0.54,0.21s0.27,0.34,0.38,0.61c0.13,0.32,0.27,0.59,0.41,0.8s0.36,0.39,0.63,0.53c0.27,0.14,0.62,0.21,1.06,0.21
		c0.6,0,1.09-0.14,1.47-0.42c0.38-0.28,0.56-0.63,0.56-1.05c0-0.33-0.1-0.6-0.3-0.81c-0.2-0.21-0.46-0.37-0.79-0.47
		s-0.75-0.23-1.29-0.35c-0.72-0.17-1.32-0.37-1.81-0.59c-0.49-0.23-0.87-0.53-1.16-0.92c-0.28-0.39-0.43-0.87-0.43-1.45
		c0-0.55,0.15-1.04,0.45-1.47s0.74-0.76,1.31-0.99c0.57-0.23,1.24-0.34,2.01-0.34c0.62,0,1.15,0.08,1.6,0.23
		c0.45,0.15,0.82,0.36,1.12,0.61c0.3,0.25,0.51,0.52,0.65,0.8s0.21,0.55,0.21,0.81c0,0.24-0.09,0.46-0.26,0.65
		c-0.17,0.19-0.38,0.29-0.64,0.29c-0.23,0-0.41-0.06-0.53-0.17c-0.12-0.12-0.25-0.31-0.39-0.57c-0.18-0.38-0.4-0.67-0.66-0.88
		c-0.26-0.21-0.67-0.32-1.23-0.32c-0.52,0-0.95,0.12-1.27,0.35c-0.32,0.23-0.48,0.51-0.48,0.83c0,0.2,0.05,0.37,0.16,0.52
		s0.26,0.27,0.45,0.38s0.39,0.19,0.58,0.25s0.52,0.15,0.97,0.26c0.56,0.13,1.08,0.28,1.53,0.44s0.85,0.35,1.17,0.58
		s0.57,0.52,0.75,0.87C130.27,25.04,130.36,25.46,130.36,25.97z"/>
	<path d="M135.97,25.07h-1.86v2.84c0,0.41-0.1,0.71-0.29,0.92s-0.43,0.31-0.72,0.31c-0.31,0-0.55-0.1-0.74-0.31
		c-0.19-0.21-0.28-0.51-0.28-0.91V20.2c0-0.45,0.1-0.77,0.31-0.96s0.53-0.29,0.98-0.29h2.6c0.77,0,1.36,0.06,1.78,0.18
		c0.41,0.11,0.76,0.3,1.06,0.57s0.53,0.59,0.68,0.97s0.23,0.81,0.23,1.29c0,1.02-0.31,1.79-0.94,2.32
		C138.15,24.81,137.22,25.07,135.97,25.07z M135.48,20.48h-1.37v3.06h1.37c0.48,0,0.88-0.05,1.2-0.15s0.57-0.26,0.73-0.49
		s0.25-0.53,0.25-0.9c0-0.44-0.13-0.8-0.39-1.08C136.99,20.63,136.39,20.48,135.48,20.48z"/>
	<path d="M141.5,27.91v-7.9c0-0.41,0.09-0.72,0.28-0.92s0.43-0.31,0.72-0.31c0.31,0,0.55,0.1,0.74,0.3c0.19,0.2,0.28,0.51,0.28,0.93
		v7.9c0,0.42-0.09,0.72-0.28,0.93s-0.44,0.31-0.74,0.31c-0.29,0-0.53-0.1-0.72-0.31C141.6,28.63,141.5,28.32,141.5,27.91z"/>
	<path d="M147.85,20.02v3.51l3.99-4.16c0.19-0.2,0.35-0.35,0.49-0.44s0.31-0.14,0.54-0.14c0.29,0,0.53,0.08,0.71,0.26
		c0.18,0.17,0.27,0.38,0.27,0.62c0,0.3-0.15,0.59-0.46,0.88l-2.47,2.34l2.84,4.07c0.2,0.28,0.35,0.53,0.45,0.74
		c0.1,0.21,0.15,0.42,0.15,0.62c0,0.22-0.09,0.42-0.26,0.58s-0.41,0.25-0.71,0.25c-0.28,0-0.51-0.06-0.69-0.18
		c-0.18-0.12-0.33-0.28-0.45-0.48s-0.23-0.38-0.33-0.55l-2.4-3.69l-1.66,1.59v2.07c0,0.42-0.1,0.73-0.29,0.93
		c-0.19,0.2-0.44,0.3-0.74,0.3c-0.17,0-0.34-0.05-0.5-0.14s-0.28-0.21-0.37-0.37c-0.06-0.13-0.1-0.28-0.12-0.44
		s-0.02-0.41-0.02-0.73v-7.45c0-0.41,0.09-0.72,0.27-0.92s0.42-0.31,0.73-0.31c0.31,0,0.55,0.1,0.74,0.3
		C147.75,19.29,147.85,19.6,147.85,20.02z"/>
	<path d="M162.77,20.52h-4.57v2.46h4.21c0.31,0,0.54,0.07,0.69,0.21c0.15,0.14,0.23,0.32,0.23,0.55s-0.08,0.41-0.23,0.56
		c-0.15,0.14-0.38,0.22-0.7,0.22h-4.21v2.85h4.73c0.32,0,0.56,0.07,0.72,0.22c0.16,0.15,0.24,0.34,0.24,0.59
		c0,0.24-0.08,0.43-0.24,0.58c-0.16,0.15-0.4,0.22-0.72,0.22h-5.52c-0.44,0-0.76-0.1-0.95-0.29s-0.29-0.51-0.29-0.95V20.2
		c0-0.29,0.04-0.53,0.13-0.71c0.09-0.18,0.22-0.32,0.41-0.4c0.18-0.08,0.42-0.13,0.71-0.13h5.36c0.32,0,0.56,0.07,0.72,0.21
		c0.16,0.14,0.24,0.33,0.24,0.56c0,0.24-0.08,0.43-0.24,0.57C163.33,20.45,163.09,20.52,162.77,20.52z"/>
	<path d="M174.04,25.81c0,0.32-0.08,0.66-0.24,1.04c-0.16,0.37-0.4,0.74-0.74,1.09c-0.34,0.36-0.77,0.65-1.29,0.87
		s-1.13,0.33-1.83,0.33c-0.53,0-1.01-0.05-1.44-0.15s-0.83-0.26-1.18-0.47c-0.35-0.21-0.68-0.49-0.97-0.84
		c-0.26-0.31-0.49-0.67-0.68-1.06c-0.19-0.39-0.33-0.8-0.42-1.25s-0.14-0.91-0.14-1.41c0-0.81,0.12-1.53,0.35-2.17
		s0.57-1.18,1.01-1.64c0.44-0.45,0.95-0.8,1.54-1.04s1.21-0.36,1.88-0.36c0.81,0,1.53,0.16,2.17,0.49s1.12,0.72,1.46,1.2
		c0.34,0.48,0.51,0.93,0.51,1.35c0,0.23-0.08,0.44-0.25,0.62s-0.36,0.27-0.59,0.27c-0.26,0-0.45-0.06-0.58-0.18
		s-0.27-0.33-0.43-0.64c-0.26-0.5-0.58-0.87-0.93-1.11s-0.8-0.37-1.32-0.37c-0.83,0-1.5,0.32-1.99,0.95s-0.74,1.53-0.74,2.7
		c0,0.78,0.11,1.43,0.33,1.94c0.22,0.52,0.53,0.9,0.93,1.16s0.87,0.38,1.41,0.38c0.58,0,1.08-0.14,1.48-0.43
		c0.4-0.29,0.71-0.71,0.91-1.27c0.09-0.26,0.19-0.48,0.32-0.65c0.13-0.17,0.33-0.25,0.62-0.25c0.24,0,0.45,0.08,0.62,0.25
		S174.04,25.56,174.04,25.81z"/>
	<path d="M177.86,20.02v7.29h4.12c0.33,0,0.58,0.08,0.76,0.24s0.26,0.36,0.26,0.6c0,0.25-0.09,0.45-0.26,0.6
		c-0.17,0.15-0.43,0.23-0.76,0.23h-4.9c-0.44,0-0.76-0.1-0.95-0.29s-0.29-0.51-0.29-0.95v-7.72c0-0.41,0.09-0.72,0.28-0.92
		s0.43-0.31,0.73-0.31c0.31,0,0.55,0.1,0.74,0.3C177.76,19.29,177.86,19.6,177.86,20.02z"/>
	<path d="M190.93,20.52h-4.57v2.46h4.21c0.31,0,0.54,0.07,0.69,0.21c0.15,0.14,0.23,0.32,0.23,0.55s-0.08,0.41-0.23,0.56
		c-0.15,0.14-0.38,0.22-0.7,0.22h-4.21v2.85h4.73c0.32,0,0.56,0.07,0.72,0.22c0.16,0.15,0.24,0.34,0.24,0.59
		c0,0.24-0.08,0.43-0.24,0.58c-0.16,0.15-0.4,0.22-0.72,0.22h-5.52c-0.44,0-0.76-0.1-0.95-0.29s-0.29-0.51-0.29-0.95V20.2
		c0-0.29,0.04-0.53,0.13-0.71c0.09-0.18,0.22-0.32,0.41-0.4c0.18-0.08,0.42-0.13,0.71-0.13h5.36c0.32,0,0.56,0.07,0.72,0.21
		c0.16,0.14,0.24,0.33,0.24,0.56c0,0.24-0.08,0.43-0.24,0.57C191.49,20.45,191.25,20.52,190.93,20.52z"/>
	<path d="M200.07,27.84l-0.48-1.26h-4.07l-0.48,1.29c-0.19,0.5-0.35,0.84-0.48,1.02c-0.13,0.17-0.35,0.26-0.65,0.26
		c-0.26,0-0.48-0.09-0.68-0.28s-0.29-0.4-0.29-0.64c0-0.14,0.02-0.28,0.07-0.42s0.12-0.35,0.23-0.61l2.56-6.51
		c0.07-0.19,0.16-0.41,0.26-0.67c0.1-0.26,0.21-0.48,0.33-0.65s0.27-0.31,0.46-0.42c0.19-0.11,0.42-0.16,0.7-0.16
		c0.28,0,0.52,0.05,0.71,0.16c0.19,0.11,0.34,0.24,0.46,0.41s0.21,0.35,0.29,0.54c0.08,0.19,0.18,0.45,0.3,0.78l2.62,6.47
		c0.21,0.49,0.31,0.85,0.31,1.07c0,0.23-0.1,0.45-0.29,0.64c-0.19,0.19-0.43,0.29-0.7,0.29c-0.16,0-0.3-0.03-0.41-0.08
		c-0.11-0.06-0.21-0.13-0.29-0.23c-0.08-0.1-0.16-0.25-0.25-0.45C200.21,28.18,200.14,28,200.07,27.84z M196.05,25.06h2.99
		l-1.51-4.14L196.05,25.06z"/>
	<path d="M206.38,20l3.9,5.91v-5.96c0-0.39,0.08-0.68,0.25-0.87c0.17-0.19,0.39-0.29,0.67-0.29c0.29,0,0.52,0.1,0.69,0.29
		c0.17,0.19,0.25,0.48,0.25,0.87v7.88c0,0.88-0.36,1.32-1.09,1.32c-0.18,0-0.35-0.03-0.49-0.08c-0.15-0.05-0.28-0.13-0.41-0.25
		s-0.25-0.25-0.36-0.4c-0.11-0.15-0.22-0.31-0.33-0.47l-3.81-5.84v5.87c0,0.38-0.09,0.67-0.27,0.87s-0.41,0.29-0.68,0.29
		c-0.29,0-0.52-0.1-0.69-0.3c-0.17-0.2-0.26-0.49-0.26-0.86v-7.73c0-0.33,0.04-0.59,0.11-0.77c0.09-0.21,0.23-0.37,0.43-0.5
		c0.2-0.13,0.42-0.19,0.65-0.19c0.18,0,0.34,0.03,0.47,0.09s0.24,0.14,0.34,0.24s0.2,0.23,0.3,0.39S206.27,19.83,206.38,20z"/>
	<path d="M220.97,20.52h-4.57v2.46h4.21c0.31,0,0.54,0.07,0.69,0.21c0.15,0.14,0.23,0.32,0.23,0.55s-0.08,0.41-0.23,0.56
		c-0.15,0.14-0.38,0.22-0.7,0.22h-4.21v2.85h4.73c0.32,0,0.56,0.07,0.72,0.22c0.16,0.15,0.24,0.34,0.24,0.59
		c0,0.24-0.08,0.43-0.24,0.58c-0.16,0.15-0.4,0.22-0.72,0.22h-5.52c-0.44,0-0.76-0.1-0.95-0.29s-0.29-0.51-0.29-0.95V20.2
		c0-0.29,0.04-0.53,0.13-0.71c0.09-0.18,0.22-0.32,0.41-0.4c0.18-0.08,0.42-0.13,0.71-0.13h5.36c0.32,0,0.56,0.07,0.72,0.21
		c0.16,0.14,0.24,0.33,0.24,0.56c0,0.24-0.08,0.43-0.24,0.57C221.53,20.45,221.29,20.52,220.97,20.52z"/>
	<path d="M226.43,24.69h-0.71v3.22c0,0.42-0.09,0.74-0.28,0.94s-0.43,0.3-0.73,0.3c-0.32,0-0.57-0.1-0.75-0.31s-0.27-0.52-0.27-0.92
		V20.2c0-0.44,0.1-0.75,0.29-0.95s0.51-0.29,0.95-0.29h3.3c0.46,0,0.85,0.02,1.17,0.06c0.32,0.04,0.62,0.12,0.88,0.24
		c0.31,0.13,0.59,0.32,0.83,0.57s0.42,0.53,0.55,0.86c0.13,0.33,0.19,0.67,0.19,1.04c0,0.75-0.21,1.34-0.63,1.79
		s-1.06,0.76-1.92,0.95c0.36,0.19,0.7,0.47,1.03,0.85s0.62,0.77,0.88,1.19c0.26,0.42,0.46,0.8,0.6,1.14
		c0.14,0.34,0.22,0.57,0.22,0.7c0,0.13-0.04,0.26-0.13,0.39c-0.08,0.13-0.2,0.23-0.35,0.31c-0.15,0.07-0.31,0.11-0.51,0.11
		c-0.23,0-0.42-0.05-0.57-0.16c-0.15-0.11-0.29-0.24-0.4-0.41s-0.26-0.41-0.45-0.72l-0.81-1.35c-0.29-0.5-0.55-0.88-0.78-1.13
		s-0.46-0.44-0.7-0.53S226.79,24.69,226.43,24.69z M227.59,20.48h-1.87v2.75h1.82c0.49,0,0.9-0.04,1.23-0.13
		c0.33-0.08,0.59-0.23,0.76-0.43c0.18-0.2,0.26-0.48,0.26-0.84c0-0.28-0.07-0.52-0.21-0.73c-0.14-0.21-0.34-0.37-0.59-0.48
		C228.76,20.53,228.29,20.48,227.59,20.48z"/>
	<path d="M241.16,25.07h-1.86v2.84c0,0.41-0.1,0.71-0.29,0.92s-0.43,0.31-0.72,0.31c-0.31,0-0.55-0.1-0.74-0.31
		c-0.19-0.21-0.28-0.51-0.28-0.91V20.2c0-0.45,0.1-0.77,0.31-0.96s0.53-0.29,0.98-0.29h2.6c0.77,0,1.36,0.06,1.78,0.18
		c0.41,0.11,0.76,0.3,1.06,0.57s0.53,0.59,0.68,0.97s0.23,0.81,0.23,1.29c0,1.02-0.31,1.79-0.94,2.32
		C243.34,24.81,242.41,25.07,241.16,25.07z M240.67,20.48h-1.37v3.06h1.37c0.48,0,0.88-0.05,1.2-0.15s0.57-0.26,0.73-0.49
		s0.25-0.53,0.25-0.9c0-0.44-0.13-0.8-0.39-1.08C242.18,20.63,241.58,20.48,240.67,20.48z"/>
	<path d="M249.34,24.69h-0.71v3.22c0,0.42-0.09,0.74-0.28,0.94s-0.43,0.3-0.73,0.3c-0.32,0-0.57-0.1-0.75-0.31s-0.27-0.52-0.27-0.92
		V20.2c0-0.44,0.1-0.75,0.29-0.95s0.51-0.29,0.95-0.29h3.3c0.46,0,0.85,0.02,1.17,0.06c0.32,0.04,0.62,0.12,0.88,0.24
		c0.31,0.13,0.59,0.32,0.83,0.57s0.42,0.53,0.55,0.86c0.13,0.33,0.19,0.67,0.19,1.04c0,0.75-0.21,1.34-0.63,1.79
		s-1.06,0.76-1.92,0.95c0.36,0.19,0.7,0.47,1.03,0.85s0.62,0.77,0.88,1.19c0.26,0.42,0.46,0.8,0.6,1.14
		c0.14,0.34,0.22,0.57,0.22,0.7c0,0.13-0.04,0.26-0.13,0.39c-0.08,0.13-0.2,0.23-0.35,0.31c-0.15,0.07-0.31,0.11-0.51,0.11
		c-0.23,0-0.42-0.05-0.57-0.16c-0.15-0.11-0.29-0.24-0.4-0.41s-0.26-0.41-0.45-0.72l-0.81-1.35c-0.29-0.5-0.55-0.88-0.78-1.13
		s-0.46-0.44-0.7-0.53S249.7,24.69,249.34,24.69z M250.5,20.48h-1.87v2.75h1.82c0.49,0,0.9-0.04,1.23-0.13
		c0.33-0.08,0.59-0.23,0.76-0.43c0.18-0.2,0.26-0.48,0.26-0.84c0-0.28-0.07-0.52-0.21-0.73c-0.14-0.21-0.34-0.37-0.59-0.48
		C251.67,20.53,251.2,20.48,250.5,20.48z"/>
	<path d="M263.28,20.52h-4.57v2.46h4.21c0.31,0,0.54,0.07,0.69,0.21c0.15,0.14,0.23,0.32,0.23,0.55s-0.08,0.41-0.23,0.56
		c-0.15,0.14-0.38,0.22-0.7,0.22h-4.21v2.85h4.73c0.32,0,0.56,0.07,0.72,0.22c0.16,0.15,0.24,0.34,0.24,0.59
		c0,0.24-0.08,0.43-0.24,0.58c-0.16,0.15-0.4,0.22-0.72,0.22h-5.52c-0.44,0-0.76-0.1-0.95-0.29s-0.29-0.51-0.29-0.95V20.2
		c0-0.29,0.04-0.53,0.13-0.71c0.09-0.18,0.22-0.32,0.41-0.4c0.18-0.08,0.42-0.13,0.71-0.13h5.36c0.32,0,0.56,0.07,0.72,0.21
		c0.16,0.14,0.24,0.33,0.24,0.56c0,0.24-0.08,0.43-0.24,0.57C263.85,20.45,263.61,20.52,263.28,20.52z"/>
	<path d="M267.28,18.96h2.65c0.69,0,1.28,0.06,1.77,0.19s0.94,0.37,1.34,0.72c1.04,0.89,1.57,2.25,1.57,4.07
		c0,0.6-0.05,1.15-0.16,1.65s-0.27,0.94-0.49,1.34c-0.22,0.4-0.5,0.75-0.84,1.07c-0.27,0.24-0.56,0.44-0.88,0.58
		s-0.66,0.25-1.03,0.31s-0.78,0.09-1.24,0.09h-2.65c-0.37,0-0.65-0.06-0.83-0.17c-0.19-0.11-0.31-0.27-0.37-0.47
		c-0.06-0.2-0.09-0.47-0.09-0.79V20.2c0-0.44,0.1-0.75,0.29-0.95S266.84,18.96,267.28,18.96z M268.06,20.56v6.8h1.54
		c0.34,0,0.6-0.01,0.79-0.03s0.39-0.06,0.59-0.14s0.38-0.18,0.53-0.31c0.68-0.57,1.02-1.56,1.02-2.97c0-0.99-0.15-1.73-0.45-2.22
		s-0.67-0.81-1.1-0.94c-0.44-0.13-0.97-0.2-1.59-0.2H268.06z"/>
	<path d="M276.46,27.91v-7.9c0-0.41,0.09-0.72,0.28-0.92s0.43-0.31,0.72-0.31c0.31,0,0.55,0.1,0.74,0.3
		c0.19,0.2,0.28,0.51,0.28,0.93v7.9c0,0.42-0.09,0.72-0.28,0.93s-0.44,0.31-0.74,0.31c-0.29,0-0.53-0.1-0.72-0.31
		C276.56,28.63,276.46,28.32,276.46,27.91z"/>
	<path d="M289.3,25.81c0,0.32-0.08,0.66-0.24,1.04c-0.16,0.37-0.4,0.74-0.74,1.09c-0.34,0.36-0.77,0.65-1.29,0.87
		s-1.13,0.33-1.83,0.33c-0.53,0-1.01-0.05-1.44-0.15s-0.83-0.26-1.18-0.47c-0.35-0.21-0.68-0.49-0.97-0.84
		c-0.26-0.31-0.49-0.67-0.68-1.06c-0.19-0.39-0.33-0.8-0.42-1.25s-0.14-0.91-0.14-1.41c0-0.81,0.12-1.53,0.35-2.17
		s0.57-1.18,1.01-1.64c0.44-0.45,0.95-0.8,1.54-1.04s1.21-0.36,1.88-0.36c0.81,0,1.53,0.16,2.17,0.49s1.12,0.72,1.46,1.2
		c0.34,0.48,0.51,0.93,0.51,1.35c0,0.23-0.08,0.44-0.25,0.62s-0.36,0.27-0.59,0.27c-0.26,0-0.45-0.06-0.58-0.18
		s-0.27-0.33-0.43-0.64c-0.26-0.5-0.58-0.87-0.93-1.11s-0.8-0.37-1.32-0.37c-0.83,0-1.5,0.32-1.99,0.95s-0.74,1.53-0.74,2.7
		c0,0.78,0.11,1.43,0.33,1.94c0.22,0.52,0.53,0.9,0.93,1.16s0.87,0.38,1.41,0.38c0.58,0,1.08-0.14,1.48-0.43
		c0.4-0.29,0.71-0.71,0.91-1.27c0.09-0.26,0.19-0.48,0.32-0.65c0.13-0.17,0.33-0.25,0.62-0.25c0.24,0,0.45,0.08,0.62,0.25
		S289.3,25.56,289.3,25.81z"/>
	<path d="M297.64,20.63h-2.21v7.28c0,0.42-0.09,0.73-0.28,0.93c-0.19,0.2-0.43,0.3-0.72,0.3c-0.3,0-0.55-0.1-0.73-0.31
		s-0.28-0.51-0.28-0.93v-7.28h-2.21c-0.35,0-0.6-0.08-0.77-0.23c-0.17-0.15-0.25-0.35-0.25-0.6c0-0.26,0.09-0.46,0.26-0.62
		s0.43-0.23,0.76-0.23h6.45c0.35,0,0.61,0.08,0.78,0.23s0.26,0.36,0.26,0.61s-0.09,0.45-0.26,0.6
		C298.24,20.55,297.98,20.63,297.64,20.63z"/>
	<path d="M299.96,27.91v-7.9c0-0.41,0.09-0.72,0.28-0.92c0.19-0.21,0.43-0.31,0.72-0.31c0.31,0,0.55,0.1,0.74,0.3
		c0.19,0.2,0.28,0.51,0.28,0.93v7.9c0,0.42-0.09,0.72-0.28,0.93c-0.19,0.21-0.44,0.31-0.74,0.31c-0.29,0-0.53-0.1-0.72-0.31
		C300.05,28.63,299.96,28.32,299.96,27.91z"/>
	<path d="M308.67,18.78c1.04,0,1.93,0.21,2.68,0.63c0.75,0.42,1.31,1.02,1.69,1.8c0.38,0.78,0.57,1.69,0.57,2.74
		c0,0.77-0.1,1.48-0.31,2.11c-0.21,0.63-0.52,1.18-0.94,1.65c-0.42,0.46-0.93,0.82-1.54,1.07c-0.61,0.25-1.31,0.37-2.1,0.37
		c-0.78,0-1.49-0.13-2.11-0.38c-0.62-0.25-1.14-0.61-1.55-1.07c-0.41-0.46-0.73-1.01-0.94-1.66s-0.32-1.35-0.32-2.1
		c0-0.77,0.11-1.48,0.33-2.12c0.22-0.64,0.54-1.19,0.96-1.64c0.42-0.45,0.93-0.8,1.53-1.04C307.22,18.9,307.9,18.78,308.67,18.78z
		 M311.55,23.94c0-0.73-0.12-1.37-0.36-1.91c-0.24-0.54-0.58-0.94-1.01-1.22c-0.44-0.28-0.94-0.41-1.51-0.41
		c-0.41,0-0.78,0.08-1.12,0.23c-0.34,0.15-0.64,0.37-0.89,0.67c-0.25,0.29-0.44,0.66-0.59,1.12c-0.14,0.45-0.22,0.96-0.22,1.53
		c0,0.57,0.07,1.08,0.22,1.54s0.35,0.84,0.61,1.15c0.26,0.3,0.56,0.53,0.9,0.68c0.34,0.15,0.71,0.23,1.12,0.23
		c0.52,0,1-0.13,1.43-0.39c0.43-0.26,0.78-0.66,1.04-1.2C311.42,25.4,311.55,24.73,311.55,23.94z"/>
	<path d="M317.99,20l3.9,5.91v-5.96c0-0.39,0.08-0.68,0.25-0.87c0.17-0.19,0.39-0.29,0.67-0.29c0.29,0,0.52,0.1,0.69,0.29
		c0.17,0.19,0.25,0.48,0.25,0.87v7.88c0,0.88-0.36,1.32-1.09,1.32c-0.18,0-0.35-0.03-0.49-0.08c-0.15-0.05-0.28-0.13-0.41-0.25
		c-0.13-0.11-0.25-0.25-0.36-0.4c-0.11-0.15-0.22-0.31-0.33-0.47l-3.81-5.84v5.87c0,0.38-0.09,0.67-0.27,0.87s-0.41,0.29-0.68,0.29
		c-0.29,0-0.52-0.1-0.69-0.3c-0.17-0.2-0.26-0.49-0.26-0.86v-7.73c0-0.33,0.04-0.59,0.11-0.77c0.09-0.21,0.23-0.37,0.43-0.5
		c0.2-0.13,0.42-0.19,0.65-0.19c0.18,0,0.34,0.03,0.47,0.09s0.24,0.14,0.34,0.24c0.1,0.1,0.2,0.23,0.3,0.39S317.88,19.83,317.99,20z
		"/>
	<path d="M335.9,27.84l-0.48-1.26h-4.07l-0.48,1.29c-0.19,0.5-0.35,0.84-0.48,1.02c-0.13,0.17-0.35,0.26-0.65,0.26
		c-0.25,0-0.48-0.09-0.68-0.28c-0.2-0.19-0.29-0.4-0.29-0.64c0-0.14,0.02-0.28,0.07-0.42c0.05-0.15,0.12-0.35,0.23-0.61l2.56-6.51
		c0.07-0.19,0.16-0.41,0.26-0.67c0.1-0.26,0.21-0.48,0.33-0.65s0.27-0.31,0.46-0.42c0.19-0.11,0.42-0.16,0.7-0.16
		c0.28,0,0.52,0.05,0.71,0.16c0.19,0.11,0.34,0.24,0.46,0.41s0.21,0.35,0.29,0.54c0.08,0.19,0.18,0.45,0.3,0.78l2.62,6.47
		c0.21,0.49,0.31,0.85,0.31,1.07c0,0.23-0.1,0.45-0.29,0.64c-0.19,0.19-0.43,0.29-0.7,0.29c-0.16,0-0.3-0.03-0.41-0.08
		c-0.11-0.06-0.21-0.13-0.29-0.23c-0.08-0.1-0.16-0.25-0.25-0.45C336.04,28.18,335.96,28,335.9,27.84z M331.88,25.06h2.99
		l-1.51-4.14L331.88,25.06z"/>
	<path d="M347.74,25.81c0,0.32-0.08,0.66-0.24,1.04c-0.16,0.37-0.4,0.74-0.74,1.09c-0.34,0.36-0.77,0.65-1.29,0.87
		c-0.52,0.22-1.13,0.33-1.83,0.33c-0.53,0-1.01-0.05-1.44-0.15c-0.43-0.1-0.83-0.26-1.18-0.47c-0.35-0.21-0.68-0.49-0.97-0.84
		c-0.26-0.31-0.49-0.67-0.68-1.06c-0.19-0.39-0.33-0.8-0.42-1.25c-0.09-0.44-0.14-0.91-0.14-1.41c0-0.81,0.12-1.53,0.35-2.17
		c0.23-0.64,0.57-1.18,1.01-1.64c0.44-0.45,0.95-0.8,1.54-1.04s1.21-0.36,1.88-0.36c0.81,0,1.53,0.16,2.17,0.49
		c0.63,0.32,1.12,0.72,1.46,1.2c0.34,0.48,0.51,0.93,0.51,1.35c0,0.23-0.08,0.44-0.25,0.62s-0.36,0.27-0.59,0.27
		c-0.26,0-0.45-0.06-0.58-0.18s-0.27-0.33-0.43-0.64c-0.26-0.5-0.58-0.87-0.93-1.11c-0.36-0.25-0.8-0.37-1.32-0.37
		c-0.83,0-1.5,0.32-1.99,0.95c-0.5,0.63-0.74,1.53-0.74,2.7c0,0.78,0.11,1.43,0.33,1.94c0.22,0.52,0.53,0.9,0.93,1.16
		c0.4,0.25,0.87,0.38,1.41,0.38c0.58,0,1.08-0.14,1.48-0.43c0.4-0.29,0.71-0.71,0.91-1.27c0.09-0.26,0.19-0.48,0.32-0.65
		c0.13-0.17,0.33-0.25,0.62-0.25c0.24,0,0.45,0.08,0.62,0.25C347.66,25.35,347.74,25.56,347.74,25.81z"/>
	<path d="M358.11,25.81c0,0.32-0.08,0.66-0.24,1.04c-0.16,0.37-0.4,0.74-0.74,1.09c-0.34,0.36-0.77,0.65-1.29,0.87
		c-0.52,0.22-1.13,0.33-1.83,0.33c-0.53,0-1.01-0.05-1.44-0.15c-0.43-0.1-0.83-0.26-1.18-0.47c-0.35-0.21-0.68-0.49-0.97-0.84
		c-0.26-0.31-0.49-0.67-0.68-1.06c-0.19-0.39-0.33-0.8-0.42-1.25c-0.09-0.44-0.14-0.91-0.14-1.41c0-0.81,0.12-1.53,0.35-2.17
		c0.23-0.64,0.57-1.18,1.01-1.64c0.44-0.45,0.95-0.8,1.54-1.04s1.21-0.36,1.88-0.36c0.81,0,1.53,0.16,2.17,0.49
		c0.63,0.32,1.12,0.72,1.46,1.2c0.34,0.48,0.51,0.93,0.51,1.35c0,0.23-0.08,0.44-0.25,0.62s-0.36,0.27-0.59,0.27
		c-0.26,0-0.45-0.06-0.58-0.18s-0.27-0.33-0.43-0.64c-0.26-0.5-0.58-0.87-0.93-1.11c-0.36-0.25-0.8-0.37-1.32-0.37
		c-0.83,0-1.5,0.32-1.99,0.95c-0.5,0.63-0.74,1.53-0.74,2.7c0,0.78,0.11,1.43,0.33,1.94c0.22,0.52,0.53,0.9,0.93,1.16
		c0.4,0.25,0.87,0.38,1.41,0.38c0.58,0,1.08-0.14,1.48-0.43c0.4-0.29,0.71-0.71,0.91-1.27c0.09-0.26,0.19-0.48,0.32-0.65
		c0.13-0.17,0.33-0.25,0.62-0.25c0.24,0,0.45,0.08,0.62,0.25C358.02,25.35,358.11,25.56,358.11,25.81z"/>
	<path d="M359.94,24.83v-4.82c0-0.41,0.09-0.72,0.28-0.92s0.43-0.31,0.73-0.31c0.31,0,0.56,0.1,0.75,0.31s0.28,0.51,0.28,0.92v4.93
		c0,0.56,0.06,1.03,0.19,1.4c0.12,0.38,0.35,0.67,0.67,0.88c0.32,0.21,0.77,0.31,1.34,0.31c0.79,0,1.35-0.21,1.68-0.63
		c0.33-0.42,0.49-1.06,0.49-1.92v-4.97c0-0.42,0.09-0.72,0.27-0.93c0.18-0.2,0.43-0.3,0.73-0.3c0.31,0,0.55,0.1,0.74,0.3
		c0.19,0.2,0.28,0.51,0.28,0.93v4.82c0,0.78-0.08,1.44-0.23,1.96c-0.15,0.52-0.44,0.98-0.87,1.38c-0.36,0.34-0.79,0.58-1.27,0.74
		c-0.48,0.16-1.05,0.23-1.7,0.23c-0.77,0-1.43-0.08-1.99-0.25c-0.56-0.17-1.01-0.42-1.36-0.77c-0.35-0.35-0.61-0.79-0.77-1.34
		C360.03,26.24,359.94,25.59,359.94,24.83z"/>
	<path d="M373.29,24.69h-0.71v3.22c0,0.42-0.09,0.74-0.28,0.94c-0.19,0.2-0.43,0.3-0.73,0.3c-0.32,0-0.57-0.1-0.75-0.31
		s-0.27-0.52-0.27-0.92V20.2c0-0.44,0.1-0.75,0.29-0.95c0.2-0.2,0.51-0.29,0.95-0.29h3.3c0.46,0,0.85,0.02,1.17,0.06
		c0.32,0.04,0.62,0.12,0.88,0.24c0.31,0.13,0.59,0.32,0.83,0.57c0.24,0.25,0.42,0.53,0.55,0.86c0.12,0.33,0.19,0.67,0.19,1.04
		c0,0.75-0.21,1.34-0.63,1.79c-0.42,0.45-1.06,0.76-1.92,0.95c0.36,0.19,0.7,0.47,1.03,0.85s0.62,0.77,0.88,1.19
		c0.26,0.42,0.46,0.8,0.6,1.14c0.14,0.34,0.21,0.57,0.21,0.7c0,0.13-0.04,0.26-0.13,0.39c-0.08,0.13-0.2,0.23-0.35,0.31
		c-0.15,0.07-0.31,0.11-0.51,0.11c-0.23,0-0.42-0.05-0.57-0.16c-0.15-0.11-0.29-0.24-0.4-0.41c-0.11-0.16-0.26-0.41-0.46-0.72
		l-0.81-1.35c-0.29-0.5-0.55-0.88-0.78-1.13c-0.23-0.26-0.46-0.44-0.7-0.53C373.95,24.74,373.66,24.69,373.29,24.69z M374.46,20.48
		h-1.87v2.75h1.82c0.49,0,0.9-0.04,1.23-0.13c0.33-0.08,0.59-0.23,0.76-0.43c0.17-0.2,0.26-0.48,0.26-0.84
		c0-0.28-0.07-0.52-0.21-0.73c-0.14-0.21-0.34-0.37-0.59-0.48C375.62,20.53,375.15,20.48,374.46,20.48z"/>
	<path d="M387.05,27.84l-0.48-1.26h-4.07l-0.48,1.29c-0.19,0.5-0.35,0.84-0.48,1.02c-0.13,0.17-0.35,0.26-0.65,0.26
		c-0.25,0-0.48-0.09-0.68-0.28c-0.2-0.19-0.29-0.4-0.29-0.64c0-0.14,0.02-0.28,0.07-0.42c0.05-0.15,0.12-0.35,0.23-0.61l2.56-6.51
		c0.07-0.19,0.16-0.41,0.26-0.67c0.1-0.26,0.21-0.48,0.33-0.65s0.27-0.31,0.46-0.42c0.19-0.11,0.42-0.16,0.7-0.16
		c0.28,0,0.52,0.05,0.71,0.16c0.19,0.11,0.34,0.24,0.46,0.41s0.21,0.35,0.29,0.54c0.08,0.19,0.18,0.45,0.3,0.78l2.62,6.47
		c0.21,0.49,0.31,0.85,0.31,1.07c0,0.23-0.1,0.45-0.29,0.64c-0.19,0.19-0.43,0.29-0.7,0.29c-0.16,0-0.3-0.03-0.41-0.08
		c-0.11-0.06-0.21-0.13-0.29-0.23c-0.08-0.1-0.16-0.25-0.25-0.45C387.19,28.18,387.11,28,387.05,27.84z M383.03,25.06h2.99
		l-1.51-4.14L383.03,25.06z"/>
	<path d="M398.9,25.81c0,0.32-0.08,0.66-0.24,1.04c-0.16,0.37-0.4,0.74-0.74,1.09c-0.34,0.36-0.77,0.65-1.29,0.87
		c-0.52,0.22-1.13,0.33-1.83,0.33c-0.53,0-1.01-0.05-1.44-0.15c-0.43-0.1-0.83-0.26-1.18-0.47c-0.35-0.21-0.68-0.49-0.97-0.84
		c-0.26-0.31-0.49-0.67-0.68-1.06c-0.19-0.39-0.33-0.8-0.42-1.25c-0.09-0.44-0.14-0.91-0.14-1.41c0-0.81,0.12-1.53,0.35-2.17
		c0.23-0.64,0.57-1.18,1.01-1.64c0.44-0.45,0.95-0.8,1.54-1.04s1.21-0.36,1.88-0.36c0.81,0,1.53,0.16,2.17,0.49
		c0.63,0.32,1.12,0.72,1.46,1.2c0.34,0.48,0.51,0.93,0.51,1.35c0,0.23-0.08,0.44-0.25,0.62s-0.36,0.27-0.59,0.27
		c-0.26,0-0.45-0.06-0.58-0.18s-0.27-0.33-0.43-0.64c-0.26-0.5-0.58-0.87-0.93-1.11c-0.36-0.25-0.8-0.37-1.32-0.37
		c-0.83,0-1.5,0.32-1.99,0.95c-0.5,0.63-0.74,1.53-0.74,2.7c0,0.78,0.11,1.43,0.33,1.94c0.22,0.52,0.53,0.9,0.93,1.16
		c0.4,0.25,0.87,0.38,1.41,0.38c0.58,0,1.08-0.14,1.48-0.43c0.4-0.29,0.71-0.71,0.91-1.27c0.09-0.26,0.19-0.48,0.32-0.65
		c0.13-0.17,0.33-0.25,0.62-0.25c0.24,0,0.45,0.08,0.62,0.25C398.81,25.35,398.9,25.56,398.9,25.81z"/>
	<path d="M402.96,27.91v-3.18l-2.45-3.79c-0.21-0.34-0.37-0.61-0.45-0.8s-0.13-0.36-0.13-0.5c0-0.23,0.09-0.43,0.27-0.6
		c0.18-0.17,0.4-0.25,0.67-0.25c0.28,0,0.49,0.08,0.63,0.24c0.14,0.16,0.36,0.47,0.65,0.94l1.87,3.04l1.89-3.04
		c0.11-0.19,0.21-0.34,0.29-0.47c0.08-0.13,0.16-0.25,0.26-0.36c0.09-0.11,0.2-0.2,0.31-0.26c0.11-0.06,0.25-0.09,0.42-0.09
		c0.26,0,0.47,0.08,0.64,0.25c0.17,0.17,0.26,0.36,0.26,0.58c0,0.18-0.04,0.36-0.13,0.53c-0.09,0.18-0.23,0.42-0.44,0.74l-2.51,3.85
		v3.18c0,0.42-0.1,0.72-0.29,0.93s-0.43,0.31-0.73,0.31c-0.3,0-0.54-0.1-0.73-0.3C403.05,28.64,402.96,28.33,402.96,27.91z"/>
	<path d="M420.59,25.97c0,0.61-0.16,1.15-0.47,1.63c-0.31,0.48-0.77,0.86-1.37,1.13s-1.31,0.41-2.14,0.41
		c-0.99,0-1.8-0.19-2.45-0.56c-0.46-0.27-0.83-0.63-1.11-1.08c-0.29-0.45-0.43-0.88-0.43-1.31c0-0.25,0.09-0.46,0.26-0.63
		c0.17-0.17,0.39-0.26,0.65-0.26c0.21,0,0.4,0.07,0.54,0.21c0.15,0.14,0.27,0.34,0.38,0.61c0.13,0.32,0.27,0.59,0.41,0.8
		c0.15,0.21,0.36,0.39,0.62,0.53c0.27,0.14,0.62,0.21,1.06,0.21c0.6,0,1.09-0.14,1.47-0.42c0.38-0.28,0.56-0.63,0.56-1.05
		c0-0.33-0.1-0.6-0.3-0.81c-0.2-0.21-0.46-0.37-0.79-0.47s-0.75-0.23-1.29-0.35c-0.72-0.17-1.32-0.37-1.81-0.59
		c-0.49-0.23-0.87-0.53-1.16-0.92c-0.29-0.39-0.43-0.87-0.43-1.45c0-0.55,0.15-1.04,0.45-1.47s0.74-0.76,1.31-0.99
		c0.57-0.23,1.24-0.34,2.01-0.34c0.62,0,1.15,0.08,1.6,0.23c0.45,0.15,0.82,0.36,1.12,0.61c0.3,0.25,0.51,0.52,0.65,0.8
		s0.21,0.55,0.21,0.81c0,0.24-0.08,0.46-0.26,0.65c-0.17,0.19-0.38,0.29-0.64,0.29c-0.23,0-0.41-0.06-0.53-0.17
		c-0.12-0.12-0.25-0.31-0.39-0.57c-0.18-0.38-0.4-0.67-0.66-0.88c-0.25-0.21-0.67-0.32-1.23-0.32c-0.52,0-0.95,0.12-1.27,0.35
		c-0.32,0.23-0.48,0.51-0.48,0.83c0,0.2,0.05,0.37,0.16,0.52s0.26,0.27,0.45,0.38s0.39,0.19,0.58,0.25c0.2,0.06,0.52,0.15,0.97,0.26
		c0.57,0.13,1.08,0.28,1.54,0.44s0.85,0.35,1.17,0.58s0.57,0.52,0.75,0.87C420.5,25.04,420.59,25.46,420.59,25.97z"/>
	<path d="M428.82,20.63h-2.21v7.28c0,0.42-0.09,0.73-0.28,0.93c-0.19,0.2-0.43,0.3-0.72,0.3c-0.3,0-0.55-0.1-0.73-0.31
		c-0.19-0.21-0.28-0.51-0.28-0.93v-7.28h-2.21c-0.35,0-0.6-0.08-0.77-0.23c-0.17-0.15-0.25-0.35-0.25-0.6
		c0-0.26,0.09-0.46,0.26-0.62c0.17-0.15,0.43-0.23,0.76-0.23h6.45c0.35,0,0.61,0.08,0.78,0.23s0.26,0.36,0.26,0.61
		s-0.09,0.45-0.26,0.6C429.42,20.55,429.16,20.63,428.82,20.63z"/>
	<path d="M436.59,27.84l-0.48-1.26h-4.07l-0.48,1.29c-0.19,0.5-0.35,0.84-0.48,1.02c-0.13,0.17-0.35,0.26-0.65,0.26
		c-0.25,0-0.48-0.09-0.68-0.28c-0.2-0.19-0.29-0.4-0.29-0.64c0-0.14,0.02-0.28,0.07-0.42c0.05-0.15,0.12-0.35,0.23-0.61l2.56-6.51
		c0.07-0.19,0.16-0.41,0.26-0.67c0.1-0.26,0.21-0.48,0.33-0.65s0.27-0.31,0.46-0.42c0.19-0.11,0.42-0.16,0.7-0.16
		c0.28,0,0.52,0.05,0.71,0.16c0.19,0.11,0.34,0.24,0.46,0.41s0.21,0.35,0.29,0.54c0.08,0.19,0.18,0.45,0.3,0.78l2.62,6.47
		c0.21,0.49,0.31,0.85,0.31,1.07c0,0.23-0.1,0.45-0.29,0.64c-0.19,0.19-0.43,0.29-0.7,0.29c-0.16,0-0.3-0.03-0.41-0.08
		c-0.11-0.06-0.21-0.13-0.29-0.23c-0.08-0.1-0.16-0.25-0.25-0.45C436.73,28.18,436.65,28,436.59,27.84z M432.57,25.06h2.99
		l-1.51-4.14L432.57,25.06z"/>
	<path d="M445.52,20.63h-2.21v7.28c0,0.42-0.09,0.73-0.28,0.93c-0.19,0.2-0.43,0.3-0.72,0.3c-0.3,0-0.55-0.1-0.73-0.31
		c-0.19-0.21-0.28-0.51-0.28-0.93v-7.28h-2.21c-0.35,0-0.6-0.08-0.77-0.23c-0.17-0.15-0.25-0.35-0.25-0.6
		c0-0.26,0.09-0.46,0.26-0.62c0.17-0.15,0.43-0.23,0.76-0.23h6.45c0.35,0,0.61,0.08,0.78,0.23s0.26,0.36,0.26,0.61
		s-0.09,0.45-0.26,0.6C446.13,20.55,445.87,20.63,445.52,20.63z"/>
	<path d="M447.85,27.91v-7.9c0-0.41,0.09-0.72,0.28-0.92c0.19-0.21,0.43-0.31,0.72-0.31c0.31,0,0.55,0.1,0.74,0.3
		c0.19,0.2,0.28,0.51,0.28,0.93v7.9c0,0.42-0.09,0.72-0.28,0.93c-0.19,0.21-0.44,0.31-0.74,0.31c-0.29,0-0.53-0.1-0.72-0.31
		C447.94,28.63,447.85,28.32,447.85,27.91z"/>
	<path d="M459.76,25.97c0,0.61-0.16,1.15-0.47,1.63c-0.31,0.48-0.77,0.86-1.37,1.13s-1.31,0.41-2.14,0.41
		c-0.99,0-1.8-0.19-2.45-0.56c-0.46-0.27-0.83-0.63-1.11-1.08c-0.29-0.45-0.43-0.88-0.43-1.31c0-0.25,0.09-0.46,0.26-0.63
		c0.17-0.17,0.39-0.26,0.65-0.26c0.21,0,0.4,0.07,0.54,0.21c0.15,0.14,0.27,0.34,0.38,0.61c0.13,0.32,0.27,0.59,0.41,0.8
		c0.15,0.21,0.36,0.39,0.62,0.53c0.27,0.14,0.62,0.21,1.06,0.21c0.6,0,1.09-0.14,1.47-0.42c0.38-0.28,0.56-0.63,0.56-1.05
		c0-0.33-0.1-0.6-0.3-0.81c-0.2-0.21-0.46-0.37-0.79-0.47s-0.75-0.23-1.29-0.35c-0.72-0.17-1.32-0.37-1.81-0.59
		c-0.49-0.23-0.87-0.53-1.16-0.92c-0.29-0.39-0.43-0.87-0.43-1.45c0-0.55,0.15-1.04,0.45-1.47s0.74-0.76,1.31-0.99
		c0.57-0.23,1.24-0.34,2.01-0.34c0.62,0,1.15,0.08,1.6,0.23c0.45,0.15,0.82,0.36,1.12,0.61c0.3,0.25,0.51,0.52,0.65,0.8
		s0.21,0.55,0.21,0.81c0,0.24-0.08,0.46-0.26,0.65c-0.17,0.19-0.38,0.29-0.64,0.29c-0.23,0-0.41-0.06-0.53-0.17
		c-0.12-0.12-0.25-0.31-0.39-0.57c-0.18-0.38-0.4-0.67-0.66-0.88c-0.25-0.21-0.67-0.32-1.23-0.32c-0.52,0-0.95,0.12-1.27,0.35
		c-0.32,0.23-0.48,0.51-0.48,0.83c0,0.2,0.05,0.37,0.16,0.52s0.26,0.27,0.45,0.38s0.39,0.19,0.58,0.25c0.2,0.06,0.52,0.15,0.97,0.26
		c0.57,0.13,1.08,0.28,1.54,0.44s0.85,0.35,1.17,0.58s0.57,0.52,0.75,0.87C459.67,25.04,459.76,25.46,459.76,25.97z"/>
	<path d="M467.99,20.63h-2.21v7.28c0,0.42-0.09,0.73-0.28,0.93c-0.19,0.2-0.43,0.3-0.72,0.3c-0.3,0-0.55-0.1-0.73-0.31
		c-0.19-0.21-0.28-0.51-0.28-0.93v-7.28h-2.21c-0.35,0-0.6-0.08-0.77-0.23c-0.17-0.15-0.25-0.35-0.25-0.6
		c0-0.26,0.09-0.46,0.26-0.62c0.17-0.15,0.43-0.23,0.76-0.23h6.45c0.35,0,0.61,0.08,0.78,0.23s0.26,0.36,0.26,0.61
		s-0.09,0.45-0.26,0.6C468.6,20.55,468.34,20.63,467.99,20.63z"/>
	<path d="M470.32,27.91v-7.9c0-0.41,0.09-0.72,0.28-0.92c0.19-0.21,0.43-0.31,0.72-0.31c0.31,0,0.55,0.1,0.74,0.3
		c0.19,0.2,0.28,0.51,0.28,0.93v7.9c0,0.42-0.09,0.72-0.28,0.93c-0.19,0.21-0.44,0.31-0.74,0.31c-0.29,0-0.53-0.1-0.72-0.31
		C470.41,28.63,470.32,28.32,470.32,27.91z"/>
	<path d="M483.16,25.81c0,0.32-0.08,0.66-0.24,1.04c-0.16,0.37-0.4,0.74-0.74,1.09c-0.34,0.36-0.77,0.65-1.29,0.87
		c-0.52,0.22-1.13,0.33-1.83,0.33c-0.53,0-1.01-0.05-1.44-0.15c-0.43-0.1-0.83-0.26-1.18-0.47c-0.35-0.21-0.68-0.49-0.97-0.84
		c-0.26-0.31-0.49-0.67-0.68-1.06c-0.19-0.39-0.33-0.8-0.42-1.25c-0.09-0.44-0.14-0.91-0.14-1.41c0-0.81,0.12-1.53,0.35-2.17
		c0.23-0.64,0.57-1.18,1.01-1.64c0.44-0.45,0.95-0.8,1.54-1.04s1.21-0.36,1.88-0.36c0.81,0,1.53,0.16,2.17,0.49
		c0.63,0.32,1.12,0.72,1.46,1.2c0.34,0.48,0.51,0.93,0.51,1.35c0,0.23-0.08,0.44-0.25,0.62s-0.36,0.27-0.59,0.27
		c-0.26,0-0.45-0.06-0.58-0.18s-0.27-0.33-0.43-0.64c-0.26-0.5-0.58-0.87-0.93-1.11c-0.36-0.25-0.8-0.37-1.32-0.37
		c-0.83,0-1.5,0.32-1.99,0.95c-0.5,0.63-0.74,1.53-0.74,2.7c0,0.78,0.11,1.43,0.33,1.94c0.22,0.52,0.53,0.9,0.93,1.16
		c0.4,0.25,0.87,0.38,1.41,0.38c0.58,0,1.08-0.14,1.48-0.43c0.4-0.29,0.71-0.71,0.91-1.27c0.09-0.26,0.19-0.48,0.32-0.65
		c0.13-0.17,0.33-0.25,0.62-0.25c0.24,0,0.45,0.08,0.62,0.25C483.07,25.35,483.16,25.56,483.16,25.81z"/>
	<path d="M492.6,25.97c0,0.61-0.16,1.15-0.47,1.63c-0.31,0.48-0.77,0.86-1.37,1.13s-1.31,0.41-2.14,0.41c-0.99,0-1.8-0.19-2.45-0.56
		c-0.46-0.27-0.83-0.63-1.11-1.08c-0.29-0.45-0.43-0.88-0.43-1.31c0-0.25,0.09-0.46,0.26-0.63c0.17-0.17,0.39-0.26,0.65-0.26
		c0.21,0,0.4,0.07,0.54,0.21c0.15,0.14,0.27,0.34,0.38,0.61c0.13,0.32,0.27,0.59,0.41,0.8c0.15,0.21,0.36,0.39,0.62,0.53
		c0.27,0.14,0.62,0.21,1.06,0.21c0.6,0,1.09-0.14,1.47-0.42c0.38-0.28,0.56-0.63,0.56-1.05c0-0.33-0.1-0.6-0.3-0.81
		c-0.2-0.21-0.46-0.37-0.79-0.47s-0.75-0.23-1.29-0.35c-0.72-0.17-1.32-0.37-1.81-0.59c-0.49-0.23-0.87-0.53-1.16-0.92
		c-0.29-0.39-0.43-0.87-0.43-1.45c0-0.55,0.15-1.04,0.45-1.47s0.74-0.76,1.31-0.99c0.57-0.23,1.24-0.34,2.01-0.34
		c0.62,0,1.15,0.08,1.6,0.23c0.45,0.15,0.82,0.36,1.12,0.61c0.3,0.25,0.51,0.52,0.65,0.8s0.21,0.55,0.21,0.81
		c0,0.24-0.08,0.46-0.26,0.65c-0.17,0.19-0.38,0.29-0.64,0.29c-0.23,0-0.41-0.06-0.53-0.17c-0.12-0.12-0.25-0.31-0.39-0.57
		c-0.18-0.38-0.4-0.67-0.66-0.88c-0.25-0.21-0.67-0.32-1.23-0.32c-0.52,0-0.95,0.12-1.27,0.35c-0.32,0.23-0.48,0.51-0.48,0.83
		c0,0.2,0.05,0.37,0.16,0.52s0.26,0.27,0.45,0.38s0.39,0.19,0.58,0.25c0.2,0.06,0.52,0.15,0.97,0.26c0.57,0.13,1.08,0.28,1.54,0.44
		s0.85,0.35,1.17,0.58s0.57,0.52,0.75,0.87C492.51,25.04,492.6,25.46,492.6,25.97z"/>
</g>
<rect x="48" y="47.09" class="st1" width="521" height="162"/>
<rect x="49" y="48.09" class="st2" width="102.61" height="160"/>
<linearGradient id="SVGID_1_" gradientUnits="userSpaceOnUse" x1="48" y1="-663.37" x2="569.57" y2="-663.37" gradientTransform="matrix(1 0 0 -1 0 -604)">
	<stop  offset="0" style="stop-color:#FFFFFF"/>
	<stop  offset="0" style="stop-color:#000000;stop-opacity:0.5"/>
</linearGradient>
<polygon class="st3" points="569.57,48.09 569.57,70.65 48,70.65 48,48.09 "/>
<text transform="matrix(1 0 0 1 64.3044 92.5156)" class="st4 st5">ACCURACY</text>
<text transform="matrix(1 0 0 1 66.3652 124.3171)" class="st4 st5">PRECISION</text>
<text transform="matrix(1 0 0 1 90.8872 188.9193)" class="st4 st5">F1</text>
<text transform="matrix(1 0 0 1 74.7802 158.1308)" class="st4 st5">RECALL</text>
<text transform="matrix(1 0 0 1 169.9566 63.1546)" class="st4 st5">ALL CATERGORIES</text>
<text transform="matrix(1 0 0 1 315.6969 62.2933)" class="st4 st5">GOOD Vs REST</text>
<text transform="matrix(1 0 0 1 433.801 61.2066)" class="st4 st5">GOOD + MUA Vs NOISE</text>
<text transform="matrix(1 0 0 1 208.6456 93.9365)" class="st4 st5">0.97</text>
<text transform="matrix(1 0 0 1 208.3042 125.6958)" class="st4 st5">0.99</text>
<text transform="matrix(1 0 0 1 209.0827 156.8818)" class="st4 st5">0.87</text>
<text transform="matrix(1 0 0 1 209.9069 188.7475)" class="st4 st5">0.92</text>
<text transform="matrix(1 0 0 1 348.7429 94.0862)" class="st4 st5">0.97</text>
<text transform="matrix(1 0 0 1 348.9277 127.1259)" class="st4 st5">0.99</text>
<text transform="matrix(1 0 0 1 348.0883 157.0379)" class="st4 st5">0.87</text>
<text transform="matrix(1 0 0 1 348.865 188.6677)" class="st4 st5">0.92</text>
<text transform="matrix(1 0 0 1 490.7312 90.8741)" class="st4 st5">0.97</text>
<text transform="matrix(1 0 0 1 491.1667 124.063)" class="st4 st5">0.95</text>
<text transform="matrix(1 0 0 1 490.3842 156.044)" class="st4 st5">0.96</text>
<text transform="matrix(1 0 0 1 491.2748 185.702)" class="st4 st5">0.95</text>
</svg>
