<?xml version="1.0" encoding="utf-8"?>
<!-- Generator: Adobe Illustrator 29.8.2, SVG Export Plug-In . SVG Version: 9.03 Build 0)  -->
<svg version="1.0" id="Layer_1" xmlns="http://www.w3.org/2000/svg" xmlns:xlink="http://www.w3.org/1999/xlink" x="0px" y="0px"
	 viewBox="0 0 570 438" style="enable-background:new 0 0 570 438;" xml:space="preserve">
<style type="text/css">
	.st0{clip-path:url(#SVGID_00000181799638376724314440000008498522530768434068_);fill:#FFFFFF;}
	.st1{fill:#FFFFFF;}
	.st2{fill:none;stroke:#262626;stroke-width:0.6667;stroke-linejoin:round;stroke-miterlimit:10;stroke-opacity:0.149;}
	
		.st3{fill:none;stroke:#262626;stroke-width:0.6667;stroke-linecap:square;stroke-linejoin:round;stroke-miterlimit:10;stroke-opacity:0.149;}
	.st4{fill:#262626;}
	.st5{font-family:'ArialMT';}
	.st6{font-size:12px;}
	.st7{font-size:13.237px;}
	.st8{enable-background:new    ;}
	.st9{fill:none;stroke:#0072BD;stroke-width:2;stroke-linejoin:round;stroke-miterlimit:10;}
	.st10{fill:none;stroke:#0072BD;stroke-width:2;stroke-miterlimit:10;}
	.st11{fill:#F15923;}
	.st12{font-family:'ArialRoundedMTBold';}
	.st13{font-size:14px;}
	.st14{font-size:14.3126px;}
	.st15{font-size:14.1046px;}
</style>
<g>
	<g>
		<g>
			<g>
				<g>
					<defs>
						<rect id="SVGID_1_" x="15.13" y="28.98" width="554.44" height="410.02"/>
					</defs>
					<clipPath id="SVGID_00000147939554161931706280000011570365789686916767_">
						<use xlink:href="#SVGID_1_"  style="overflow:visible;"/>
					</clipPath>
					
						<rect x="15.13" y="28.98" style="clip-path:url(#SVGID_00000147939554161931706280000011570365789686916767_);fill:#FFFFFF;" width="554.44" height="410.02"/>
				</g>
			</g>
		</g>
	</g>
	<g>
		<rect x="-0.44" y="26.5" class="st1" width="554.44" height="410.02"/>
		<path class="st1" d="M459.65,233.49l-0.5-12.78l-1.49-12.7l-2.47-12.54l-3.44-12.3l-4.39-11.98l-5.31-11.58l-6.19-11.12
			l-7.04-10.58l-7.84-9.98l-8.59-9.31l-9.29-8.58l-9.93-7.8l-10.5-6.97l-11.01-6.1l-11.45-5.19l-11.82-4.24l-12.11-3.27l-12.33-2.28
			l-12.47-1.27l-12.53-0.25l-12.51,0.76l-12.41,1.77l-12.23,2.77l-11.98,3.76l-11.65,4.72l-11.24,5.65l-10.77,6.54l-10.22,7.39
			l-9.62,8.2l-8.95,8.95l-8.22,9.65l-7.45,10.29L165.09,154l-5.75,11.36l-4.85,11.79l-3.92,12.15l-2.96,12.43l-1.98,12.63l-1,12.75
			v12.79l1,12.75l1.98,12.63l2.96,12.43l3.92,12.15l4.85,11.79l5.75,11.36l6.62,10.86l7.45,10.29l8.22,9.65l8.95,8.95l9.62,8.2
			l10.22,7.39l10.77,6.54l11.24,5.65l11.65,4.72l11.98,3.76l12.23,2.77l12.41,1.77l12.51,0.76l12.53-0.25l12.47-1.27l12.33-2.28
			l12.11-3.27l11.82-4.24l11.45-5.19l11.01-6.1l10.5-6.97l9.93-7.8l9.29-8.58l8.59-9.31l7.84-9.98l7.04-10.58l6.19-11.12l5.31-11.58
			l4.39-11.98l3.44-12.3l2.47-12.54l1.49-12.7L459.65,233.49z"/>
	</g>
	<g>
		<line class="st2" x1="302.07" y1="233.49" x2="459.65" y2="233.49"/>
		<line class="st2" x1="302.07" y1="233.49" x2="413.5" y2="119.77"/>
		<line class="st2" x1="302.07" y1="233.49" x2="302.07" y2="72.66"/>
		<line class="st2" x1="302.07" y1="233.49" x2="190.65" y2="119.77"/>
		<line class="st2" x1="302.07" y1="233.49" x2="144.49" y2="233.49"/>
		<line class="st2" x1="302.07" y1="233.49" x2="190.65" y2="347.22"/>
		<line class="st2" x1="302.07" y1="233.49" x2="302.07" y2="394.32"/>
		<line class="st2" x1="302.07" y1="233.49" x2="413.5" y2="347.22"/>
		<path class="st2" d="M302.07,233.49L302.07,233.49L302.07,233.49L302.07,233.49L302.07,233.49L302.07,233.49L302.07,233.49
			L302.07,233.49L302.07,233.49L302.07,233.49L302.07,233.49L302.07,233.49L302.07,233.49L302.07,233.49L302.07,233.49
			L302.07,233.49L302.07,233.49L302.07,233.49L302.07,233.49L302.07,233.49L302.07,233.49L302.07,233.49L302.07,233.49
			L302.07,233.49L302.07,233.49L302.07,233.49L302.07,233.49L302.07,233.49L302.07,233.49L302.07,233.49L302.07,233.49
			L302.07,233.49L302.07,233.49L302.07,233.49L302.07,233.49L302.07,233.49L302.07,233.49L302.07,233.49L302.07,233.49
			L302.07,233.49L302.07,233.49L302.07,233.49L302.07,233.49L302.07,233.49L302.07,233.49L302.07,233.49L302.07,233.49
			L302.07,233.49L302.07,233.49L302.07,233.49L302.07,233.49L302.07,233.49L302.07,233.49L302.07,233.49L302.07,233.49
			L302.07,233.49L302.07,233.49L302.07,233.49L302.07,233.49L302.07,233.49L302.07,233.49L302.07,233.49L302.07,233.49
			L302.07,233.49L302.07,233.49L302.07,233.49L302.07,233.49L302.07,233.49L302.07,233.49L302.07,233.49L302.07,233.49
			L302.07,233.49L302.07,233.49L302.07,233.49L302.07,233.49L302.07,233.49L302.07,233.49L302.07,233.49L302.07,233.49
			L302.07,233.49"/>
		<path class="st2" d="M341.47,233.49l-0.12,3.19l-0.37,3.17l-0.62,3.13l-0.86,3.07l-1.1,2.99l-1.33,2.9l-1.55,2.78l-1.76,2.64
			l-1.96,2.49l-2.15,2.33l-2.32,2.15l-2.48,1.95l-2.63,1.74l-2.75,1.52l-2.86,1.3l-2.96,1.06l-3.03,0.82l-3.08,0.57l-3.12,0.32
			l-3.13,0.06l-3.13-0.19l-3.1-0.44l-3.06-0.69l-2.99-0.94l-2.91-1.18l-2.81-1.41l-2.69-1.64l-2.56-1.85l-2.4-2.05l-2.24-2.24
			l-2.06-2.41l-1.86-2.57l-1.66-2.71l-1.44-2.84l-1.21-2.95l-0.98-3.04l-0.74-3.11l-0.5-3.16l-0.25-3.19v-3.2l0.25-3.19l0.5-3.16
			l0.74-3.11l0.98-3.04l1.21-2.95l1.44-2.84l1.66-2.71l1.86-2.57l2.06-2.41l2.24-2.24l2.4-2.05l2.56-1.85l2.69-1.64l2.81-1.41
			l2.91-1.18l2.99-0.94l3.06-0.69l3.1-0.44l3.13-0.19l3.13,0.06l3.12,0.32l3.08,0.57l3.03,0.82l2.96,1.06l2.86,1.3l2.75,1.52
			l2.63,1.74l2.48,1.95l2.32,2.15l2.15,2.33l1.96,2.49l1.76,2.64l1.55,2.78l1.33,2.9l1.1,2.99l0.86,3.07l0.62,3.13l0.37,3.17
			L341.47,233.49"/>
		<path class="st2" d="M380.86,233.49l-0.25,6.39l-0.75,6.35l-1.24,6.27l-1.72,6.15l-2.19,5.99l-2.65,5.79l-3.1,5.56l-3.52,5.29
			l-3.92,4.99l-4.3,4.65l-4.64,4.29l-4.96,3.9l-5.25,3.49l-5.51,3.05l-5.73,2.59l-5.91,2.12l-6.06,1.63l-6.16,1.14l-6.23,0.63
			l-6.26,0.13l-6.25-0.38l-6.2-0.89l-6.12-1.39l-5.99-1.88l-5.82-2.36l-5.62-2.82l-5.38-3.27l-5.11-3.7l-4.81-4.1l-4.47-4.48
			l-4.11-4.82l-3.72-5.14l-3.31-5.43l-2.88-5.68l-2.43-5.9l-1.96-6.07l-1.48-6.21l-0.99-6.31l-0.5-6.37v-6.39l0.5-6.37l0.99-6.31
			l1.48-6.21l1.96-6.07l2.43-5.9l2.88-5.68l3.31-5.43l3.72-5.14l4.11-4.82l4.47-4.48l4.81-4.1l5.11-3.7l5.38-3.27l5.62-2.82
			l5.82-2.36l5.99-1.88l6.12-1.39l6.2-0.89l6.25-0.38l6.26,0.13l6.23,0.63l6.16,1.14l6.06,1.63l5.91,2.12l5.73,2.59l5.51,3.05
			l5.25,3.49l4.96,3.9l4.64,4.29l4.3,4.65l3.92,4.99l3.52,5.29l3.1,5.56l2.65,5.79l2.19,5.99l1.72,6.15l1.24,6.27l0.75,6.35
			L380.86,233.49"/>
		<path class="st2" d="M420.25,233.49l-0.37,9.58l-1.12,9.52l-1.86,9.4l-2.58,9.22l-3.29,8.98l-3.98,8.69l-4.64,8.34l-5.28,7.93
			l-5.88,7.48l-6.44,6.98l-6.97,6.44l-7.45,5.85l-7.88,5.23l-8.26,4.57l-8.59,3.89l-8.87,3.18l-9.08,2.45l-9.25,1.71l-9.35,0.95
			l-9.4,0.19l-9.38-0.57l-9.31-1.33l-9.17-2.08l-8.98-2.82l-8.73-3.54l-8.43-4.23l-8.08-4.91l-7.67-5.54l-7.21-6.15l-6.71-6.71
			l-6.17-7.24l-5.58-7.71l-4.97-8.14l-4.32-8.52l-3.64-8.84l-2.94-9.11l-2.22-9.32l-1.49-9.47l-0.75-9.56v-9.59l0.75-9.56l1.49-9.47
			l2.22-9.32l2.94-9.11l3.64-8.84l4.32-8.52l4.97-8.14l5.58-7.71l6.17-7.24l6.71-6.71l7.21-6.15l7.67-5.54l8.08-4.91l8.43-4.23
			l8.73-3.54l8.98-2.82l9.17-2.08l9.31-1.33l9.38-0.57l9.4,0.19l9.35,0.95l9.25,1.71l9.08,2.45l8.87,3.18l8.59,3.89l8.26,4.57
			l7.88,5.23l7.45,5.85l6.97,6.44l6.44,6.98l5.88,7.48l5.28,7.93l4.64,8.34l3.98,8.69l3.29,8.98l2.58,9.22l1.86,9.4l1.12,9.52
			L420.25,233.49"/>
		<path class="st2" d="M459.65,233.49l-0.5,12.78l-1.49,12.7l-2.47,12.54l-3.44,12.3l-4.39,11.98l-5.31,11.58l-6.19,11.12
			l-7.04,10.58l-7.84,9.98l-8.59,9.31l-9.29,8.58l-9.93,7.8l-10.5,6.97l-11.01,6.1L360.21,383l-11.82,4.24l-12.11,3.27l-12.33,2.28
			l-12.47,1.27l-12.53,0.25l-12.51-0.76l-12.41-1.77l-12.23-2.77l-11.98-3.76l-11.65-4.72l-11.24-5.65l-10.77-6.54l-10.22-7.39
			l-9.62-8.2l-8.95-8.95l-8.22-9.65l-7.45-10.29L165.08,313l-5.75-11.36l-4.85-11.79l-3.92-12.15l-2.96-12.43l-1.98-12.63l-1-12.75
			V227.1l1-12.75l1.98-12.63l2.96-12.43l3.92-12.15l4.85-11.79l5.75-11.36l6.62-10.86l7.45-10.29l8.22-9.65l8.95-8.95l9.62-8.2
			l10.22-7.39l10.77-6.54l11.24-5.65l11.65-4.72l11.98-3.76l12.23-2.77l12.41-1.77l12.51-0.76l12.53,0.25l12.47,1.27l12.33,2.28
			l12.11,3.27l11.82,4.24l11.45,5.19l11.01,6.1l10.5,6.97l9.93,7.8l9.29,8.58l8.59,9.31l7.84,9.98l7.04,10.58l6.19,11.12l5.31,11.58
			l4.39,11.98l3.44,12.3l2.47,12.54l1.49,12.7L459.65,233.49"/>
		<path class="st3" d="M459.65,233.49l-0.5-12.78l-1.49-12.7l-2.47-12.54l-3.44-12.3l-4.39-11.98l-5.31-11.58l-6.19-11.12
			l-7.04-10.58l-7.84-9.98l-8.59-9.31l-9.29-8.58l-9.93-7.8l-10.5-6.97l-11.01-6.1l-11.45-5.19l-11.82-4.24l-12.11-3.27l-12.33-2.28
			l-12.47-1.27l-12.53-0.25l-12.51,0.76l-12.41,1.77l-12.23,2.77l-11.98,3.76l-11.65,4.72l-11.24,5.65l-10.77,6.54l-10.22,7.39
			l-9.62,8.2l-8.95,8.95l-8.22,9.65l-7.45,10.29L165.09,154l-5.75,11.36l-4.85,11.79l-3.92,12.15l-2.96,12.43l-1.98,12.63l-1,12.75
			v12.79l1,12.75l1.98,12.63l2.96,12.43l3.92,12.15l4.85,11.79l5.75,11.36l6.62,10.86l7.45,10.29l8.22,9.65l8.95,8.95l9.62,8.2
			l10.22,7.39l10.77,6.54l11.24,5.65l11.65,4.72l11.98,3.76l12.23,2.77l12.41,1.77l12.51,0.76l12.53-0.25l12.47-1.27l12.33-2.28
			l12.11-3.27l11.82-4.24l11.45-5.19l11.01-6.1l10.5-6.97l9.93-7.8l9.29-8.58l8.59-9.31l7.84-9.98l7.04-10.58l6.19-11.12l5.31-11.58
			l4.39-11.98l3.44-12.3l2.47-12.54l1.49-12.7L459.65,233.49"/>
	</g>
	<g transform="translate(462.3333,206)">
		<text transform="matrix(0.9798 0 0 1 2.5026 31.9629)" class="st4 st5 st6">Low Firing</text>
	</g>
	<g transform="translate(413.3225,87.6775)">
		<text transform="matrix(0.9798 0 0 1 3.8411 24.3782)" class="st4 st5 st6">Correlation</text>
	</g>
	<g transform="translate(295,38.6667)">
		<text transform="matrix(0.9798 0 0 1 -26.4868 24.7322)" class="st4 st5 st6">Amplitude</text>
	</g>
	<g transform="translate(176.6775,87.6775)">
		<text transform="matrix(0.9798 0 0 1 -57.7859 24.3782)" class="st4 st5 st6">Half Width</text>
	</g>
	<g transform="translate(127.6667,206)">
		<text transform="matrix(0.9798 0 0 1 -24.3493 31.9629)" class="st4 st5 st6">Slope</text>
	</g>
	<g transform="translate(176.6775,324.3225)">
		<text transform="matrix(0.9798 0 0 1 -63.6228 39.5466)" class="st4 st5 st6">ACG Empty</text>
	</g>
	<g transform="translate(295,373.3333)">
		<text transform="matrix(0.9798 0 0 1 -17.2456 39.1931)" class="st4 st5 st6">ACG All</text>
	</g>
	<g transform="translate(413.3225,324.3225)">
		<text transform="matrix(0.9798 0 0 1 3.8411 39.5466)" class="st4 st5 st6">MUA</text>
	</g>
	<g transform="translate(295,206)">
		<text transform="matrix(0.9798 0 0 1 2.6943 31.9629)" class="st4 st5 st7">0</text>
	</g>
	<g transform="translate(302.0327,166.1153)">
		<text transform="matrix(0.9798 0 0 1 2.5024 32.2504)" class="st4 st5 st7">5</text>
	</g>
	<g transform="translate(309.0655,126.2306)">
		<text transform="matrix(0.9798 0 0 1 -1.5806 32.5384)" class="st4 st5 st7">10</text>
	</g>
	<g transform="translate(316.0983,86.3459)">
		<text transform="matrix(0.9798 0 0 1 -1.7726 32.8265)" class="st4 st5 st7">15</text>
	</g>
	<g transform="translate(323.131,46.4611)">
		<text transform="matrix(0.9798 0 0 1 -1.9645 33.1146)" class="st4 st5 st7">20</text>
	</g>
	<g transform="translate(295.0003,18.9167)">
		<g class="st8">
			<path d="M-257.34,3.23h-1.82v2.84c0,0.41-0.09,0.71-0.28,0.92s-0.42,0.31-0.71,0.31c-0.3,0-0.54-0.1-0.72-0.31
				s-0.27-0.51-0.27-0.91v-7.72c0-0.45,0.1-0.77,0.3-0.96c0.2-0.19,0.52-0.29,0.96-0.29h2.55c0.75,0,1.33,0.06,1.74,0.18
				c0.4,0.11,0.75,0.3,1.04,0.57s0.51,0.59,0.67,0.97s0.23,0.81,0.23,1.29c0,1.02-0.31,1.79-0.92,2.32S-256.12,3.23-257.34,3.23z
				 M-257.82-1.37h-1.34V1.7h1.34c0.47,0,0.86-0.05,1.18-0.15c0.31-0.1,0.55-0.26,0.72-0.49s0.25-0.53,0.25-0.9
				c0-0.44-0.13-0.8-0.38-1.08C-256.34-1.22-256.93-1.37-257.82-1.37z"/>
			<path d="M-245.53-1.33h-4.48v2.46h4.13c0.3,0,0.53,0.07,0.68,0.21c0.15,0.14,0.22,0.32,0.22,0.55s-0.07,0.41-0.22,0.56
				c-0.15,0.14-0.38,0.22-0.68,0.22h-4.13v2.85h4.63c0.31,0,0.55,0.07,0.71,0.22c0.16,0.15,0.24,0.35,0.24,0.59
				c0,0.24-0.08,0.43-0.24,0.58c-0.16,0.15-0.39,0.22-0.71,0.22h-5.41c-0.43,0-0.74-0.1-0.93-0.29c-0.19-0.2-0.28-0.51-0.28-0.95
				v-7.53c0-0.29,0.04-0.53,0.13-0.71c0.08-0.18,0.22-0.32,0.4-0.4c0.18-0.08,0.41-0.13,0.69-0.13h5.25c0.32,0,0.55,0.07,0.71,0.22
				c0.15,0.14,0.23,0.33,0.23,0.56c0,0.24-0.08,0.43-0.23,0.57C-244.97-1.4-245.21-1.33-245.53-1.33z"/>
			<path d="M-240.18,2.84h-0.7v3.22c0,0.42-0.09,0.74-0.27,0.94s-0.42,0.3-0.72,0.3c-0.32,0-0.56-0.1-0.74-0.31
				c-0.17-0.21-0.26-0.52-0.26-0.92v-7.71c0-0.44,0.1-0.75,0.29-0.95s0.5-0.29,0.93-0.29h3.23c0.45,0,0.83,0.02,1.15,0.06
				c0.32,0.04,0.6,0.12,0.86,0.24c0.31,0.13,0.58,0.32,0.82,0.57s0.42,0.53,0.54,0.86c0.12,0.33,0.18,0.67,0.18,1.04
				c0,0.75-0.21,1.34-0.62,1.79s-1.04,0.76-1.88,0.95c0.35,0.19,0.69,0.47,1.01,0.85c0.32,0.37,0.61,0.77,0.86,1.19
				s0.45,0.8,0.59,1.14s0.21,0.57,0.21,0.7c0,0.13-0.04,0.26-0.12,0.39c-0.08,0.13-0.2,0.23-0.34,0.31
				c-0.14,0.08-0.31,0.11-0.5,0.11c-0.22,0-0.41-0.05-0.56-0.16c-0.15-0.11-0.28-0.24-0.39-0.41s-0.26-0.41-0.45-0.72l-0.8-1.35
				c-0.29-0.5-0.54-0.88-0.77-1.13s-0.45-0.44-0.69-0.53C-239.53,2.89-239.82,2.84-240.18,2.84z M-239.04-1.37h-1.84v2.75h1.78
				c0.48,0,0.88-0.04,1.21-0.13c0.33-0.08,0.58-0.23,0.75-0.43s0.26-0.48,0.26-0.84c0-0.28-0.07-0.52-0.21-0.73
				c-0.14-0.21-0.33-0.37-0.58-0.48C-237.9-1.32-238.35-1.37-239.04-1.37z"/>
			<path d="M-224.8,3.97c0,0.32-0.08,0.66-0.23,1.04c-0.15,0.37-0.4,0.74-0.73,1.09s-0.75,0.65-1.27,0.87
				c-0.51,0.22-1.11,0.33-1.79,0.33c-0.52,0-0.99-0.05-1.41-0.15s-0.81-0.26-1.16-0.47c-0.35-0.21-0.66-0.49-0.95-0.84
				c-0.26-0.31-0.48-0.67-0.66-1.06s-0.32-0.81-0.41-1.25c-0.09-0.44-0.14-0.91-0.14-1.41c0-0.81,0.11-1.53,0.35-2.17
				c0.23-0.64,0.56-1.18,0.99-1.64s0.93-0.8,1.51-1.04c0.58-0.24,1.19-0.36,1.84-0.36c0.79,0,1.5,0.16,2.12,0.49s1.1,0.72,1.43,1.2
				c0.33,0.48,0.5,0.93,0.5,1.35c0,0.23-0.08,0.44-0.24,0.62s-0.35,0.27-0.58,0.27c-0.25,0-0.45-0.06-0.57-0.18
				c-0.13-0.12-0.27-0.33-0.43-0.64c-0.26-0.5-0.56-0.87-0.91-1.11s-0.78-0.37-1.3-0.37c-0.82,0-1.47,0.32-1.95,0.95
				s-0.73,1.53-0.73,2.7c0,0.78,0.11,1.43,0.32,1.94c0.21,0.52,0.52,0.9,0.91,1.16s0.85,0.38,1.38,0.38c0.57,0,1.05-0.14,1.45-0.43
				c0.4-0.29,0.69-0.71,0.89-1.27c0.08-0.26,0.19-0.48,0.31-0.65s0.33-0.25,0.6-0.25c0.24,0,0.44,0.08,0.61,0.25
				C-224.88,3.5-224.8,3.71-224.8,3.97z"/>
			<path d="M-216.54-1.33h-4.48v2.46h4.13c0.3,0,0.53,0.07,0.68,0.21c0.15,0.14,0.22,0.32,0.22,0.55s-0.07,0.41-0.22,0.56
				c-0.15,0.14-0.38,0.22-0.68,0.22h-4.13v2.85h4.63c0.31,0,0.55,0.07,0.71,0.22c0.16,0.15,0.24,0.35,0.24,0.59
				c0,0.24-0.08,0.43-0.24,0.58c-0.16,0.15-0.39,0.22-0.71,0.22h-5.41c-0.43,0-0.74-0.1-0.93-0.29c-0.19-0.2-0.28-0.51-0.28-0.95
				v-7.53c0-0.29,0.04-0.53,0.13-0.71c0.08-0.18,0.22-0.32,0.4-0.4c0.18-0.08,0.41-0.13,0.69-0.13h5.25c0.32,0,0.55,0.07,0.71,0.22
				c0.15,0.14,0.23,0.33,0.23,0.56c0,0.24-0.08,0.43-0.23,0.57C-215.99-1.4-216.22-1.33-216.54-1.33z"/>
			<path d="M-211.27-1.85l3.82,5.91V-1.9c0-0.39,0.08-0.68,0.24-0.87c0.16-0.19,0.38-0.29,0.66-0.29c0.29,0,0.51,0.1,0.68,0.29
				s0.25,0.48,0.25,0.87v7.88c0,0.88-0.36,1.32-1.07,1.32c-0.18,0-0.34-0.03-0.48-0.08s-0.28-0.14-0.4-0.25s-0.24-0.25-0.35-0.4
				c-0.11-0.15-0.21-0.31-0.32-0.47l-3.73-5.84v5.87c0,0.38-0.09,0.67-0.26,0.87s-0.4,0.29-0.67,0.29c-0.28,0-0.51-0.1-0.68-0.3
				c-0.17-0.2-0.25-0.49-0.25-0.86v-7.73c0-0.33,0.04-0.59,0.11-0.77c0.08-0.21,0.23-0.37,0.42-0.5c0.2-0.13,0.41-0.19,0.64-0.19
				c0.18,0,0.33,0.03,0.46,0.09s0.24,0.14,0.33,0.24c0.1,0.1,0.19,0.23,0.29,0.39C-211.48-2.18-211.37-2.02-211.27-1.85z"/>
			<path d="M-197.06-1.22h-2.17v7.28c0,0.42-0.09,0.73-0.27,0.93s-0.42,0.3-0.71,0.3c-0.29,0-0.54-0.1-0.72-0.31
				s-0.28-0.52-0.28-0.93v-7.28h-2.17c-0.34,0-0.59-0.08-0.76-0.23c-0.17-0.15-0.25-0.35-0.25-0.6c0-0.26,0.09-0.46,0.26-0.62
				s0.42-0.23,0.75-0.23h6.32c0.34,0,0.6,0.08,0.77,0.23s0.25,0.36,0.25,0.61s-0.08,0.45-0.25,0.6
				C-196.47-1.29-196.72-1.22-197.06-1.22z"/>
			<path d="M-189.45,6l-0.47-1.26h-3.99l-0.47,1.29c-0.18,0.5-0.34,0.84-0.47,1.02c-0.13,0.18-0.34,0.26-0.64,0.26
				c-0.25,0-0.47-0.09-0.66-0.28s-0.29-0.4-0.29-0.64c0-0.14,0.02-0.28,0.07-0.42c0.04-0.15,0.12-0.35,0.22-0.61l2.51-6.51
				c0.07-0.19,0.16-0.41,0.26-0.67c0.1-0.26,0.21-0.48,0.32-0.65s0.26-0.31,0.45-0.42c0.19-0.11,0.41-0.16,0.69-0.16
				c0.28,0,0.51,0.05,0.69,0.16c0.19,0.11,0.33,0.25,0.45,0.41c0.11,0.17,0.21,0.35,0.29,0.54s0.18,0.45,0.3,0.78l2.57,6.47
				c0.2,0.49,0.3,0.85,0.3,1.07c0,0.23-0.1,0.45-0.28,0.64c-0.19,0.19-0.42,0.29-0.69,0.29c-0.16,0-0.29-0.03-0.4-0.09
				c-0.11-0.06-0.21-0.13-0.28-0.23c-0.08-0.1-0.16-0.25-0.24-0.45S-189.38,6.15-189.45,6z M-193.38,3.21h2.93l-1.48-4.14
				L-193.38,3.21z"/>
			<path d="M-177.24,3.06v1.92c0,0.26-0.02,0.46-0.07,0.61s-0.14,0.29-0.27,0.41c-0.13,0.12-0.3,0.24-0.51,0.36
				c-0.59,0.33-1.17,0.57-1.71,0.72c-0.55,0.15-1.15,0.23-1.79,0.23c-0.75,0-1.44-0.12-2.06-0.36s-1.15-0.58-1.59-1.03
				s-0.77-1-1.01-1.64s-0.35-1.36-0.35-2.15c0-0.78,0.11-1.49,0.34-2.14c0.23-0.65,0.56-1.2,1-1.65s0.98-0.8,1.61-1.04
				c0.63-0.24,1.35-0.36,2.16-0.36c0.66,0,1.25,0.09,1.75,0.27c0.51,0.18,0.92,0.41,1.24,0.68s0.56,0.56,0.72,0.87
				s0.24,0.58,0.24,0.81c0,0.26-0.09,0.47-0.28,0.65c-0.19,0.18-0.41,0.27-0.67,0.27c-0.14,0-0.28-0.03-0.41-0.1
				s-0.24-0.16-0.33-0.29c-0.25-0.39-0.45-0.69-0.62-0.89c-0.17-0.2-0.4-0.37-0.69-0.51c-0.29-0.14-0.66-0.21-1.1-0.21
				c-0.46,0-0.87,0.08-1.23,0.24s-0.67,0.4-0.93,0.7s-0.45,0.68-0.59,1.13s-0.2,0.94-0.2,1.48c0,1.18,0.26,2.08,0.79,2.71
				s1.27,0.95,2.21,0.95c0.46,0,0.89-0.06,1.3-0.18c0.4-0.12,0.81-0.3,1.23-0.53V3.39h-1.54c-0.37,0-0.65-0.06-0.84-0.17
				c-0.19-0.11-0.28-0.31-0.28-0.58c0-0.22,0.08-0.41,0.24-0.55c0.16-0.15,0.37-0.22,0.65-0.22h2.26c0.28,0,0.51,0.02,0.7,0.08
				s0.35,0.16,0.47,0.33C-177.29,2.45-177.24,2.71-177.24,3.06z"/>
			<path d="M-168.87-1.33h-4.48v2.46h4.13c0.3,0,0.53,0.07,0.68,0.21c0.15,0.14,0.22,0.32,0.22,0.55s-0.07,0.41-0.22,0.56
				c-0.15,0.14-0.38,0.22-0.68,0.22h-4.13v2.85h4.63c0.31,0,0.55,0.07,0.71,0.22c0.16,0.15,0.24,0.35,0.24,0.59
				c0,0.24-0.08,0.43-0.24,0.58c-0.16,0.15-0.39,0.22-0.71,0.22h-5.41c-0.43,0-0.74-0.1-0.93-0.29c-0.19-0.2-0.28-0.51-0.28-0.95
				v-7.53c0-0.29,0.04-0.53,0.13-0.71c0.08-0.18,0.22-0.32,0.4-0.4c0.18-0.08,0.41-0.13,0.69-0.13h5.25c0.32,0,0.55,0.07,0.71,0.22
				c0.15,0.14,0.23,0.33,0.23,0.56c0,0.24-0.08,0.43-0.23,0.57C-168.32-1.4-168.55-1.33-168.87-1.33z"/>
			<path d="M-158.44-3.06c1.02,0,1.89,0.21,2.62,0.63c0.73,0.42,1.28,1.02,1.66,1.8c0.38,0.78,0.56,1.69,0.56,2.74
				c0,0.77-0.1,1.48-0.31,2.11c-0.21,0.63-0.51,1.18-0.92,1.65c-0.41,0.46-0.92,0.82-1.51,1.07c-0.6,0.25-1.28,0.37-2.06,0.37
				c-0.77,0-1.46-0.13-2.06-0.38c-0.61-0.25-1.11-0.61-1.52-1.07s-0.71-1.01-0.92-1.66s-0.31-1.35-0.31-2.1
				c0-0.77,0.11-1.48,0.32-2.12c0.22-0.64,0.53-1.19,0.94-1.64c0.41-0.45,0.91-0.8,1.5-1.04S-159.19-3.06-158.44-3.06z
				 M-155.62,2.09c0-0.73-0.12-1.37-0.35-1.91c-0.23-0.54-0.56-0.94-0.99-1.22c-0.43-0.28-0.93-0.41-1.48-0.41
				c-0.4,0-0.76,0.08-1.1,0.23c-0.34,0.15-0.63,0.38-0.87,0.67c-0.24,0.29-0.44,0.66-0.58,1.12s-0.21,0.96-0.21,1.53
				c0,0.57,0.07,1.08,0.21,1.54s0.34,0.84,0.6,1.15s0.55,0.53,0.88,0.68c0.33,0.15,0.7,0.23,1.1,0.23c0.51,0,0.98-0.13,1.4-0.39
				s0.77-0.66,1.02-1.2S-155.62,2.89-155.62,2.09z"/>
			<path d="M-146.03-1.33h-3.92v2.56h3.28c0.3,0,0.53,0.07,0.68,0.21c0.15,0.14,0.22,0.32,0.22,0.56s-0.08,0.42-0.23,0.55
				c-0.15,0.14-0.38,0.21-0.68,0.21h-3.28v3.3c0,0.42-0.09,0.73-0.28,0.93c-0.19,0.2-0.42,0.3-0.71,0.3c-0.29,0-0.53-0.1-0.72-0.31
				c-0.19-0.21-0.28-0.52-0.28-0.93v-7.71c0-0.29,0.04-0.53,0.13-0.71s0.22-0.32,0.4-0.4c0.18-0.08,0.41-0.13,0.69-0.13h4.69
				c0.32,0,0.55,0.07,0.71,0.22c0.15,0.14,0.23,0.33,0.23,0.56c0,0.24-0.08,0.43-0.23,0.57C-145.48-1.4-145.71-1.33-146.03-1.33z"/>
			<path d="M-137.59-1.85l3.82,5.91V-1.9c0-0.39,0.08-0.68,0.24-0.87c0.16-0.19,0.38-0.29,0.66-0.29c0.29,0,0.51,0.1,0.68,0.29
				s0.25,0.48,0.25,0.87v7.88c0,0.88-0.36,1.32-1.07,1.32c-0.18,0-0.34-0.03-0.48-0.08s-0.28-0.14-0.4-0.25s-0.24-0.25-0.35-0.4
				c-0.11-0.15-0.21-0.31-0.32-0.47l-3.73-5.84v5.87c0,0.38-0.09,0.67-0.26,0.87s-0.4,0.29-0.67,0.29c-0.28,0-0.51-0.1-0.68-0.3
				c-0.17-0.2-0.25-0.49-0.25-0.86v-7.73c0-0.33,0.04-0.59,0.11-0.77c0.08-0.21,0.23-0.37,0.42-0.5c0.2-0.13,0.41-0.19,0.64-0.19
				c0.18,0,0.33,0.03,0.46,0.09s0.24,0.14,0.33,0.24c0.1,0.1,0.19,0.23,0.29,0.39C-137.8-2.18-137.7-2.02-137.59-1.85z"/>
			<path d="M-125.44-3.06c1.02,0,1.89,0.21,2.62,0.63c0.73,0.42,1.28,1.02,1.66,1.8c0.38,0.78,0.56,1.69,0.56,2.74
				c0,0.77-0.1,1.48-0.31,2.11c-0.21,0.63-0.51,1.18-0.92,1.65c-0.41,0.46-0.92,0.82-1.51,1.07c-0.6,0.25-1.28,0.37-2.06,0.37
				c-0.77,0-1.46-0.13-2.06-0.38c-0.61-0.25-1.11-0.61-1.52-1.07s-0.71-1.01-0.92-1.66s-0.31-1.35-0.31-2.1
				c0-0.77,0.11-1.48,0.32-2.12c0.22-0.64,0.53-1.19,0.94-1.64c0.41-0.45,0.91-0.8,1.5-1.04S-126.19-3.06-125.44-3.06z
				 M-122.62,2.09c0-0.73-0.12-1.37-0.35-1.91c-0.23-0.54-0.56-0.94-0.99-1.22c-0.43-0.28-0.93-0.41-1.48-0.41
				c-0.4,0-0.76,0.08-1.1,0.23c-0.34,0.15-0.63,0.38-0.87,0.67c-0.24,0.29-0.44,0.66-0.58,1.12s-0.21,0.96-0.21,1.53
				c0,0.57,0.07,1.08,0.21,1.54s0.34,0.84,0.6,1.15s0.55,0.53,0.88,0.68c0.33,0.15,0.7,0.23,1.1,0.23c0.51,0,0.98-0.13,1.4-0.39
				s0.77-0.66,1.02-1.2S-122.62,2.89-122.62,2.09z"/>
			<path d="M-118.82,6.06v-7.9c0-0.41,0.09-0.72,0.27-0.92s0.42-0.31,0.71-0.31c0.3,0,0.54,0.1,0.73,0.3s0.28,0.51,0.28,0.93v7.9
				c0,0.41-0.09,0.72-0.28,0.93s-0.43,0.31-0.73,0.31c-0.29,0-0.52-0.1-0.71-0.31C-118.72,6.78-118.82,6.47-118.82,6.06z"/>
			<path d="M-107.14,4.12c0,0.61-0.15,1.15-0.46,1.63s-0.75,0.86-1.34,1.13s-1.29,0.41-2.1,0.41c-0.97,0-1.77-0.19-2.4-0.56
				c-0.45-0.27-0.81-0.63-1.09-1.08c-0.28-0.45-0.42-0.89-0.42-1.31c0-0.25,0.08-0.46,0.25-0.63c0.17-0.18,0.38-0.26,0.64-0.26
				c0.21,0,0.39,0.07,0.53,0.21s0.27,0.34,0.37,0.61c0.12,0.32,0.26,0.59,0.41,0.8s0.35,0.39,0.61,0.53
				c0.26,0.14,0.61,0.21,1.04,0.21c0.59,0,1.07-0.14,1.44-0.42c0.37-0.28,0.55-0.63,0.55-1.05c0-0.33-0.1-0.6-0.3-0.81
				s-0.46-0.37-0.77-0.48c-0.31-0.11-0.74-0.23-1.26-0.35c-0.71-0.17-1.3-0.37-1.77-0.59s-0.85-0.53-1.13-0.92
				c-0.28-0.39-0.42-0.87-0.42-1.45c0-0.55,0.15-1.04,0.44-1.47c0.29-0.43,0.72-0.76,1.28-0.99c0.56-0.23,1.21-0.35,1.97-0.35
				c0.6,0,1.12,0.08,1.56,0.23c0.44,0.15,0.81,0.36,1.1,0.61c0.29,0.25,0.5,0.52,0.64,0.8c0.13,0.28,0.2,0.55,0.2,0.81
				c0,0.24-0.08,0.46-0.25,0.65s-0.38,0.29-0.63,0.29c-0.23,0-0.4-0.06-0.52-0.17c-0.12-0.12-0.25-0.31-0.39-0.57
				c-0.18-0.38-0.39-0.67-0.64-0.89s-0.65-0.32-1.21-0.32c-0.51,0-0.93,0.12-1.24,0.35c-0.31,0.23-0.47,0.51-0.47,0.83
				c0,0.2,0.05,0.37,0.16,0.52c0.11,0.15,0.25,0.27,0.44,0.38s0.38,0.19,0.57,0.25s0.51,0.15,0.95,0.26
				c0.55,0.13,1.05,0.28,1.5,0.44s0.83,0.35,1.15,0.58s0.56,0.52,0.74,0.86S-107.14,3.62-107.14,4.12z"/>
			<path d="M-103.26,6.06V2.89l-2.4-3.79c-0.21-0.34-0.36-0.61-0.45-0.8c-0.09-0.19-0.13-0.36-0.13-0.5c0-0.23,0.09-0.43,0.26-0.6
				c0.18-0.17,0.39-0.25,0.65-0.25c0.27,0,0.48,0.08,0.62,0.24s0.35,0.47,0.63,0.94l1.84,3.04l1.85-3.04
				c0.11-0.19,0.21-0.34,0.28-0.47c0.08-0.13,0.16-0.25,0.25-0.36c0.09-0.11,0.19-0.2,0.3-0.26s0.25-0.09,0.41-0.09
				c0.25,0,0.46,0.08,0.63,0.25s0.25,0.36,0.25,0.58c0,0.18-0.04,0.36-0.13,0.53s-0.23,0.42-0.44,0.74l-2.46,3.85v3.18
				c0,0.41-0.09,0.72-0.28,0.93s-0.43,0.31-0.72,0.31c-0.29,0-0.53-0.1-0.72-0.3S-103.26,6.48-103.26,6.06z"/>
			<path d="M-85.09,3.97c0,0.32-0.08,0.66-0.23,1.04c-0.15,0.37-0.4,0.74-0.73,1.09s-0.75,0.65-1.27,0.87
				c-0.51,0.22-1.11,0.33-1.79,0.33c-0.52,0-0.99-0.05-1.41-0.15s-0.81-0.26-1.16-0.47c-0.35-0.21-0.66-0.49-0.95-0.84
				c-0.26-0.31-0.48-0.67-0.66-1.06s-0.32-0.81-0.41-1.25c-0.09-0.44-0.14-0.91-0.14-1.41c0-0.81,0.11-1.53,0.35-2.17
				c0.23-0.64,0.56-1.18,0.99-1.64s0.93-0.8,1.51-1.04c0.58-0.24,1.19-0.36,1.84-0.36c0.79,0,1.5,0.16,2.12,0.49s1.1,0.72,1.43,1.2
				c0.33,0.48,0.5,0.93,0.5,1.35c0,0.23-0.08,0.44-0.24,0.62s-0.35,0.27-0.58,0.27c-0.25,0-0.45-0.06-0.57-0.18
				c-0.13-0.12-0.27-0.33-0.43-0.64c-0.26-0.5-0.56-0.87-0.91-1.11s-0.78-0.37-1.3-0.37c-0.82,0-1.47,0.32-1.95,0.95
				s-0.73,1.53-0.73,2.7c0,0.78,0.11,1.43,0.32,1.94c0.21,0.52,0.52,0.9,0.91,1.16s0.85,0.38,1.38,0.38c0.57,0,1.05-0.14,1.45-0.43
				c0.4-0.29,0.69-0.71,0.89-1.27c0.08-0.26,0.19-0.48,0.31-0.65s0.33-0.25,0.6-0.25c0.24,0,0.44,0.08,0.61,0.25
				C-85.17,3.5-85.09,3.71-85.09,3.97z"/>
			<path d="M-81.35-1.83v7.29h4.03c0.32,0,0.57,0.08,0.74,0.24s0.26,0.36,0.26,0.6c0,0.25-0.08,0.45-0.25,0.6
				c-0.17,0.15-0.42,0.23-0.74,0.23h-4.8c-0.43,0-0.74-0.1-0.93-0.29c-0.19-0.2-0.28-0.51-0.28-0.95v-7.72
				c0-0.41,0.09-0.72,0.27-0.92s0.42-0.31,0.71-0.31c0.3,0,0.54,0.1,0.73,0.3C-81.44-2.56-81.35-2.25-81.35-1.83z"/>
			<path d="M-75.68,2.99v-4.82c0-0.41,0.09-0.72,0.27-0.92c0.18-0.21,0.42-0.31,0.71-0.31c0.31,0,0.55,0.1,0.73,0.31
				c0.18,0.21,0.27,0.51,0.27,0.92V3.1c0,0.56,0.06,1.03,0.18,1.4c0.12,0.38,0.34,0.67,0.65,0.88s0.75,0.31,1.31,0.31
				c0.78,0,1.33-0.21,1.65-0.63c0.32-0.42,0.48-1.06,0.48-1.92v-4.97c0-0.41,0.09-0.72,0.27-0.93s0.42-0.3,0.72-0.3
				c0.3,0,0.54,0.1,0.73,0.3c0.19,0.2,0.28,0.51,0.28,0.93v4.82c0,0.78-0.07,1.44-0.22,1.96c-0.15,0.52-0.43,0.98-0.85,1.38
				c-0.36,0.34-0.77,0.58-1.25,0.74c-0.47,0.15-1.03,0.23-1.66,0.23c-0.75,0-1.4-0.08-1.95-0.25c-0.54-0.17-0.99-0.42-1.33-0.77
				s-0.6-0.8-0.76-1.34S-75.68,3.74-75.68,2.99z"/>
			<path d="M-57.81,4.12c0,0.61-0.15,1.15-0.46,1.63s-0.75,0.86-1.34,1.13s-1.29,0.41-2.1,0.41c-0.97,0-1.77-0.19-2.4-0.56
				c-0.45-0.27-0.81-0.63-1.09-1.08c-0.28-0.45-0.42-0.89-0.42-1.31c0-0.25,0.08-0.46,0.25-0.63c0.17-0.18,0.38-0.26,0.64-0.26
				c0.21,0,0.39,0.07,0.53,0.21s0.27,0.34,0.37,0.61c0.12,0.32,0.26,0.59,0.41,0.8s0.35,0.39,0.61,0.53
				c0.26,0.14,0.61,0.21,1.04,0.21c0.59,0,1.07-0.14,1.44-0.42c0.37-0.28,0.55-0.63,0.55-1.05c0-0.33-0.1-0.6-0.3-0.81
				s-0.46-0.37-0.77-0.48c-0.31-0.11-0.74-0.23-1.26-0.35c-0.71-0.17-1.3-0.37-1.77-0.59s-0.85-0.53-1.13-0.92
				c-0.28-0.39-0.42-0.87-0.42-1.45c0-0.55,0.15-1.04,0.44-1.47c0.29-0.43,0.72-0.76,1.28-0.99c0.56-0.23,1.21-0.35,1.97-0.35
				c0.6,0,1.12,0.08,1.56,0.23c0.44,0.15,0.81,0.36,1.1,0.61c0.29,0.25,0.5,0.52,0.64,0.8c0.13,0.28,0.2,0.55,0.2,0.81
				c0,0.24-0.08,0.46-0.25,0.65s-0.38,0.29-0.63,0.29c-0.23,0-0.4-0.06-0.52-0.17c-0.12-0.12-0.25-0.31-0.39-0.57
				c-0.18-0.38-0.39-0.67-0.64-0.89s-0.65-0.32-1.21-0.32c-0.51,0-0.93,0.12-1.24,0.35c-0.31,0.23-0.47,0.51-0.47,0.83
				c0,0.2,0.05,0.37,0.16,0.52c0.11,0.15,0.25,0.27,0.44,0.38s0.38,0.19,0.57,0.25s0.51,0.15,0.95,0.26
				c0.55,0.13,1.05,0.28,1.5,0.44s0.83,0.35,1.15,0.58s0.56,0.52,0.74,0.86S-57.81,3.62-57.81,4.12z"/>
			<path d="M-49.75-1.22h-2.17v7.28c0,0.42-0.09,0.73-0.27,0.93s-0.42,0.3-0.71,0.3c-0.29,0-0.54-0.1-0.72-0.31
				s-0.28-0.52-0.28-0.93v-7.28h-2.17c-0.34,0-0.59-0.08-0.76-0.23c-0.17-0.15-0.25-0.35-0.25-0.6c0-0.26,0.09-0.46,0.26-0.62
				s0.42-0.23,0.75-0.23h6.32c0.34,0,0.6,0.08,0.77,0.23s0.25,0.36,0.25,0.61s-0.08,0.45-0.25,0.6
				C-49.16-1.29-49.41-1.22-49.75-1.22z"/>
			<path d="M-41.08-1.33h-4.48v2.46h4.13c0.3,0,0.53,0.07,0.68,0.21c0.15,0.14,0.22,0.32,0.22,0.55s-0.07,0.41-0.22,0.56
				c-0.15,0.14-0.38,0.22-0.68,0.22h-4.13v2.85h4.63c0.31,0,0.55,0.07,0.71,0.22c0.16,0.15,0.24,0.35,0.24,0.59
				c0,0.24-0.08,0.43-0.24,0.58c-0.16,0.15-0.39,0.22-0.71,0.22h-5.41c-0.43,0-0.74-0.1-0.93-0.29c-0.19-0.2-0.28-0.51-0.28-0.95
				v-7.53c0-0.29,0.04-0.53,0.13-0.71c0.08-0.18,0.22-0.32,0.4-0.4c0.18-0.08,0.41-0.13,0.69-0.13h5.25c0.32,0,0.55,0.07,0.71,0.22
				c0.15,0.14,0.23,0.33,0.23,0.56c0,0.24-0.08,0.43-0.23,0.57C-40.53-1.4-40.76-1.33-41.08-1.33z"/>
			<path d="M-35.73,2.84h-0.7v3.22c0,0.42-0.09,0.74-0.27,0.94s-0.42,0.3-0.72,0.3c-0.32,0-0.56-0.1-0.74-0.31
				c-0.17-0.21-0.26-0.52-0.26-0.92v-7.71c0-0.44,0.1-0.75,0.29-0.95s0.5-0.29,0.93-0.29h3.23c0.45,0,0.83,0.02,1.15,0.06
				c0.32,0.04,0.6,0.12,0.86,0.24c0.31,0.13,0.58,0.32,0.82,0.57s0.42,0.53,0.54,0.86c0.12,0.33,0.18,0.67,0.18,1.04
				c0,0.75-0.21,1.34-0.62,1.79s-1.04,0.76-1.88,0.95c0.35,0.19,0.69,0.47,1.01,0.85c0.32,0.37,0.61,0.77,0.86,1.19
				s0.45,0.8,0.59,1.14s0.21,0.57,0.21,0.7c0,0.13-0.04,0.26-0.12,0.39c-0.08,0.13-0.2,0.23-0.34,0.31
				c-0.14,0.08-0.31,0.11-0.5,0.11c-0.22,0-0.41-0.05-0.56-0.16c-0.15-0.11-0.28-0.24-0.39-0.41s-0.26-0.41-0.45-0.72l-0.8-1.35
				c-0.29-0.5-0.54-0.88-0.77-1.13s-0.45-0.44-0.69-0.53C-35.09,2.89-35.38,2.84-35.73,2.84z M-34.59-1.37h-1.84v2.75h1.78
				c0.48,0,0.88-0.04,1.21-0.13c0.33-0.08,0.58-0.23,0.75-0.43s0.26-0.48,0.26-0.84c0-0.28-0.07-0.52-0.21-0.73
				c-0.14-0.21-0.33-0.37-0.58-0.48C-33.45-1.32-33.91-1.37-34.59-1.37z"/>
			<path d="M-21.08,4.12c0,0.61-0.15,1.15-0.46,1.63s-0.75,0.86-1.34,1.13s-1.29,0.41-2.1,0.41c-0.97,0-1.77-0.19-2.4-0.56
				c-0.45-0.27-0.81-0.63-1.09-1.08c-0.28-0.45-0.42-0.89-0.42-1.31c0-0.25,0.08-0.46,0.25-0.63c0.17-0.18,0.38-0.26,0.64-0.26
				c0.21,0,0.39,0.07,0.53,0.21s0.27,0.34,0.37,0.61c0.12,0.32,0.26,0.59,0.41,0.8s0.35,0.39,0.61,0.53
				c0.26,0.14,0.61,0.21,1.04,0.21c0.59,0,1.07-0.14,1.44-0.42c0.37-0.28,0.55-0.63,0.55-1.05c0-0.33-0.1-0.6-0.3-0.81
				s-0.46-0.37-0.77-0.48c-0.31-0.11-0.74-0.23-1.26-0.35c-0.71-0.17-1.3-0.37-1.77-0.59s-0.85-0.53-1.13-0.92
				c-0.28-0.39-0.42-0.87-0.42-1.45c0-0.55,0.15-1.04,0.44-1.47c0.29-0.43,0.72-0.76,1.28-0.99c0.56-0.23,1.21-0.35,1.97-0.35
				c0.6,0,1.12,0.08,1.56,0.23c0.44,0.15,0.81,0.36,1.1,0.61c0.29,0.25,0.5,0.52,0.64,0.8c0.13,0.28,0.2,0.55,0.2,0.81
				c0,0.24-0.08,0.46-0.25,0.65s-0.38,0.29-0.63,0.29c-0.23,0-0.4-0.06-0.52-0.17c-0.12-0.12-0.25-0.31-0.39-0.57
				c-0.18-0.38-0.39-0.67-0.64-0.89s-0.65-0.32-1.21-0.32c-0.51,0-0.93,0.12-1.24,0.35c-0.31,0.23-0.47,0.51-0.47,0.83
				c0,0.2,0.05,0.37,0.16,0.52c0.11,0.15,0.25,0.27,0.44,0.38s0.38,0.19,0.57,0.25s0.51,0.15,0.95,0.26
				c0.55,0.13,1.05,0.28,1.5,0.44s0.83,0.35,1.15,0.58s0.56,0.52,0.74,0.86S-21.08,3.62-21.08,4.12z"/>
			<path d="M-13.29,2.84h-0.7v3.22c0,0.42-0.09,0.74-0.27,0.94s-0.42,0.3-0.72,0.3c-0.32,0-0.56-0.1-0.74-0.31
				c-0.17-0.21-0.26-0.52-0.26-0.92v-7.71c0-0.44,0.1-0.75,0.29-0.95s0.5-0.29,0.93-0.29h3.23c0.45,0,0.83,0.02,1.15,0.06
				c0.32,0.04,0.6,0.12,0.86,0.24c0.31,0.13,0.58,0.32,0.82,0.57c0.24,0.25,0.42,0.53,0.54,0.86s0.18,0.67,0.18,1.04
				c0,0.75-0.21,1.34-0.62,1.79s-1.04,0.76-1.88,0.95c0.35,0.19,0.69,0.47,1.01,0.85c0.32,0.37,0.61,0.77,0.86,1.19
				s0.45,0.8,0.59,1.14s0.21,0.57,0.21,0.7c0,0.13-0.04,0.26-0.12,0.39c-0.08,0.13-0.2,0.23-0.34,0.31C-8.41,7.26-8.57,7.3-8.76,7.3
				c-0.22,0-0.41-0.05-0.56-0.16C-9.47,7.03-9.6,6.9-9.71,6.73s-0.26-0.41-0.45-0.72l-0.8-1.35c-0.29-0.5-0.54-0.88-0.77-1.13
				s-0.45-0.44-0.69-0.53C-12.64,2.89-12.93,2.84-13.29,2.84z M-12.15-1.37h-1.84v2.75h1.78c0.48,0,0.88-0.04,1.21-0.13
				c0.33-0.08,0.58-0.23,0.75-0.43s0.26-0.48,0.26-0.84c0-0.28-0.07-0.52-0.21-0.73c-0.14-0.21-0.33-0.37-0.58-0.48
				C-11.01-1.32-11.46-1.37-12.15-1.37z"/>
			<path d="M0.38-1.33H-4.1v2.46h4.13c0.3,0,0.53,0.07,0.68,0.21c0.15,0.14,0.22,0.32,0.22,0.55S0.85,2.31,0.71,2.45
				S0.33,2.67,0.02,2.67H-4.1v2.85h4.63c0.31,0,0.55,0.07,0.71,0.22s0.24,0.35,0.24,0.59c0,0.24-0.08,0.43-0.24,0.58
				S0.84,7.13,0.53,7.13h-5.4c-0.43,0-0.75-0.1-0.93-0.29C-6,6.64-6.09,6.32-6.09,5.89v-7.53c0-0.29,0.04-0.53,0.13-0.71
				c0.08-0.18,0.22-0.32,0.4-0.4c0.18-0.08,0.41-0.13,0.69-0.13h5.25c0.32,0,0.55,0.07,0.71,0.22s0.23,0.33,0.23,0.56
				c0,0.24-0.08,0.43-0.23,0.57S0.7-1.33,0.38-1.33z"/>
			<path d="M6.37,5.62L4.8-0.77v6.92c0,0.38-0.08,0.67-0.25,0.86C4.38,7.21,4.16,7.3,3.88,7.3c-0.27,0-0.49-0.09-0.66-0.28
				S2.97,6.54,2.97,6.15v-7.93c0-0.44,0.11-0.73,0.33-0.89s0.53-0.23,0.9-0.23h0.62c0.37,0,0.64,0.03,0.81,0.1
				C5.8-2.72,5.92-2.6,6-2.42s0.17,0.47,0.28,0.87L7.7,3.94l1.43-5.49c0.1-0.4,0.19-0.69,0.27-0.87s0.21-0.3,0.37-0.37
				s0.44-0.1,0.81-0.1h0.62c0.38,0,0.68,0.08,0.9,0.23c0.22,0.15,0.34,0.45,0.34,0.89v7.93c0,0.38-0.08,0.67-0.25,0.86
				S11.8,7.3,11.52,7.3c-0.26,0-0.48-0.1-0.65-0.29c-0.17-0.19-0.25-0.48-0.25-0.86v-6.92L9.04,5.62c-0.1,0.41-0.19,0.72-0.25,0.91
				S8.6,6.9,8.43,7.06S8.01,7.3,7.7,7.3c-0.23,0-0.43-0.05-0.59-0.15c-0.16-0.1-0.29-0.23-0.38-0.39C6.65,6.59,6.58,6.42,6.53,6.22
				C6.48,6.03,6.43,5.83,6.37,5.62z"/>
			<path d="M18.8-3.06c1.02,0,1.89,0.21,2.62,0.63s1.28,1.02,1.66,1.8s0.56,1.69,0.56,2.74c0,0.77-0.1,1.48-0.31,2.11
				s-0.51,1.18-0.92,1.65C22,6.33,21.5,6.69,20.9,6.93c-0.6,0.25-1.28,0.37-2.06,0.37c-0.77,0-1.46-0.13-2.06-0.38
				s-1.11-0.61-1.52-1.07s-0.71-1.01-0.92-1.66s-0.31-1.35-0.31-2.1c0-0.77,0.11-1.48,0.33-2.12s0.53-1.19,0.94-1.64
				c0.41-0.45,0.91-0.8,1.5-1.04C17.38-2.94,18.05-3.06,18.8-3.06z M21.63,2.09c0-0.73-0.12-1.37-0.35-1.91
				c-0.23-0.54-0.56-0.94-1-1.22c-0.43-0.28-0.93-0.41-1.48-0.41c-0.4,0-0.76,0.08-1.1,0.23s-0.63,0.38-0.87,0.67
				c-0.24,0.29-0.44,0.66-0.58,1.12s-0.21,0.96-0.21,1.53c0,0.57,0.07,1.08,0.21,1.54s0.34,0.84,0.6,1.15s0.55,0.53,0.88,0.68
				s0.7,0.23,1.09,0.23c0.51,0,0.98-0.13,1.4-0.39c0.43-0.26,0.77-0.66,1.02-1.2S21.63,2.89,21.63,2.09z"/>
			<path d="M26.45-1.73l2.22,6.72l2.23-6.77c0.12-0.36,0.2-0.6,0.26-0.74s0.15-0.26,0.29-0.38S31.77-3.06,32-3.06
				c0.17,0,0.33,0.04,0.47,0.13s0.26,0.2,0.34,0.35c0.08,0.14,0.12,0.29,0.12,0.43c0,0.1-0.01,0.21-0.04,0.32
				c-0.03,0.12-0.06,0.23-0.1,0.34c-0.04,0.11-0.08,0.23-0.12,0.35L30.3,5.41c-0.08,0.25-0.17,0.49-0.25,0.71
				c-0.08,0.23-0.18,0.42-0.29,0.59s-0.26,0.31-0.45,0.42S28.89,7.3,28.62,7.3s-0.49-0.05-0.68-0.16s-0.34-0.25-0.45-0.42
				s-0.21-0.38-0.3-0.6s-0.17-0.46-0.25-0.71L24.6-1.09c-0.04-0.12-0.08-0.23-0.12-0.35c-0.04-0.11-0.08-0.24-0.11-0.37
				s-0.04-0.24-0.04-0.33c0-0.23,0.09-0.44,0.27-0.64c0.18-0.19,0.41-0.29,0.69-0.29c0.34,0,0.58,0.11,0.72,0.32
				S26.3-2.19,26.45-1.73z"/>
			<path d="M40.9-1.33h-4.48v2.46h4.13c0.3,0,0.53,0.07,0.68,0.21c0.15,0.14,0.22,0.32,0.22,0.55s-0.07,0.41-0.22,0.56
				c-0.15,0.14-0.38,0.22-0.68,0.22h-4.13v2.85h4.63c0.31,0,0.55,0.07,0.71,0.22C41.92,5.89,42,6.08,42,6.33
				c0,0.24-0.08,0.43-0.24,0.58c-0.16,0.15-0.39,0.22-0.71,0.22h-5.41c-0.43,0-0.74-0.1-0.93-0.29c-0.19-0.2-0.29-0.51-0.29-0.95
				v-7.53c0-0.29,0.04-0.53,0.13-0.71c0.08-0.18,0.22-0.32,0.4-0.4c0.18-0.08,0.41-0.13,0.69-0.13h5.25c0.32,0,0.55,0.07,0.71,0.22
				c0.15,0.14,0.23,0.33,0.23,0.56c0,0.24-0.08,0.43-0.23,0.57C41.45-1.4,41.22-1.33,40.9-1.33z"/>
			<path d="M44.81-2.89h2.59c0.67,0,1.25,0.06,1.74,0.19s0.92,0.37,1.31,0.72c1.02,0.89,1.53,2.25,1.53,4.07
				c0,0.6-0.05,1.15-0.15,1.65c-0.1,0.5-0.26,0.94-0.47,1.34c-0.21,0.4-0.49,0.76-0.82,1.07c-0.26,0.24-0.55,0.44-0.86,0.58
				c-0.31,0.15-0.65,0.25-1.01,0.31s-0.76,0.09-1.22,0.09h-2.59c-0.36,0-0.63-0.06-0.82-0.17c-0.18-0.11-0.3-0.27-0.36-0.47
				c-0.06-0.2-0.08-0.47-0.08-0.79v-7.35c0-0.44,0.1-0.75,0.29-0.95C44.07-2.79,44.38-2.89,44.81-2.89z M45.58-1.28v6.8h1.51
				c0.33,0,0.59-0.01,0.78-0.03s0.38-0.06,0.58-0.14c0.2-0.07,0.38-0.18,0.52-0.31c0.67-0.57,1-1.56,1-2.97
				c0-0.99-0.15-1.73-0.44-2.22c-0.29-0.49-0.65-0.81-1.08-0.94s-0.95-0.2-1.55-0.2H45.58z"/>
			<path d="M63.44,6l-0.47-1.26h-3.99l-0.47,1.29c-0.18,0.5-0.34,0.84-0.47,1.02S57.7,7.3,57.41,7.3c-0.25,0-0.47-0.09-0.66-0.28
				c-0.19-0.19-0.29-0.4-0.29-0.64c0-0.14,0.02-0.28,0.07-0.42s0.12-0.35,0.22-0.61l2.51-6.51c0.07-0.19,0.16-0.41,0.26-0.67
				c0.1-0.26,0.21-0.48,0.32-0.65s0.26-0.31,0.45-0.42c0.18-0.11,0.41-0.16,0.69-0.16c0.28,0,0.51,0.05,0.69,0.16
				S62-2.66,62.11-2.49c0.11,0.17,0.21,0.35,0.29,0.54s0.18,0.45,0.3,0.78l2.57,6.47c0.2,0.49,0.3,0.85,0.3,1.07
				c0,0.23-0.1,0.45-0.29,0.64S64.86,7.3,64.6,7.3c-0.16,0-0.29-0.03-0.4-0.09c-0.11-0.06-0.21-0.13-0.28-0.23
				c-0.08-0.1-0.16-0.25-0.25-0.45S63.51,6.15,63.44,6z M59.51,3.21h2.93l-1.48-4.14L59.51,3.21z"/>
			<path d="M72.2-1.22h-2.17v7.28c0,0.42-0.09,0.73-0.28,0.93c-0.18,0.2-0.42,0.3-0.71,0.3c-0.29,0-0.54-0.1-0.72-0.31
				s-0.28-0.52-0.28-0.93v-7.28h-2.17c-0.34,0-0.59-0.08-0.76-0.23c-0.17-0.15-0.25-0.35-0.25-0.6c0-0.26,0.09-0.46,0.26-0.62
				s0.42-0.23,0.75-0.23h6.32c0.34,0,0.6,0.08,0.77,0.23s0.25,0.36,0.25,0.61s-0.08,0.45-0.25,0.6S72.54-1.22,72.2-1.22z"/>
			<path d="M84.29-1.33h-4.48v2.46h4.13c0.3,0,0.53,0.07,0.68,0.21s0.22,0.32,0.22,0.55s-0.07,0.41-0.22,0.56
				c-0.15,0.14-0.38,0.22-0.68,0.22h-4.13v2.85h4.63c0.31,0,0.55,0.07,0.71,0.22s0.24,0.35,0.24,0.59c0,0.24-0.08,0.43-0.24,0.58
				s-0.39,0.22-0.71,0.22h-5.41c-0.43,0-0.75-0.1-0.93-0.29s-0.28-0.51-0.28-0.95v-7.53c0-0.29,0.04-0.53,0.13-0.71
				s0.22-0.32,0.4-0.4c0.18-0.08,0.41-0.13,0.69-0.13h5.25c0.32,0,0.55,0.07,0.71,0.22s0.23,0.33,0.23,0.56
				c0,0.24-0.08,0.43-0.23,0.57S84.61-1.33,84.29-1.33z"/>
			<path d="M93.26,6l-0.47-1.26H88.8l-0.47,1.29c-0.18,0.5-0.34,0.84-0.47,1.02c-0.13,0.18-0.34,0.26-0.64,0.26
				c-0.25,0-0.47-0.09-0.66-0.28s-0.29-0.4-0.29-0.64c0-0.14,0.02-0.28,0.07-0.42s0.12-0.35,0.22-0.61l2.51-6.51
				c0.07-0.19,0.16-0.41,0.26-0.67c0.1-0.26,0.21-0.48,0.32-0.65c0.11-0.17,0.26-0.31,0.45-0.42c0.18-0.11,0.41-0.16,0.69-0.16
				c0.28,0,0.51,0.05,0.69,0.16s0.33,0.25,0.45,0.41c0.11,0.17,0.21,0.35,0.29,0.54s0.18,0.45,0.3,0.78l2.56,6.47
				c0.2,0.49,0.3,0.85,0.3,1.07c0,0.23-0.09,0.45-0.28,0.64C94.9,7.2,94.68,7.3,94.41,7.3c-0.16,0-0.29-0.03-0.4-0.09
				c-0.11-0.06-0.21-0.13-0.28-0.23c-0.08-0.1-0.16-0.25-0.25-0.45C93.39,6.33,93.32,6.15,93.26,6z M89.32,3.21h2.93l-1.48-4.14
				L89.32,3.21z"/>
			<path d="M104.86,3.97c0,0.32-0.08,0.66-0.23,1.04s-0.4,0.74-0.73,1.09s-0.75,0.65-1.27,0.87s-1.11,0.33-1.79,0.33
				c-0.52,0-0.99-0.05-1.41-0.15c-0.42-0.1-0.81-0.26-1.15-0.47c-0.35-0.21-0.67-0.49-0.96-0.84c-0.26-0.31-0.48-0.67-0.66-1.06
				s-0.32-0.81-0.41-1.25c-0.09-0.44-0.14-0.91-0.14-1.41c0-0.81,0.12-1.53,0.35-2.17c0.23-0.64,0.56-1.18,0.99-1.64
				c0.43-0.45,0.93-0.8,1.51-1.04c0.58-0.24,1.19-0.36,1.84-0.36c0.79,0,1.5,0.16,2.12,0.49s1.1,0.72,1.43,1.2s0.5,0.93,0.5,1.35
				c0,0.23-0.08,0.44-0.24,0.62c-0.16,0.18-0.35,0.27-0.58,0.27c-0.25,0-0.45-0.06-0.57-0.18c-0.13-0.12-0.27-0.33-0.43-0.64
				c-0.26-0.5-0.56-0.87-0.91-1.11c-0.35-0.25-0.78-0.37-1.3-0.37c-0.82,0-1.47,0.32-1.95,0.95s-0.73,1.53-0.73,2.7
				c0,0.78,0.11,1.43,0.32,1.94c0.21,0.52,0.52,0.9,0.91,1.16s0.85,0.38,1.38,0.38c0.57,0,1.05-0.14,1.45-0.43s0.69-0.71,0.89-1.27
				c0.08-0.26,0.19-0.48,0.31-0.65s0.33-0.25,0.6-0.25c0.24,0,0.44,0.08,0.61,0.25S104.86,3.71,104.86,3.97z"/>
			<path d="M108.65-1.83v2.87h4.29v-2.87c0-0.41,0.09-0.72,0.27-0.92s0.42-0.31,0.71-0.31c0.3,0,0.54,0.1,0.73,0.3
				s0.28,0.51,0.28,0.93v7.9c0,0.41-0.09,0.72-0.28,0.93s-0.43,0.31-0.72,0.31c-0.3,0-0.54-0.1-0.72-0.31
				c-0.18-0.21-0.27-0.52-0.27-0.93V2.69h-4.29v3.37c0,0.41-0.09,0.72-0.28,0.93s-0.43,0.31-0.72,0.31c-0.3,0-0.54-0.1-0.72-0.31
				c-0.18-0.21-0.27-0.52-0.27-0.93v-7.9c0-0.41,0.09-0.72,0.26-0.92s0.42-0.31,0.72-0.31c0.3,0,0.54,0.1,0.73,0.3
				S108.65-2.25,108.65-1.83z"/>
			<path d="M127.96,4.12c0,0.61-0.15,1.15-0.46,1.63c-0.3,0.48-0.75,0.86-1.34,1.13c-0.59,0.27-1.29,0.41-2.1,0.41
				c-0.97,0-1.77-0.19-2.4-0.56c-0.45-0.27-0.81-0.63-1.09-1.08c-0.28-0.45-0.42-0.89-0.42-1.31c0-0.25,0.08-0.46,0.25-0.63
				c0.17-0.18,0.38-0.26,0.64-0.26c0.21,0,0.39,0.07,0.53,0.21c0.14,0.14,0.27,0.34,0.37,0.61c0.12,0.32,0.26,0.59,0.41,0.8
				s0.35,0.39,0.61,0.53c0.26,0.14,0.61,0.21,1.04,0.21c0.59,0,1.07-0.14,1.44-0.42S126,4.76,126,4.34c0-0.33-0.1-0.6-0.3-0.81
				c-0.2-0.21-0.46-0.37-0.77-0.48c-0.32-0.11-0.74-0.23-1.26-0.35c-0.71-0.17-1.3-0.37-1.77-0.59s-0.85-0.53-1.13-0.92
				c-0.28-0.39-0.42-0.87-0.42-1.45c0-0.55,0.15-1.04,0.44-1.47c0.29-0.43,0.72-0.76,1.28-0.99c0.56-0.23,1.21-0.35,1.97-0.35
				c0.6,0,1.12,0.08,1.56,0.23c0.44,0.15,0.81,0.36,1.1,0.61c0.29,0.25,0.5,0.52,0.64,0.8c0.13,0.28,0.2,0.55,0.2,0.81
				c0,0.24-0.08,0.46-0.25,0.65s-0.38,0.29-0.63,0.29c-0.23,0-0.4-0.06-0.52-0.17c-0.12-0.12-0.25-0.31-0.39-0.57
				c-0.18-0.38-0.39-0.67-0.64-0.89s-0.65-0.32-1.21-0.32c-0.51,0-0.93,0.12-1.24,0.35s-0.47,0.51-0.47,0.83
				c0,0.2,0.05,0.37,0.16,0.52c0.11,0.15,0.25,0.27,0.44,0.38s0.38,0.19,0.57,0.25c0.19,0.06,0.51,0.15,0.95,0.26
				c0.55,0.13,1.05,0.28,1.5,0.44s0.83,0.35,1.15,0.58s0.56,0.52,0.74,0.86C127.88,3.19,127.96,3.62,127.96,4.12z"/>
			<path d="M136.03-1.22h-2.17v7.28c0,0.42-0.09,0.73-0.28,0.93c-0.18,0.2-0.42,0.3-0.71,0.3c-0.29,0-0.54-0.1-0.72-0.31
				s-0.28-0.52-0.28-0.93v-7.28h-2.17c-0.34,0-0.59-0.08-0.76-0.23c-0.17-0.15-0.25-0.35-0.25-0.6c0-0.26,0.09-0.46,0.26-0.62
				s0.42-0.23,0.75-0.23h6.32c0.34,0,0.6,0.08,0.77,0.23s0.25,0.36,0.25,0.61s-0.08,0.45-0.25,0.6S136.37-1.22,136.03-1.22z"/>
			<path d="M144.7-1.33h-4.48v2.46h4.13c0.3,0,0.53,0.07,0.68,0.21c0.15,0.14,0.22,0.32,0.22,0.55s-0.07,0.41-0.22,0.56
				s-0.38,0.22-0.68,0.22h-4.13v2.85h4.63c0.31,0,0.55,0.07,0.71,0.22s0.24,0.35,0.24,0.59c0,0.24-0.08,0.43-0.24,0.58
				s-0.39,0.22-0.71,0.22h-5.4c-0.43,0-0.75-0.1-0.93-0.29c-0.19-0.2-0.28-0.51-0.28-0.95v-7.53c0-0.29,0.04-0.53,0.13-0.71
				c0.08-0.18,0.22-0.32,0.4-0.4c0.18-0.08,0.41-0.13,0.69-0.13h5.25c0.32,0,0.55,0.07,0.71,0.22s0.23,0.33,0.23,0.56
				c0,0.24-0.08,0.43-0.23,0.57S145.01-1.33,144.7-1.33z"/>
			<path d="M151.19,3.23h-1.82v2.84c0,0.41-0.09,0.71-0.28,0.92s-0.42,0.31-0.71,0.31c-0.3,0-0.54-0.1-0.72-0.31
				c-0.18-0.21-0.28-0.51-0.28-0.91v-7.72c0-0.45,0.1-0.77,0.3-0.96c0.2-0.19,0.52-0.29,0.96-0.29h2.55c0.75,0,1.33,0.06,1.74,0.18
				c0.4,0.11,0.75,0.3,1.04,0.57c0.29,0.26,0.52,0.59,0.67,0.97s0.23,0.81,0.23,1.29c0,1.02-0.31,1.79-0.92,2.32
				S152.4,3.23,151.19,3.23z M150.7-1.37h-1.34V1.7h1.34c0.47,0,0.86-0.05,1.18-0.15c0.31-0.1,0.55-0.26,0.72-0.49
				s0.25-0.53,0.25-0.9c0-0.44-0.13-0.8-0.38-1.08C152.18-1.22,151.59-1.37,150.7-1.37z"/>
			<path d="M164.27-3.06c1.02,0,1.89,0.21,2.62,0.63s1.28,1.02,1.66,1.8c0.38,0.78,0.56,1.69,0.56,2.74c0,0.77-0.1,1.48-0.31,2.11
				s-0.51,1.18-0.92,1.65c-0.41,0.46-0.92,0.82-1.51,1.07c-0.6,0.25-1.28,0.37-2.06,0.37c-0.77,0-1.46-0.13-2.06-0.38
				c-0.61-0.25-1.12-0.61-1.52-1.07s-0.71-1.01-0.92-1.66c-0.21-0.65-0.31-1.35-0.31-2.1c0-0.77,0.11-1.48,0.33-2.12
				c0.22-0.64,0.53-1.19,0.94-1.64s0.91-0.8,1.5-1.04S163.52-3.06,164.27-3.06z M167.1,2.09c0-0.73-0.12-1.37-0.35-1.91
				s-0.56-0.94-0.99-1.22c-0.43-0.28-0.93-0.41-1.48-0.41c-0.4,0-0.76,0.08-1.1,0.23c-0.34,0.15-0.63,0.38-0.87,0.67
				s-0.44,0.66-0.58,1.12s-0.21,0.96-0.21,1.53c0,0.57,0.07,1.08,0.21,1.54s0.34,0.84,0.6,1.15c0.26,0.3,0.55,0.53,0.88,0.68
				c0.33,0.15,0.7,0.23,1.1,0.23c0.51,0,0.98-0.13,1.4-0.39s0.77-0.66,1.02-1.2C166.97,3.55,167.1,2.89,167.1,2.09z"/>
			<path d="M176.69-1.33h-3.92v2.56h3.28c0.3,0,0.53,0.07,0.68,0.21s0.22,0.32,0.22,0.56s-0.08,0.42-0.23,0.55
				c-0.15,0.14-0.38,0.21-0.68,0.21h-3.28v3.3c0,0.42-0.09,0.73-0.28,0.93c-0.18,0.2-0.42,0.3-0.71,0.3c-0.29,0-0.54-0.1-0.72-0.31
				c-0.19-0.21-0.28-0.52-0.28-0.93v-7.71c0-0.29,0.04-0.53,0.13-0.71c0.09-0.18,0.22-0.32,0.4-0.4c0.18-0.08,0.41-0.13,0.69-0.13
				h4.69c0.32,0,0.55,0.07,0.71,0.22c0.15,0.14,0.23,0.33,0.23,0.56c0,0.24-0.08,0.43-0.23,0.57C177.24-1.4,177-1.33,176.69-1.33z"
				/>
			<path d="M186.34,3.23h-1.82v2.84c0,0.41-0.09,0.71-0.28,0.92s-0.42,0.31-0.71,0.31c-0.3,0-0.54-0.1-0.72-0.31
				s-0.27-0.51-0.27-0.91v-7.72c0-0.45,0.1-0.77,0.3-0.96s0.52-0.29,0.96-0.29h2.55c0.75,0,1.33,0.06,1.74,0.18
				c0.4,0.11,0.75,0.3,1.04,0.57s0.51,0.59,0.67,0.97c0.15,0.38,0.23,0.81,0.23,1.29c0,1.02-0.31,1.79-0.92,2.32
				C188.48,2.96,187.56,3.23,186.34,3.23z M185.86-1.37h-1.34V1.7h1.34c0.47,0,0.86-0.05,1.18-0.15c0.31-0.1,0.55-0.26,0.72-0.49
				c0.17-0.23,0.25-0.53,0.25-0.9c0-0.44-0.13-0.8-0.38-1.08C187.34-1.22,186.75-1.37,185.86-1.37z"/>
			<path d="M191.76,6.06v-7.9c0-0.41,0.09-0.72,0.28-0.92c0.18-0.21,0.42-0.31,0.71-0.31c0.3,0,0.54,0.1,0.73,0.3
				c0.19,0.2,0.28,0.51,0.28,0.93v7.9c0,0.41-0.09,0.72-0.28,0.93c-0.18,0.21-0.43,0.31-0.73,0.31c-0.29,0-0.52-0.1-0.71-0.31
				C191.85,6.78,191.76,6.47,191.76,6.06z"/>
			<path d="M199.79,3.23h-1.82v2.84c0,0.41-0.09,0.71-0.28,0.92s-0.42,0.31-0.71,0.31c-0.3,0-0.54-0.1-0.72-0.31
				c-0.18-0.21-0.28-0.51-0.28-0.91v-7.72c0-0.45,0.1-0.77,0.3-0.96c0.2-0.19,0.52-0.29,0.96-0.29h2.55c0.75,0,1.33,0.06,1.74,0.18
				c0.4,0.11,0.75,0.3,1.04,0.57c0.29,0.26,0.52,0.59,0.67,0.97s0.23,0.81,0.23,1.29c0,1.02-0.31,1.79-0.92,2.32
				S201,3.23,199.79,3.23z M199.3-1.37h-1.34V1.7h1.34c0.47,0,0.86-0.05,1.18-0.15c0.31-0.1,0.55-0.26,0.72-0.49s0.25-0.53,0.25-0.9
				c0-0.44-0.13-0.8-0.38-1.08C200.78-1.22,200.19-1.37,199.3-1.37z"/>
			<path d="M211.59-1.33h-4.48v2.46h4.13c0.3,0,0.53,0.07,0.68,0.21s0.22,0.32,0.22,0.55s-0.07,0.41-0.22,0.56
				c-0.15,0.14-0.38,0.22-0.68,0.22h-4.13v2.85h4.63c0.31,0,0.55,0.07,0.71,0.22s0.24,0.35,0.24,0.59c0,0.24-0.08,0.43-0.24,0.58
				s-0.39,0.22-0.71,0.22h-5.41c-0.43,0-0.75-0.1-0.93-0.29s-0.28-0.51-0.28-0.95v-7.53c0-0.29,0.04-0.53,0.13-0.71
				s0.22-0.32,0.4-0.4c0.18-0.08,0.41-0.13,0.69-0.13h5.25c0.32,0,0.55,0.07,0.71,0.22s0.23,0.33,0.23,0.56
				c0,0.24-0.08,0.43-0.23,0.57S211.91-1.33,211.59-1.33z"/>
			<path d="M216.22-1.83v7.29h4.03c0.32,0,0.57,0.08,0.74,0.24s0.26,0.36,0.26,0.6c0,0.25-0.08,0.45-0.25,0.6s-0.42,0.23-0.74,0.23
				h-4.8c-0.43,0-0.75-0.1-0.93-0.29s-0.29-0.51-0.29-0.95v-7.72c0-0.41,0.09-0.72,0.27-0.92c0.18-0.21,0.42-0.31,0.71-0.31
				c0.3,0,0.54,0.1,0.73,0.3C216.13-2.56,216.22-2.25,216.22-1.83z"/>
			<path d="M222.64,6.06v-7.9c0-0.41,0.09-0.72,0.28-0.92c0.18-0.21,0.42-0.31,0.71-0.31c0.3,0,0.54,0.1,0.73,0.3
				c0.19,0.2,0.28,0.51,0.28,0.93v7.9c0,0.41-0.09,0.72-0.28,0.93c-0.18,0.21-0.43,0.31-0.73,0.31c-0.29,0-0.52-0.1-0.71-0.31
				C222.73,6.78,222.64,6.47,222.64,6.06z"/>
			<path d="M229.44-1.85l3.83,5.91V-1.9c0-0.39,0.08-0.68,0.25-0.87c0.16-0.19,0.38-0.29,0.66-0.29c0.29,0,0.51,0.1,0.68,0.29
				c0.16,0.19,0.25,0.48,0.25,0.87v7.88c0,0.88-0.36,1.32-1.07,1.32c-0.18,0-0.34-0.03-0.48-0.08s-0.28-0.14-0.4-0.25
				s-0.24-0.25-0.35-0.4s-0.21-0.31-0.32-0.47l-3.73-5.84v5.87c0,0.38-0.09,0.67-0.26,0.87s-0.4,0.29-0.67,0.29
				c-0.28,0-0.51-0.1-0.68-0.3s-0.25-0.49-0.25-0.86v-7.73c0-0.33,0.04-0.59,0.11-0.77c0.08-0.21,0.22-0.37,0.42-0.5
				c0.2-0.13,0.41-0.19,0.64-0.19c0.18,0,0.33,0.03,0.46,0.09s0.24,0.14,0.33,0.24s0.19,0.23,0.29,0.39
				C229.23-2.18,229.34-2.02,229.44-1.85z"/>
			<path d="M243.74-1.33h-4.48v2.46h4.12c0.3,0,0.53,0.07,0.68,0.21c0.15,0.14,0.22,0.32,0.22,0.55s-0.07,0.41-0.22,0.56
				c-0.15,0.14-0.38,0.22-0.68,0.22h-4.12v2.85h4.63c0.31,0,0.55,0.07,0.71,0.22c0.16,0.15,0.24,0.35,0.24,0.59
				c0,0.24-0.08,0.43-0.24,0.58c-0.16,0.15-0.39,0.22-0.71,0.22h-5.41c-0.43,0-0.74-0.1-0.93-0.29s-0.29-0.51-0.29-0.95v-7.53
				c0-0.29,0.04-0.53,0.13-0.71c0.09-0.18,0.22-0.32,0.4-0.4s0.41-0.13,0.69-0.13h5.25c0.32,0,0.55,0.07,0.71,0.22
				c0.15,0.14,0.23,0.33,0.23,0.56c0,0.24-0.08,0.43-0.23,0.57C244.3-1.4,244.06-1.33,243.74-1.33z"/>
		</g>
	</g>
	<g>
		<path class="st9" d="M320.68,233.49l92.52-113.42L302.07,220.83l-8.77,3.71l8.77,8.95l-5.85,5.97l5.85-3.86v-2.11H320.68"/>
		<ellipse class="st10" cx="320.68" cy="233.49" rx="3.89" ry="3.97"/>
		<ellipse class="st10" cx="413.2" cy="120.07" rx="3.89" ry="3.97"/>
		<ellipse class="st10" cx="302.07" cy="220.83" rx="3.89" ry="3.97"/>
		<ellipse class="st10" cx="293.3" cy="224.54" rx="3.89" ry="3.97"/>
		<ellipse class="st10" cx="302.07" cy="233.49" rx="3.89" ry="3.97"/>
		<ellipse class="st10" cx="296.22" cy="239.46" rx="3.89" ry="3.97"/>
		<ellipse class="st10" cx="302.07" cy="235.61" rx="3.89" ry="3.97"/>
		<ellipse class="st10" cx="302.07" cy="233.49" rx="3.89" ry="3.97"/>
		<ellipse class="st10" cx="320.68" cy="233.49" rx="3.89" ry="3.97"/>
	</g>
</g>
<text transform="matrix(1.2794 0 0 1 520.001 222.314)" class="st11 st12 st13">A</text>
<text transform="matrix(1.6239 0 0 1 480 97.1348)" class="st11 st12 st13">B</text>
<text transform="matrix(1.2814 0 0 1 329.001 60.3433)" class="st11 st12 st13">C</text>
<text transform="matrix(0.9782 0 0 1 101 98.6963)" class="st11 st12 st14">D</text>
<text transform="matrix(0.9028 0 0 1 86.4658 229.0903)" class="st11 st12 st15">E</text>
<text transform="matrix(1.7479 0 0 1 91.9995 357.7607)" class="st11 st12 st13">F</text>
<text transform="matrix(1.1203 0 0 1 264 426.1211)" class="st11 st12 st13">G</text>
<text transform="matrix(1.2009 0 0 1 449.999 376.6875)" class="st11 st12 st13">H</text>
</svg>
