<?xml version="1.0" encoding="utf-8"?>
<!-- Generator: Adobe Illustrator 29.8.2, SVG Export Plug-In . SVG Version: 9.03 Build 0)  -->
<svg version="1.0" id="Layer_1" xmlns="http://www.w3.org/2000/svg" xmlns:xlink="http://www.w3.org/1999/xlink" x="0px" y="0px"
	 viewBox="0 0 570 429" style="enable-background:new 0 0 570 429;" xml:space="preserve">
<style type="text/css">
	.st0{clip-path:url(#SVGID_00000137821406678462078300000007093357273712599425_);fill:#FFFFFF;}
	.st1{fill:#FFFFFF;}
	.st2{fill:none;stroke:#262626;stroke-width:0.6667;stroke-linejoin:round;stroke-miterlimit:10;stroke-opacity:0.149;}
	
		.st3{fill:none;stroke:#262626;stroke-width:0.6667;stroke-linecap:square;stroke-linejoin:round;stroke-miterlimit:10;stroke-opacity:0.149;}
	.st4{fill:#262626;}
	.st5{font-family:'ArialMT';}
	.st6{font-size:12px;}
	.st7{font-size:13.075px;}
	.st8{enable-background:new    ;}
	.st9{fill:none;stroke:#0072BD;stroke-width:2;stroke-linejoin:round;stroke-miterlimit:10;}
	.st10{fill:none;stroke:#0072BD;stroke-width:2;stroke-miterlimit:10;}
	.st11{fill:#F15923;}
	.st12{font-family:'ArialRoundedMTBold';}
	.st13{font-size:14px;}
	.st14{font-size:14.2846px;}
</style>
<g>
	<g>
		<g>
			<g>
				<g>
					<defs>
						<rect id="SVGID_1_" y="24" width="570" height="405"/>
					</defs>
					<clipPath id="SVGID_00000073695048249268483420000016365592656130618280_">
						<use xlink:href="#SVGID_1_"  style="overflow:visible;"/>
					</clipPath>
					
						<rect y="24" style="clip-path:url(#SVGID_00000073695048249268483420000016365592656130618280_);fill:#FFFFFF;" width="570" height="405"/>
				</g>
			</g>
		</g>
	</g>
	<g>
		<rect y="24" class="st1" width="570" height="405"/>
		<path class="st1" d="M457,226.01l-0.51-12.62l-1.53-12.54l-2.54-12.38l-3.54-12.15l-4.51-11.83l-5.46-11.44l-6.37-10.98
			l-7.24-10.45l-8.06-9.85l-8.83-9.19l-9.55-8.48l-10.21-7.71l-10.8-6.89l-11.32-6.02l-11.77-5.12l-12.15-4.19l-12.45-3.23
			l-12.68-2.25l-12.82-1.25l-12.88-0.25l-12.86,0.75l-12.76,1.75l-12.57,2.74l-12.31,3.71L229.3,80.8l-11.56,5.58l-11.07,6.46
			l-10.51,7.3l-9.89,8.1l-9.2,8.84l-8.45,9.53l-7.65,10.16l-6.81,10.72l-5.92,11.22l-4.99,11.65l-4.03,12l-3.04,12.27l-2.04,12.47
			l-1.02,12.59v12.63l1.02,12.59l2.04,12.47l3.04,12.27l4.03,12l4.99,11.65l5.92,11.22l6.81,10.72l7.65,10.16l8.45,9.53l9.2,8.84
			l9.89,8.1l10.51,7.3l11.07,6.46l11.56,5.58l11.97,4.66l12.31,3.71l12.57,2.74l12.76,1.75l12.86,0.75l12.88-0.25l12.82-1.25
			l12.68-2.25l12.45-3.23l12.15-4.19l11.77-5.12l11.32-6.02l10.8-6.89l10.21-7.71l9.55-8.48l8.83-9.19l8.06-9.85l7.24-10.45
			l6.37-10.98l5.46-11.44l4.51-11.83l3.54-12.15l2.54-12.38l1.53-12.54L457,226.01z"/>
	</g>
	<g>
		<line class="st2" x1="295" y1="226.01" x2="457" y2="226.01"/>
		<line class="st2" x1="295" y1="226.01" x2="409.55" y2="113.68"/>
		<line class="st2" x1="295" y1="226.01" x2="295" y2="67.15"/>
		<line class="st2" x1="295" y1="226.01" x2="180.45" y2="113.68"/>
		<line class="st2" x1="295" y1="226.01" x2="133" y2="226.01"/>
		<line class="st2" x1="295" y1="226.01" x2="180.45" y2="338.34"/>
		<line class="st2" x1="295" y1="226.01" x2="295" y2="384.87"/>
		<line class="st2" x1="295" y1="226.01" x2="409.55" y2="338.34"/>
		<path class="st2" d="M295,226.01L295,226.01L295,226.01L295,226.01L295,226.01L295,226.01L295,226.01L295,226.01L295,226.01
			L295,226.01L295,226.01L295,226.01L295,226.01L295,226.01L295,226.01L295,226.01L295,226.01L295,226.01L295,226.01L295,226.01
			L295,226.01L295,226.01L295,226.01L295,226.01L295,226.01L295,226.01L295,226.01L295,226.01L295,226.01L295,226.01L295,226.01
			L295,226.01L295,226.01L295,226.01L295,226.01L295,226.01L295,226.01L295,226.01L295,226.01L295,226.01L295,226.01L295,226.01
			L295,226.01L295,226.01L295,226.01L295,226.01L295,226.01L295,226.01L295,226.01L295,226.01L295,226.01L295,226.01L295,226.01
			L295,226.01L295,226.01L295,226.01L295,226.01L295,226.01L295,226.01L295,226.01L295,226.01L295,226.01L295,226.01L295,226.01
			L295,226.01L295,226.01L295,226.01L295,226.01L295,226.01L295,226.01L295,226.01L295,226.01L295,226.01L295,226.01L295,226.01
			L295,226.01L295,226.01L295,226.01L295,226.01L295,226.01"/>
		<path class="st2" d="M349,226.01l-0.17,4.21l-0.51,4.18l-0.85,4.13l-1.18,4.05l-1.5,3.94l-1.82,3.81l-2.12,3.66l-2.41,3.48
			l-2.69,3.28l-2.94,3.06l-3.18,2.83l-3.4,2.57l-3.6,2.3l-3.77,2.01l-3.92,1.71l-4.05,1.4l-4.15,1.08l-4.23,0.75l-4.27,0.42
			l-4.29,0.08l-4.29-0.25l-4.25-0.58l-4.19-0.91l-4.1-1.24l-3.99-1.55l-3.85-1.86l-3.69-2.15l-3.5-2.43l-3.3-2.7l-3.07-2.95
			l-2.82-3.18l-2.55-3.39l-2.27-3.57l-1.97-3.74l-1.66-3.88l-1.34-4l-1.01-4.09l-0.68-4.16l-0.34-4.2v-4.21l0.34-4.2l0.68-4.16
			l1.01-4.09l1.34-4l1.66-3.88l1.97-3.74l2.27-3.57l2.55-3.39l2.82-3.18l3.07-2.95l3.3-2.7l3.5-2.43l3.69-2.15l3.85-1.86l3.99-1.55
			l4.1-1.24l4.19-0.91l4.25-0.58l4.29-0.25l4.29,0.08l4.27,0.42l4.23,0.75l4.15,1.08l4.05,1.4l3.92,1.71l3.77,2.01l3.6,2.3l3.4,2.57
			l3.18,2.83l2.94,3.06l2.69,3.28l2.41,3.48l2.12,3.66l1.82,3.81l1.5,3.94l1.18,4.05l0.85,4.13l0.51,4.18L349,226.01"/>
		<path class="st2" d="M403,226.01l-0.34,8.41l-1.02,8.36l-1.7,8.26l-2.36,8.1l-3.01,7.89l-3.64,7.63l-4.24,7.32l-4.82,6.97
			l-5.37,6.57l-5.89,6.13l-6.37,5.65l-6.8,5.14l-7.2,4.59l-7.55,4.02l-7.85,3.41l-8.1,2.79l-8.3,2.15l-8.45,1.5l-8.55,0.84
			l-8.59,0.17l-8.57-0.5l-8.5-1.17l-8.38-1.83l-8.21-2.47l-7.98-3.11l-7.7-3.72l-7.38-4.31l-7.01-4.87l-6.59-5.4l-6.13-5.9
			l-5.64-6.35l-5.1-6.77l-4.54-7.15l-3.94-7.48l-3.33-7.76l-2.69-8l-2.03-8.18l-1.36-8.31l-0.68-8.39v-8.42l0.68-8.39l1.36-8.31
			l2.03-8.18l2.69-8l3.33-7.76l3.94-7.48l4.54-7.15l5.1-6.77l5.64-6.35l6.13-5.9l6.59-5.4l7.01-4.87l7.38-4.31l7.7-3.72l7.98-3.11
			l8.21-2.47l8.38-1.83l8.5-1.17l8.57-0.5l8.59,0.17l8.55,0.84l8.45,1.5l8.3,2.15l8.1,2.79l7.85,3.41l7.55,4.02l7.2,4.59l6.8,5.14
			l6.37,5.65l5.89,6.13l5.37,6.57l4.82,6.97l4.24,7.32l3.64,7.63l3.01,7.89l2.36,8.1l1.7,8.26l1.02,8.36L403,226.01"/>
		<path class="st2" d="M457,226.01l-0.51,12.62l-1.53,12.54l-2.54,12.38l-3.54,12.15l-4.51,11.83l-5.46,11.44l-6.37,10.98
			l-7.24,10.45l-8.06,9.85l-8.83,9.19l-9.55,8.48l-10.21,7.71l-10.8,6.89l-11.32,6.02l-11.77,5.12l-12.15,4.19l-12.45,3.23
			l-12.68,2.25l-12.82,1.25l-12.88,0.25l-12.86-0.75l-12.76-1.75l-12.57-2.74l-12.31-3.71l-11.97-4.66l-11.56-5.58l-11.07-6.46
			l-10.51-7.3l-9.89-8.1l-9.2-8.84l-8.45-9.53l-7.65-10.16l-6.81-10.72l-5.92-11.22l-4.99-11.65l-4.03-12l-3.04-12.27l-2.04-12.47
			l-1.02-12.59V219.7l1.02-12.59l2.04-12.47l3.04-12.27l4.03-12l4.99-11.65l5.92-11.22l6.81-10.72l7.65-10.16l8.45-9.53l9.2-8.84
			l9.89-8.1l10.51-7.3l11.07-6.46l11.56-5.58l11.97-4.66l12.31-3.71l12.57-2.74l12.76-1.75l12.86-0.75l12.88,0.25l12.82,1.25
			l12.68,2.25l12.45,3.23l12.15,4.19l11.77,5.12l11.32,6.02l10.8,6.89l10.21,7.71l9.55,8.48l8.83,9.19l8.06,9.85l7.24,10.45
			l6.37,10.98l5.46,11.44l4.51,11.83l3.54,12.15l2.54,12.38l1.53,12.54L457,226.01"/>
		<path class="st3" d="M457,226.01l-0.51-12.62l-1.53-12.54l-2.54-12.38l-3.54-12.15l-4.51-11.83l-5.46-11.44l-6.37-10.98
			l-7.24-10.45l-8.06-9.85l-8.83-9.19l-9.55-8.48l-10.21-7.71l-10.8-6.89l-11.32-6.02l-11.77-5.12l-12.15-4.19l-12.45-3.23
			l-12.68-2.25l-12.82-1.25l-12.88-0.25l-12.86,0.75l-12.76,1.75l-12.57,2.74l-12.31,3.71L229.3,80.8l-11.56,5.58l-11.07,6.46
			l-10.51,7.3l-9.89,8.1l-9.2,8.84l-8.45,9.53l-7.65,10.16l-6.81,10.72l-5.92,11.22l-4.99,11.65l-4.03,12l-3.04,12.27l-2.04,12.47
			l-1.02,12.59v12.63l1.02,12.59l2.04,12.47l3.04,12.27l4.03,12l4.99,11.65l5.92,11.22l6.81,10.72l7.65,10.16l8.45,9.53l9.2,8.84
			l9.89,8.1l10.51,7.3l11.07,6.46l11.56,5.58l11.97,4.66l12.31,3.71l12.57,2.74l12.76,1.75l12.86,0.75l12.88-0.25l12.82-1.25
			l12.68-2.25l12.45-3.23l12.15-4.19l11.77-5.12l11.32-6.02l10.8-6.89l10.21-7.71l9.55-8.48l8.83-9.19l8.06-9.85l7.24-10.45
			l6.37-10.98l5.46-11.44l4.51-11.83l3.54-12.15l2.54-12.38l1.53-12.54L457,226.01"/>
	</g>
	<g transform="translate(462.3333,206)">
		<text transform="matrix(1.0482 0 0 1 13.4362 24.4229)" class="st4 st5 st6">Low Firing</text>
	</g>
	<g transform="translate(413.3225,87.6775)">
		<text transform="matrix(1.0482 0 0 1 12.0701 18.3796)" class="st4 st5 st6">Correlation</text>
	</g>
	<g transform="translate(295,38.6667)">
		<text transform="matrix(1.0482 0 0 1 -26.6865 19.3289)" class="st4 st5 st6">Amplitude</text>
	</g>
	<g transform="translate(176.6775,87.6775)">
		<text transform="matrix(1.0482 0 0 1 -66.4715 18.3796)" class="st4 st5 st6">Half Width</text>
	</g>
	<g transform="translate(127.6667,206)">
		<text transform="matrix(1.0482 0 0 1 -33.9172 24.4229)" class="st4 st5 st6">Slope</text>
	</g>
	<g transform="translate(176.6775,324.3225)">
		<text transform="matrix(1.0482 0 0 1 -72.6384 30.4656)" class="st4 st5 st6">ACG Empty</text>
	</g>
	<g transform="translate(295,373.3333)">
		<text transform="matrix(1.0482 0 0 1 -16.9219 29.5163)" class="st4 st5 st6">ACG All</text>
	</g>
	<g transform="translate(413.3225,324.3225)">
		<text transform="matrix(1.0482 0 0 1 12.0701 30.4656)" class="st4 st5 st6">MUA</text>
	</g>
	<g transform="translate(295,206)">
		<text transform="matrix(1.0482 0 0 1 4.1494 24.4229)" class="st4 st5 st7">0</text>
	</g>
	<g transform="translate(304.377,152.8204)">
		<text transform="matrix(1.0482 0 0 1 0.2988 25.453)" class="st4 st5 st7">20</text>
	</g>
	<g transform="translate(313.754,99.6408)">
		<text transform="matrix(1.0482 0 0 1 0.5605 26.4827)" class="st4 st5 st7">40</text>
	</g>
	<g transform="translate(323.131,46.4611)">
		<text transform="matrix(1.0482 0 0 1 0.8211 27.513)" class="st4 st5 st7">60</text>
	</g>
	<g transform="translate(295.0003,18.9167)">
		<g class="st8">
			<path d="M-253.17,1.13h-1.91v2.78c0,0.4-0.1,0.7-0.29,0.91s-0.44,0.31-0.74,0.31c-0.31,0-0.57-0.1-0.76-0.3
				c-0.19-0.2-0.29-0.5-0.29-0.9v-7.58c0-0.44,0.11-0.75,0.32-0.94c0.21-0.19,0.55-0.28,1-0.28h2.68c0.79,0,1.4,0.06,1.83,0.17
				c0.42,0.11,0.79,0.3,1.09,0.56c0.31,0.26,0.54,0.58,0.7,0.95c0.16,0.38,0.24,0.8,0.24,1.27c0,1-0.32,1.76-0.97,2.28
				S-251.89,1.13-253.17,1.13z M-253.67-3.37h-1.41v3h1.41c0.49,0,0.9-0.05,1.23-0.15c0.33-0.1,0.58-0.26,0.76-0.48
				c0.17-0.22,0.26-0.52,0.26-0.88c0-0.43-0.13-0.79-0.4-1.06C-252.12-3.22-252.74-3.37-253.67-3.37z"/>
			<path d="M-240.78-3.33h-4.7v2.41h4.33c0.32,0,0.56,0.07,0.71,0.2c0.16,0.14,0.24,0.32,0.24,0.54s-0.08,0.41-0.23,0.55
				c-0.15,0.14-0.39,0.21-0.72,0.21h-4.33v2.8h4.86c0.33,0,0.57,0.07,0.74,0.22c0.17,0.15,0.25,0.34,0.25,0.58
				c0,0.23-0.08,0.42-0.25,0.57c-0.17,0.15-0.41,0.22-0.74,0.22h-5.67c-0.45,0-0.78-0.1-0.98-0.29c-0.2-0.19-0.3-0.5-0.3-0.93v-7.39
				c0-0.29,0.04-0.52,0.13-0.7c0.09-0.18,0.23-0.31,0.42-0.4c0.19-0.08,0.43-0.12,0.73-0.12h5.51c0.33,0,0.58,0.07,0.74,0.21
				s0.24,0.33,0.24,0.55c0,0.23-0.08,0.42-0.24,0.56S-240.45-3.33-240.78-3.33z"/>
			<path d="M-235.16,0.76h-0.73v3.16c0,0.42-0.1,0.72-0.29,0.92c-0.19,0.2-0.44,0.29-0.75,0.29c-0.33,0-0.59-0.1-0.77-0.31
				s-0.27-0.51-0.27-0.91v-7.56c0-0.43,0.1-0.74,0.3-0.93c0.2-0.19,0.53-0.29,0.98-0.29h3.39c0.47,0,0.87,0.02,1.2,0.06
				c0.33,0.04,0.63,0.12,0.9,0.23c0.32,0.13,0.61,0.31,0.86,0.56c0.25,0.24,0.44,0.52,0.57,0.84c0.13,0.32,0.19,0.66,0.19,1.02
				c0,0.73-0.22,1.32-0.65,1.76c-0.43,0.44-1.09,0.75-1.97,0.93c0.37,0.19,0.72,0.46,1.06,0.83c0.34,0.37,0.64,0.76,0.9,1.17
				c0.26,0.41,0.47,0.79,0.62,1.12c0.15,0.33,0.22,0.56,0.22,0.69c0,0.13-0.04,0.26-0.13,0.39c-0.09,0.13-0.21,0.23-0.35,0.3
				s-0.32,0.11-0.52,0.11c-0.23,0-0.43-0.05-0.59-0.16c-0.16-0.1-0.3-0.24-0.41-0.4c-0.12-0.16-0.27-0.4-0.47-0.71l-0.84-1.33
				c-0.3-0.49-0.57-0.86-0.8-1.11c-0.24-0.25-0.48-0.43-0.72-0.52C-234.49,0.81-234.79,0.76-235.16,0.76z M-233.97-3.37h-1.93v2.7
				h1.87c0.5,0,0.92-0.04,1.26-0.12c0.34-0.08,0.6-0.22,0.78-0.42c0.18-0.2,0.27-0.47,0.27-0.82c0-0.27-0.07-0.51-0.22-0.72
				c-0.15-0.21-0.35-0.36-0.6-0.47C-232.77-3.32-233.25-3.37-233.97-3.37z"/>
			<path d="M-219.03,1.86c0,0.31-0.08,0.65-0.24,1.02c-0.16,0.36-0.42,0.72-0.76,1.07c-0.35,0.35-0.79,0.64-1.33,0.85
				c-0.54,0.22-1.17,0.33-1.88,0.33c-0.54,0-1.04-0.05-1.48-0.15c-0.45-0.1-0.85-0.25-1.21-0.46c-0.36-0.21-0.7-0.48-1-0.82
				c-0.27-0.31-0.5-0.65-0.7-1.04c-0.19-0.38-0.34-0.79-0.43-1.22c-0.1-0.43-0.14-0.89-0.14-1.38c0-0.79,0.12-1.5,0.36-2.12
				c0.24-0.63,0.59-1.16,1.04-1.61c0.45-0.44,0.98-0.78,1.58-1.02c0.6-0.23,1.25-0.35,1.93-0.35c0.83,0,1.58,0.16,2.23,0.48
				c0.65,0.32,1.15,0.71,1.5,1.18c0.35,0.47,0.52,0.91,0.52,1.32c0,0.23-0.08,0.43-0.25,0.6c-0.17,0.17-0.37,0.26-0.61,0.26
				c-0.27,0-0.47-0.06-0.6-0.18c-0.13-0.12-0.28-0.33-0.45-0.62c-0.27-0.49-0.59-0.85-0.96-1.09c-0.37-0.24-0.82-0.36-1.36-0.36
				c-0.86,0-1.54,0.31-2.05,0.93s-0.76,1.5-0.76,2.65c0,0.76,0.11,1.4,0.34,1.91c0.23,0.51,0.54,0.89,0.96,1.14
				c0.41,0.25,0.9,0.38,1.45,0.38c0.6,0,1.11-0.14,1.52-0.43c0.41-0.28,0.73-0.7,0.94-1.25c0.09-0.26,0.2-0.47,0.33-0.63
				c0.13-0.16,0.34-0.24,0.63-0.24c0.25,0,0.46,0.08,0.64,0.25C-219.12,1.41-219.03,1.61-219.03,1.86z"/>
			<path d="M-210.37-3.33h-4.7v2.41h4.33c0.32,0,0.56,0.07,0.71,0.2c0.16,0.14,0.24,0.32,0.24,0.54s-0.08,0.41-0.23,0.55
				c-0.15,0.14-0.39,0.21-0.72,0.21h-4.33v2.8h4.86c0.33,0,0.57,0.07,0.74,0.22c0.17,0.15,0.25,0.34,0.25,0.58
				c0,0.23-0.08,0.42-0.25,0.57c-0.17,0.15-0.41,0.22-0.74,0.22h-5.67c-0.45,0-0.78-0.1-0.98-0.29c-0.2-0.19-0.3-0.5-0.3-0.93v-7.39
				c0-0.29,0.04-0.52,0.13-0.7c0.09-0.18,0.23-0.31,0.42-0.4c0.19-0.08,0.43-0.12,0.73-0.12h5.51c0.33,0,0.58,0.07,0.74,0.21
				s0.24,0.33,0.24,0.55c0,0.23-0.08,0.42-0.24,0.56S-210.03-3.33-210.37-3.33z"/>
			<path d="M-204.84-3.84l4.01,5.79v-5.85c0-0.38,0.09-0.66,0.26-0.85s0.4-0.29,0.69-0.29c0.3,0,0.54,0.1,0.71,0.29
				s0.26,0.47,0.26,0.85v7.73c0,0.86-0.37,1.29-1.12,1.29c-0.19,0-0.36-0.03-0.51-0.08c-0.15-0.05-0.29-0.13-0.42-0.24
				c-0.13-0.11-0.25-0.24-0.37-0.39c-0.11-0.15-0.23-0.3-0.34-0.46l-3.91-5.73v5.76c0,0.38-0.09,0.66-0.27,0.85
				c-0.18,0.19-0.42,0.29-0.7,0.29c-0.29,0-0.53-0.1-0.71-0.29c-0.18-0.19-0.27-0.48-0.27-0.85v-7.58c0-0.32,0.04-0.57,0.11-0.76
				c0.09-0.2,0.24-0.37,0.44-0.49c0.21-0.13,0.43-0.19,0.67-0.19c0.19,0,0.35,0.03,0.48,0.09c0.13,0.06,0.25,0.14,0.35,0.23
				c0.1,0.1,0.2,0.23,0.31,0.38C-205.06-4.17-204.95-4.01-204.84-3.84z"/>
			<path d="M-189.93-3.22h-2.28v7.14c0,0.41-0.1,0.72-0.29,0.92c-0.19,0.2-0.44,0.3-0.75,0.3c-0.31,0-0.56-0.1-0.76-0.3
				c-0.19-0.2-0.29-0.5-0.29-0.91v-7.14h-2.28c-0.36,0-0.62-0.07-0.79-0.22c-0.17-0.15-0.26-0.35-0.26-0.59
				c0-0.25,0.09-0.46,0.27-0.6s0.44-0.22,0.78-0.22h6.63c0.36,0,0.63,0.08,0.8,0.23c0.18,0.15,0.26,0.35,0.26,0.6
				c0,0.25-0.09,0.44-0.27,0.59C-189.31-3.3-189.58-3.22-189.93-3.22z"/>
			<path d="M-181.95,3.85l-0.49-1.23h-4.19l-0.49,1.26c-0.19,0.49-0.36,0.82-0.49,1c-0.14,0.17-0.36,0.26-0.67,0.26
				c-0.26,0-0.49-0.09-0.7-0.27c-0.2-0.18-0.3-0.39-0.3-0.62c0-0.13,0.02-0.27,0.07-0.42c0.05-0.14,0.12-0.34,0.23-0.6l2.64-6.38
				c0.07-0.18,0.17-0.4,0.27-0.66c0.11-0.26,0.22-0.47,0.34-0.64c0.12-0.17,0.28-0.31,0.47-0.41c0.19-0.1,0.43-0.16,0.72-0.16
				c0.29,0,0.53,0.05,0.73,0.16s0.35,0.24,0.47,0.41c0.12,0.17,0.22,0.34,0.3,0.53s0.19,0.44,0.31,0.76l2.69,6.34
				c0.21,0.48,0.32,0.83,0.32,1.05c0,0.23-0.1,0.44-0.3,0.63s-0.44,0.28-0.72,0.28c-0.16,0-0.3-0.03-0.42-0.08
				c-0.12-0.06-0.22-0.13-0.3-0.23s-0.17-0.24-0.26-0.44S-181.88,4-181.95,3.85z M-186.08,1.12h3.08l-1.55-4.06L-186.08,1.12z"/>
			<path d="M-169.14,0.97v1.88c0,0.25-0.03,0.45-0.08,0.6c-0.05,0.15-0.15,0.29-0.28,0.41s-0.31,0.24-0.53,0.35
				c-0.62,0.32-1.22,0.56-1.8,0.7s-1.2,0.22-1.88,0.22c-0.79,0-1.51-0.12-2.16-0.35c-0.65-0.23-1.21-0.57-1.67-1.01
				s-0.81-0.98-1.06-1.61c-0.25-0.63-0.37-1.33-0.37-2.11c0-0.76,0.12-1.46,0.36-2.1c0.24-0.63,0.59-1.17,1.05-1.62
				c0.46-0.44,1.03-0.78,1.69-1.02c0.67-0.23,1.42-0.35,2.26-0.35c0.69,0,1.31,0.09,1.84,0.27c0.53,0.18,0.97,0.4,1.3,0.67
				s0.58,0.55,0.75,0.85c0.17,0.3,0.25,0.57,0.25,0.8c0,0.25-0.1,0.46-0.29,0.64c-0.19,0.18-0.43,0.26-0.7,0.26
				c-0.15,0-0.29-0.03-0.43-0.1c-0.14-0.07-0.25-0.16-0.35-0.28c-0.26-0.38-0.48-0.67-0.65-0.87s-0.42-0.36-0.72-0.5
				c-0.3-0.13-0.69-0.2-1.16-0.2c-0.48,0-0.91,0.08-1.29,0.24s-0.7,0.39-0.97,0.69c-0.27,0.3-0.48,0.67-0.62,1.11
				c-0.14,0.44-0.21,0.92-0.21,1.45c0,1.15,0.28,2.04,0.83,2.66c0.56,0.62,1.33,0.93,2.32,0.93c0.48,0,0.94-0.06,1.36-0.18
				c0.42-0.12,0.85-0.29,1.29-0.52V1.3h-1.62c-0.39,0-0.68-0.06-0.88-0.17s-0.3-0.3-0.3-0.57c0-0.22,0.08-0.4,0.25-0.54
				c0.17-0.14,0.39-0.21,0.68-0.21h2.37c0.29,0,0.54,0.02,0.74,0.07c0.2,0.05,0.36,0.16,0.49,0.33
				C-169.2,0.37-169.14,0.63-169.14,0.97z"/>
			<path d="M-160.36-3.33h-4.7v2.41h4.33c0.32,0,0.56,0.07,0.71,0.2c0.16,0.14,0.24,0.32,0.24,0.54s-0.08,0.41-0.23,0.55
				c-0.15,0.14-0.39,0.21-0.72,0.21h-4.33v2.8h4.86c0.33,0,0.57,0.07,0.74,0.22c0.17,0.15,0.25,0.34,0.25,0.58
				c0,0.23-0.08,0.42-0.25,0.57c-0.17,0.15-0.41,0.22-0.74,0.22h-5.67c-0.45,0-0.78-0.1-0.98-0.29c-0.2-0.19-0.3-0.5-0.3-0.93v-7.39
				c0-0.29,0.04-0.52,0.13-0.7c0.09-0.18,0.23-0.31,0.42-0.4c0.19-0.08,0.43-0.12,0.73-0.12h5.51c0.33,0,0.58,0.07,0.74,0.21
				s0.24,0.33,0.24,0.55c0,0.23-0.08,0.42-0.24,0.56S-160.03-3.33-160.36-3.33z"/>
			<path d="M-149.42-5.03c1.07,0,1.99,0.21,2.75,0.62c0.77,0.41,1.35,1,1.74,1.76c0.39,0.76,0.59,1.66,0.59,2.68
				c0,0.76-0.11,1.45-0.32,2.07c-0.22,0.62-0.54,1.16-0.97,1.62c-0.43,0.46-0.96,0.8-1.59,1.05c-0.63,0.24-1.35,0.36-2.16,0.36
				c-0.81,0-1.53-0.12-2.16-0.37c-0.64-0.25-1.17-0.6-1.59-1.05c-0.43-0.45-0.75-0.99-0.97-1.63c-0.22-0.63-0.33-1.32-0.33-2.06
				c0-0.76,0.11-1.45,0.34-2.08c0.23-0.63,0.56-1.17,0.99-1.61c0.43-0.44,0.96-0.78,1.57-1.02C-150.91-4.92-150.21-5.03-149.42-5.03
				z M-146.45,0.02c0-0.72-0.12-1.34-0.37-1.87s-0.59-0.93-1.04-1.2s-0.97-0.41-1.56-0.41c-0.42,0-0.8,0.08-1.16,0.22
				c-0.35,0.15-0.66,0.37-0.91,0.65s-0.46,0.65-0.6,1.1c-0.15,0.44-0.22,0.94-0.22,1.5c0,0.56,0.07,1.06,0.22,1.52
				c0.15,0.45,0.36,0.83,0.63,1.12c0.27,0.3,0.58,0.52,0.93,0.67s0.73,0.22,1.15,0.22c0.53,0,1.02-0.13,1.47-0.38
				c0.45-0.25,0.8-0.65,1.07-1.18C-146.59,1.45-146.45,0.8-146.45,0.02z"/>
			<path d="M-136.4-3.33h-4.11v2.51h3.44c0.32,0,0.56,0.07,0.71,0.2c0.16,0.14,0.24,0.32,0.24,0.55c0,0.23-0.08,0.41-0.24,0.54
				c-0.16,0.13-0.4,0.2-0.71,0.2h-3.44v3.24c0,0.41-0.1,0.72-0.29,0.92s-0.44,0.3-0.75,0.3c-0.31,0-0.56-0.1-0.76-0.3
				c-0.19-0.2-0.29-0.5-0.29-0.91v-7.56c0-0.29,0.04-0.52,0.13-0.7c0.09-0.18,0.23-0.31,0.42-0.4c0.19-0.08,0.43-0.12,0.73-0.12
				h4.92c0.33,0,0.58,0.07,0.74,0.21s0.24,0.33,0.24,0.55c0,0.23-0.08,0.42-0.24,0.56S-136.07-3.33-136.4-3.33z"/>
			<path d="M-127.54-3.84l4.01,5.79v-5.85c0-0.38,0.09-0.66,0.26-0.85s0.4-0.29,0.69-0.29c0.3,0,0.54,0.1,0.71,0.29
				s0.26,0.47,0.26,0.85v7.73c0,0.86-0.37,1.29-1.12,1.29c-0.19,0-0.36-0.03-0.51-0.08c-0.15-0.05-0.29-0.13-0.42-0.24
				c-0.13-0.11-0.25-0.24-0.37-0.39c-0.11-0.15-0.23-0.3-0.34-0.46l-3.91-5.73v5.76c0,0.38-0.09,0.66-0.27,0.85
				c-0.18,0.19-0.42,0.29-0.7,0.29c-0.29,0-0.53-0.1-0.71-0.29c-0.18-0.19-0.27-0.48-0.27-0.85v-7.58c0-0.32,0.04-0.57,0.11-0.76
				c0.09-0.2,0.24-0.37,0.44-0.49c0.21-0.13,0.43-0.19,0.67-0.19c0.19,0,0.35,0.03,0.48,0.09c0.13,0.06,0.25,0.14,0.35,0.23
				c0.1,0.1,0.2,0.23,0.31,0.38C-127.77-4.17-127.66-4.01-127.54-3.84z"/>
			<path d="M-114.8-5.03c1.07,0,1.99,0.21,2.75,0.62c0.77,0.41,1.35,1,1.74,1.76c0.39,0.76,0.59,1.66,0.59,2.68
				c0,0.76-0.11,1.45-0.32,2.07c-0.22,0.62-0.54,1.16-0.97,1.62c-0.43,0.46-0.96,0.8-1.59,1.05c-0.63,0.24-1.35,0.36-2.16,0.36
				c-0.81,0-1.53-0.12-2.16-0.37c-0.64-0.25-1.17-0.6-1.59-1.05c-0.43-0.45-0.75-0.99-0.97-1.63c-0.22-0.63-0.33-1.32-0.33-2.06
				c0-0.76,0.11-1.45,0.34-2.08c0.23-0.63,0.56-1.17,0.99-1.61c0.43-0.44,0.96-0.78,1.57-1.02C-116.29-4.92-115.59-5.03-114.8-5.03z
				 M-111.83,0.02c0-0.72-0.12-1.34-0.37-1.87s-0.59-0.93-1.04-1.2s-0.97-0.41-1.56-0.41c-0.42,0-0.8,0.08-1.16,0.22
				c-0.35,0.15-0.66,0.37-0.91,0.65s-0.46,0.65-0.6,1.1c-0.15,0.44-0.22,0.94-0.22,1.5c0,0.56,0.07,1.06,0.22,1.52
				c0.15,0.45,0.36,0.83,0.63,1.12c0.27,0.3,0.58,0.52,0.93,0.67s0.73,0.22,1.15,0.22c0.53,0,1.02-0.13,1.47-0.38
				c0.45-0.25,0.8-0.65,1.07-1.18C-111.97,1.45-111.83,0.8-111.83,0.02z"/>
			<path d="M-107.85,3.92v-7.74c0-0.4,0.1-0.7,0.29-0.91s0.44-0.3,0.75-0.3c0.31,0,0.57,0.1,0.76,0.3c0.19,0.2,0.29,0.5,0.29,0.91
				v7.74c0,0.41-0.1,0.71-0.29,0.91c-0.19,0.2-0.45,0.3-0.76,0.3c-0.3,0-0.55-0.1-0.74-0.3C-107.75,4.62-107.85,4.32-107.85,3.92z"
				/>
			<path d="M-95.6,2.01c0,0.59-0.16,1.13-0.48,1.6c-0.32,0.47-0.79,0.84-1.41,1.11c-0.62,0.27-1.35,0.4-2.2,0.4
				c-1.02,0-1.85-0.18-2.52-0.55c-0.47-0.26-0.85-0.62-1.14-1.06c-0.29-0.44-0.44-0.87-0.44-1.28c0-0.24,0.09-0.45,0.26-0.62
				c0.18-0.17,0.4-0.26,0.67-0.26c0.22,0,0.41,0.07,0.56,0.2c0.15,0.13,0.28,0.33,0.39,0.6c0.13,0.31,0.27,0.57,0.43,0.78
				s0.37,0.38,0.64,0.52c0.28,0.14,0.64,0.2,1.09,0.2c0.62,0,1.12-0.14,1.51-0.41c0.39-0.27,0.58-0.62,0.58-1.03
				c0-0.33-0.1-0.59-0.31-0.79c-0.21-0.2-0.48-0.36-0.81-0.47c-0.33-0.11-0.77-0.22-1.32-0.34c-0.74-0.17-1.36-0.36-1.86-0.58
				s-0.9-0.52-1.19-0.9c-0.29-0.38-0.44-0.86-0.44-1.42c0-0.54,0.15-1.02,0.46-1.44c0.31-0.42,0.76-0.74,1.34-0.97
				s1.27-0.34,2.07-0.34c0.63,0,1.18,0.08,1.64,0.22c0.46,0.15,0.84,0.35,1.15,0.6c0.3,0.25,0.53,0.51,0.67,0.78
				c0.14,0.27,0.21,0.54,0.21,0.8c0,0.24-0.09,0.45-0.26,0.64s-0.39,0.29-0.66,0.29c-0.24,0-0.42-0.06-0.54-0.17
				c-0.12-0.11-0.26-0.3-0.4-0.56c-0.19-0.37-0.41-0.66-0.67-0.87c-0.26-0.21-0.68-0.31-1.26-0.31c-0.54,0-0.97,0.11-1.3,0.34
				c-0.33,0.23-0.5,0.5-0.5,0.81c0,0.2,0.06,0.37,0.17,0.51c0.11,0.14,0.27,0.27,0.46,0.37c0.2,0.1,0.4,0.18,0.6,0.24
				c0.2,0.06,0.53,0.14,1,0.25c0.58,0.13,1.11,0.27,1.58,0.43c0.47,0.16,0.87,0.35,1.2,0.57c0.33,0.22,0.59,0.51,0.77,0.85
				S-95.6,1.52-95.6,2.01z"/>
			<path d="M-91.53,3.92V0.8l-2.52-3.72c-0.22-0.34-0.38-0.6-0.47-0.78c-0.09-0.19-0.14-0.35-0.14-0.49c0-0.23,0.09-0.42,0.28-0.59
				c0.19-0.17,0.41-0.25,0.69-0.25c0.29,0,0.5,0.08,0.65,0.23c0.15,0.15,0.37,0.46,0.66,0.92l1.93,2.98l1.95-2.98
				c0.12-0.18,0.22-0.34,0.29-0.46c0.08-0.12,0.17-0.24,0.26-0.35c0.1-0.11,0.2-0.19,0.32-0.25s0.26-0.09,0.43-0.09
				c0.26,0,0.48,0.08,0.66,0.24c0.18,0.16,0.26,0.35,0.26,0.57c0,0.17-0.04,0.35-0.13,0.52s-0.24,0.42-0.46,0.72l-2.58,3.77v3.12
				c0,0.41-0.1,0.71-0.29,0.91c-0.2,0.2-0.45,0.3-0.75,0.3c-0.31,0-0.56-0.1-0.75-0.3S-91.53,4.33-91.53,3.92z"/>
			<path d="M-77.27,3.55h-1.81V0.99h-2.69v-1.76h2.69v-2.57h1.81v2.57h2.71v1.76h-2.71V3.55z"/>
			<path d="M-65.77,3.48l-1.65-6.26V4c0,0.38-0.09,0.66-0.26,0.84c-0.18,0.19-0.41,0.28-0.7,0.28c-0.28,0-0.51-0.09-0.69-0.28
				c-0.18-0.19-0.27-0.47-0.27-0.85v-7.78c0-0.43,0.12-0.72,0.35-0.87c0.23-0.15,0.55-0.22,0.95-0.22h0.65
				c0.39,0,0.67,0.03,0.85,0.1c0.18,0.07,0.31,0.19,0.39,0.36c0.08,0.17,0.18,0.46,0.29,0.85l1.5,5.38l1.5-5.38
				c0.11-0.39,0.2-0.68,0.29-0.85c0.08-0.17,0.21-0.29,0.39-0.36c0.18-0.07,0.46-0.1,0.85-0.1h0.65c0.4,0,0.71,0.07,0.95,0.22
				c0.23,0.15,0.35,0.44,0.35,0.87V4c0,0.38-0.09,0.66-0.26,0.84c-0.18,0.19-0.41,0.28-0.71,0.28c-0.28,0-0.5-0.09-0.68-0.28
				c-0.18-0.19-0.27-0.47-0.27-0.84v-6.78l-1.65,6.26c-0.11,0.41-0.2,0.71-0.26,0.9c-0.07,0.19-0.19,0.36-0.38,0.52
				c-0.18,0.16-0.44,0.23-0.76,0.23c-0.24,0-0.45-0.05-0.62-0.15c-0.17-0.1-0.3-0.23-0.39-0.39s-0.17-0.33-0.22-0.52
				S-65.72,3.69-65.77,3.48z"/>
			<path d="M-57.25,0.9v-4.73c0-0.4,0.1-0.7,0.28-0.91c0.19-0.2,0.44-0.3,0.75-0.3c0.32,0,0.58,0.1,0.77,0.3
				c0.19,0.2,0.28,0.5,0.28,0.91v4.83c0,0.55,0.06,1.01,0.19,1.38s0.36,0.65,0.69,0.86c0.33,0.2,0.79,0.3,1.38,0.3
				c0.81,0,1.39-0.21,1.73-0.62c0.34-0.41,0.51-1.04,0.51-1.88v-4.87c0-0.41,0.09-0.71,0.28-0.91c0.19-0.2,0.44-0.3,0.75-0.3
				s0.57,0.1,0.76,0.3c0.19,0.2,0.29,0.5,0.29,0.91V0.9c0,0.77-0.08,1.41-0.24,1.92c-0.16,0.51-0.45,0.96-0.89,1.35
				c-0.37,0.33-0.81,0.57-1.31,0.72c-0.5,0.15-1.08,0.23-1.74,0.23c-0.79,0-1.47-0.08-2.04-0.24c-0.57-0.16-1.04-0.42-1.4-0.76
				c-0.36-0.34-0.62-0.78-0.79-1.31C-57.17,2.28-57.25,1.64-57.25,0.9z"/>
			<path d="M-40.46,3.85l-0.49-1.23h-4.19l-0.49,1.26c-0.19,0.49-0.36,0.82-0.49,1c-0.14,0.17-0.36,0.26-0.67,0.26
				c-0.26,0-0.49-0.09-0.7-0.27c-0.2-0.18-0.3-0.39-0.3-0.62c0-0.13,0.02-0.27,0.07-0.42c0.05-0.14,0.12-0.34,0.23-0.6l2.64-6.38
				c0.07-0.18,0.17-0.4,0.27-0.66c0.11-0.26,0.22-0.47,0.34-0.64c0.12-0.17,0.28-0.31,0.47-0.41c0.19-0.1,0.43-0.16,0.72-0.16
				c0.29,0,0.53,0.05,0.73,0.16s0.35,0.24,0.47,0.41c0.12,0.17,0.22,0.34,0.3,0.53s0.19,0.44,0.31,0.76l2.69,6.34
				c0.21,0.48,0.32,0.83,0.32,1.05c0,0.23-0.1,0.44-0.3,0.63s-0.44,0.28-0.72,0.28c-0.16,0-0.3-0.03-0.42-0.08
				c-0.12-0.06-0.22-0.13-0.3-0.23s-0.17-0.24-0.26-0.44S-40.39,4-40.46,3.85z M-44.59,1.12h3.08l-1.55-4.06L-44.59,1.12z"/>
			<path d="M-24.32,1.86c0,0.31-0.08,0.65-0.24,1.02c-0.16,0.36-0.42,0.72-0.76,1.07c-0.35,0.35-0.79,0.64-1.33,0.85
				c-0.54,0.22-1.17,0.33-1.88,0.33c-0.54,0-1.04-0.05-1.48-0.15c-0.45-0.1-0.85-0.25-1.21-0.46c-0.36-0.21-0.7-0.48-1-0.82
				c-0.27-0.31-0.5-0.65-0.7-1.04c-0.19-0.38-0.34-0.79-0.43-1.22c-0.1-0.43-0.14-0.89-0.14-1.38c0-0.79,0.12-1.5,0.36-2.12
				c0.24-0.63,0.59-1.16,1.04-1.61c0.45-0.44,0.98-0.78,1.58-1.02c0.6-0.23,1.25-0.35,1.93-0.35c0.83,0,1.58,0.16,2.23,0.48
				c0.65,0.32,1.15,0.71,1.5,1.18c0.35,0.47,0.52,0.91,0.52,1.32c0,0.23-0.08,0.43-0.25,0.6c-0.17,0.17-0.37,0.26-0.61,0.26
				c-0.27,0-0.47-0.06-0.6-0.18C-25.95-1.49-26.1-1.7-26.26-2c-0.27-0.49-0.59-0.85-0.96-1.09c-0.37-0.24-0.82-0.36-1.36-0.36
				c-0.86,0-1.54,0.31-2.05,0.93s-0.76,1.5-0.76,2.65c0,0.76,0.11,1.4,0.34,1.91c0.23,0.51,0.54,0.89,0.96,1.14
				c0.41,0.25,0.9,0.38,1.45,0.38c0.6,0,1.11-0.14,1.52-0.43c0.41-0.28,0.73-0.7,0.94-1.25c0.09-0.26,0.2-0.47,0.33-0.63
				c0.13-0.16,0.34-0.24,0.63-0.24c0.25,0,0.46,0.08,0.64,0.25C-24.41,1.41-24.32,1.61-24.32,1.86z"/>
			<path d="M-20.4-3.83v7.15h4.23c0.34,0,0.6,0.08,0.78,0.23c0.18,0.16,0.27,0.35,0.27,0.59c0,0.24-0.09,0.44-0.27,0.59
				c-0.18,0.15-0.44,0.22-0.78,0.22h-5.04c-0.45,0-0.78-0.1-0.98-0.29c-0.2-0.19-0.3-0.5-0.3-0.93v-7.57c0-0.4,0.09-0.7,0.28-0.91
				s0.44-0.3,0.75-0.3c0.31,0,0.57,0.1,0.76,0.3C-20.5-4.54-20.4-4.23-20.4-3.83z"/>
			<path d="M-14.46,0.9v-4.73c0-0.4,0.1-0.7,0.28-0.91c0.19-0.2,0.44-0.3,0.75-0.3c0.32,0,0.58,0.1,0.77,0.3
				c0.19,0.2,0.28,0.5,0.28,0.91v4.83c0,0.55,0.06,1.01,0.19,1.38s0.36,0.65,0.69,0.86c0.33,0.2,0.79,0.3,1.38,0.3
				c0.81,0,1.39-0.21,1.73-0.62c0.34-0.41,0.51-1.04,0.51-1.88v-4.87c0-0.41,0.09-0.71,0.28-0.91c0.19-0.2,0.44-0.3,0.75-0.3
				s0.57,0.1,0.76,0.3c0.19,0.2,0.29,0.5,0.29,0.91V0.9c0,0.77-0.08,1.41-0.23,1.92c-0.16,0.51-0.45,0.96-0.89,1.35
				C-7.29,4.51-7.73,4.75-8.23,4.9c-0.5,0.15-1.08,0.23-1.74,0.23c-0.79,0-1.47-0.08-2.04-0.24c-0.57-0.16-1.04-0.42-1.4-0.76
				c-0.36-0.34-0.62-0.78-0.79-1.31C-14.37,2.28-14.46,1.64-14.46,0.9z"/>
			<path d="M4.29,2.01c0,0.59-0.16,1.13-0.48,1.6C3.49,4.09,3.02,4.46,2.4,4.73C1.78,5,1.05,5.13,0.2,5.13
				c-1.02,0-1.86-0.18-2.52-0.55c-0.47-0.26-0.85-0.62-1.14-1.06C-3.75,3.08-3.9,2.66-3.9,2.24c0-0.24,0.09-0.45,0.26-0.62
				c0.18-0.17,0.4-0.26,0.67-0.26c0.22,0,0.41,0.07,0.56,0.2c0.15,0.13,0.28,0.33,0.39,0.6c0.13,0.31,0.27,0.57,0.42,0.78
				s0.37,0.38,0.64,0.52c0.28,0.14,0.64,0.2,1.09,0.2c0.62,0,1.12-0.14,1.51-0.41s0.58-0.62,0.58-1.03c0-0.33-0.11-0.59-0.31-0.79
				c-0.21-0.2-0.48-0.36-0.81-0.47C0.78,0.86,0.34,0.75-0.22,0.62c-0.74-0.17-1.36-0.36-1.86-0.58c-0.5-0.22-0.89-0.52-1.19-0.9
				C-3.55-1.24-3.7-1.72-3.7-2.28c0-0.54,0.15-1.02,0.46-1.44c0.31-0.42,0.76-0.74,1.34-0.97s1.27-0.34,2.07-0.34
				c0.63,0,1.18,0.08,1.64,0.22c0.46,0.15,0.84,0.35,1.15,0.6S3.49-3.7,3.63-3.43c0.14,0.27,0.21,0.54,0.21,0.8
				c0,0.24-0.09,0.45-0.26,0.64S3.18-1.71,2.92-1.71c-0.24,0-0.42-0.06-0.54-0.17c-0.12-0.11-0.26-0.3-0.4-0.56
				C1.78-2.81,1.56-3.1,1.29-3.31C1.03-3.51,0.61-3.62,0.03-3.62c-0.54,0-0.97,0.11-1.3,0.34c-0.33,0.23-0.49,0.5-0.49,0.81
				c0,0.2,0.06,0.37,0.17,0.51c0.11,0.14,0.27,0.27,0.46,0.37c0.2,0.1,0.4,0.18,0.6,0.24c0.2,0.06,0.54,0.14,1,0.25
				c0.58,0.13,1.11,0.27,1.58,0.43c0.47,0.16,0.87,0.35,1.2,0.57c0.33,0.22,0.59,0.51,0.77,0.85C4.2,1.1,4.29,1.52,4.29,2.01z"/>
			<path d="M12.75-3.22h-2.28v7.14c0,0.41-0.1,0.72-0.29,0.92s-0.44,0.3-0.75,0.3c-0.31,0-0.56-0.1-0.76-0.3
				c-0.19-0.2-0.29-0.5-0.29-0.91v-7.14H6.12c-0.36,0-0.62-0.07-0.79-0.22C5.15-3.6,5.06-3.79,5.06-4.04c0-0.25,0.09-0.46,0.27-0.6
				c0.18-0.15,0.44-0.22,0.78-0.22h6.63c0.36,0,0.63,0.08,0.8,0.23c0.18,0.15,0.26,0.35,0.26,0.6c0,0.25-0.09,0.44-0.27,0.59
				C13.37-3.3,13.11-3.22,12.75-3.22z"/>
			<path d="M21.84-3.33h-4.7v2.41h4.33c0.32,0,0.56,0.07,0.71,0.2c0.16,0.14,0.24,0.32,0.24,0.54s-0.08,0.41-0.23,0.55
				c-0.15,0.14-0.39,0.21-0.72,0.21h-4.33v2.8H22c0.33,0,0.58,0.07,0.74,0.22c0.17,0.15,0.25,0.34,0.25,0.58
				c0,0.23-0.08,0.42-0.25,0.57C22.58,4.89,22.33,4.96,22,4.96h-5.67c-0.45,0-0.78-0.1-0.98-0.29c-0.2-0.19-0.3-0.5-0.3-0.93v-7.39
				c0-0.29,0.04-0.52,0.13-0.7c0.09-0.18,0.23-0.31,0.42-0.4c0.19-0.08,0.43-0.12,0.73-0.12h5.51c0.33,0,0.58,0.07,0.74,0.21
				c0.16,0.14,0.24,0.33,0.24,0.55c0,0.23-0.08,0.42-0.24,0.56C22.42-3.4,22.17-3.33,21.84-3.33z"/>
			<path d="M27.45,0.76h-0.73v3.16c0,0.42-0.1,0.72-0.29,0.92c-0.19,0.2-0.44,0.29-0.75,0.29c-0.33,0-0.59-0.1-0.77-0.31
				s-0.27-0.51-0.27-0.91v-7.56c0-0.43,0.1-0.74,0.3-0.93c0.2-0.19,0.53-0.29,0.98-0.29h3.39c0.47,0,0.87,0.02,1.2,0.06
				c0.33,0.04,0.63,0.12,0.9,0.23c0.32,0.13,0.61,0.31,0.86,0.56c0.25,0.24,0.44,0.52,0.56,0.84c0.13,0.32,0.19,0.66,0.19,1.02
				c0,0.73-0.22,1.32-0.65,1.76c-0.43,0.44-1.09,0.75-1.97,0.93c0.37,0.19,0.72,0.46,1.06,0.83s0.64,0.76,0.9,1.17
				c0.26,0.41,0.47,0.79,0.62,1.12c0.15,0.33,0.22,0.56,0.22,0.69c0,0.13-0.04,0.26-0.13,0.39c-0.09,0.13-0.21,0.23-0.35,0.3
				S32.4,5.13,32.2,5.13c-0.23,0-0.43-0.05-0.59-0.16c-0.16-0.1-0.3-0.24-0.41-0.4c-0.12-0.16-0.27-0.4-0.47-0.71L29.9,2.54
				c-0.3-0.49-0.57-0.86-0.8-1.11c-0.24-0.25-0.48-0.43-0.72-0.52C28.13,0.81,27.83,0.76,27.45,0.76z M28.65-3.37h-1.93v2.7h1.87
				c0.5,0,0.92-0.04,1.27-0.12c0.34-0.08,0.6-0.22,0.78-0.42c0.18-0.2,0.27-0.47,0.27-0.82c0-0.27-0.07-0.51-0.22-0.72
				c-0.15-0.21-0.35-0.36-0.6-0.47C29.85-3.32,29.37-3.37,28.65-3.37z"/>
			<path d="M42.83,2.01c0,0.59-0.16,1.13-0.48,1.6c-0.32,0.47-0.79,0.84-1.41,1.11c-0.62,0.27-1.35,0.4-2.2,0.4
				c-1.02,0-1.86-0.18-2.52-0.55c-0.47-0.26-0.85-0.62-1.14-1.06c-0.29-0.44-0.44-0.87-0.44-1.28c0-0.24,0.09-0.45,0.26-0.62
				c0.18-0.17,0.4-0.26,0.67-0.26c0.22,0,0.41,0.07,0.56,0.2c0.15,0.13,0.28,0.33,0.39,0.6c0.13,0.31,0.27,0.57,0.42,0.78
				s0.37,0.38,0.64,0.52c0.28,0.14,0.64,0.2,1.09,0.2c0.62,0,1.12-0.14,1.51-0.41s0.58-0.62,0.58-1.03c0-0.33-0.11-0.59-0.31-0.79
				c-0.21-0.2-0.48-0.36-0.81-0.47c-0.33-0.11-0.77-0.22-1.32-0.34c-0.74-0.17-1.36-0.36-1.86-0.58c-0.5-0.22-0.89-0.52-1.19-0.9
				c-0.29-0.38-0.44-0.86-0.44-1.42c0-0.54,0.15-1.02,0.46-1.44c0.31-0.42,0.76-0.74,1.34-0.97s1.27-0.34,2.07-0.34
				c0.63,0,1.18,0.08,1.64,0.22c0.46,0.15,0.84,0.35,1.15,0.6s0.53,0.51,0.67,0.78c0.14,0.27,0.21,0.54,0.21,0.8
				c0,0.24-0.09,0.45-0.26,0.64s-0.39,0.29-0.66,0.29c-0.24,0-0.42-0.06-0.54-0.17c-0.12-0.11-0.26-0.3-0.4-0.56
				c-0.19-0.37-0.41-0.66-0.68-0.87c-0.26-0.21-0.68-0.31-1.26-0.31c-0.54,0-0.97,0.11-1.3,0.34c-0.33,0.23-0.49,0.5-0.49,0.81
				c0,0.2,0.06,0.37,0.17,0.51c0.11,0.14,0.27,0.27,0.46,0.37c0.2,0.1,0.4,0.18,0.6,0.24c0.2,0.06,0.54,0.14,1,0.25
				c0.58,0.13,1.11,0.27,1.58,0.43c0.47,0.16,0.87,0.35,1.2,0.57c0.33,0.22,0.59,0.51,0.77,0.85C42.74,1.1,42.83,1.52,42.83,2.01z"
				/>
			<path d="M51,0.76h-0.73v3.16c0,0.42-0.1,0.72-0.29,0.92c-0.19,0.2-0.44,0.29-0.75,0.29c-0.33,0-0.59-0.1-0.77-0.31
				c-0.18-0.21-0.27-0.51-0.27-0.91v-7.56c0-0.43,0.1-0.74,0.3-0.93c0.2-0.19,0.53-0.29,0.98-0.29h3.39c0.47,0,0.87,0.02,1.2,0.06
				c0.33,0.04,0.63,0.12,0.9,0.23c0.32,0.13,0.61,0.31,0.86,0.56c0.25,0.24,0.44,0.52,0.57,0.84c0.13,0.32,0.19,0.66,0.19,1.02
				c0,0.73-0.22,1.32-0.65,1.76s-1.09,0.75-1.97,0.93c0.37,0.19,0.72,0.46,1.06,0.83c0.34,0.37,0.64,0.76,0.9,1.17
				c0.26,0.41,0.47,0.79,0.62,1.12c0.15,0.33,0.22,0.56,0.22,0.69c0,0.13-0.04,0.26-0.13,0.39c-0.09,0.13-0.21,0.23-0.36,0.3
				c-0.15,0.07-0.32,0.11-0.52,0.11c-0.23,0-0.43-0.05-0.59-0.16c-0.16-0.1-0.3-0.24-0.41-0.4c-0.12-0.16-0.27-0.4-0.47-0.71
				l-0.84-1.33c-0.3-0.49-0.57-0.86-0.8-1.11s-0.48-0.43-0.72-0.52C51.68,0.81,51.37,0.76,51,0.76z M52.2-3.37h-1.93v2.7h1.87
				c0.5,0,0.92-0.04,1.26-0.12c0.34-0.08,0.6-0.22,0.78-0.42s0.27-0.47,0.27-0.82c0-0.27-0.07-0.51-0.22-0.72
				c-0.15-0.21-0.35-0.36-0.6-0.47C53.39-3.32,52.91-3.37,52.2-3.37z"/>
			<path d="M65.34-3.33h-4.7v2.41h4.33c0.32,0,0.56,0.07,0.71,0.2c0.16,0.14,0.23,0.32,0.23,0.54s-0.08,0.41-0.23,0.55
				c-0.16,0.14-0.39,0.21-0.72,0.21h-4.33v2.8h4.86c0.33,0,0.57,0.07,0.74,0.22c0.17,0.15,0.25,0.34,0.25,0.58
				c0,0.23-0.08,0.42-0.25,0.57c-0.17,0.15-0.41,0.22-0.74,0.22h-5.67c-0.46,0-0.78-0.1-0.98-0.29c-0.2-0.19-0.3-0.5-0.3-0.93v-7.39
				c0-0.29,0.04-0.52,0.13-0.7c0.09-0.18,0.23-0.31,0.42-0.4c0.19-0.08,0.43-0.12,0.73-0.12h5.51c0.33,0,0.58,0.07,0.74,0.21
				c0.16,0.14,0.24,0.33,0.24,0.55c0,0.23-0.08,0.42-0.24,0.56C65.92-3.4,65.67-3.33,65.34-3.33z"/>
			<path d="M71.62,3.48l-1.65-6.26V4c0,0.38-0.09,0.66-0.26,0.84c-0.17,0.19-0.41,0.28-0.7,0.28c-0.28,0-0.51-0.09-0.69-0.28
				C68.14,4.67,68.05,4.38,68.05,4v-7.78c0-0.43,0.12-0.72,0.35-0.87c0.23-0.15,0.55-0.22,0.95-0.22H70c0.39,0,0.67,0.03,0.85,0.1
				c0.17,0.07,0.31,0.19,0.39,0.36s0.18,0.46,0.29,0.85l1.5,5.38l1.5-5.38c0.11-0.39,0.2-0.68,0.29-0.85
				c0.08-0.17,0.21-0.29,0.39-0.36c0.18-0.07,0.46-0.1,0.85-0.1h0.65c0.4,0,0.71,0.07,0.95,0.22c0.23,0.15,0.35,0.44,0.35,0.87V4
				c0,0.38-0.09,0.66-0.26,0.84c-0.18,0.19-0.41,0.28-0.71,0.28c-0.28,0-0.5-0.09-0.68-0.28C76.16,4.66,76.07,4.38,76.07,4v-6.78
				l-1.65,6.26c-0.11,0.41-0.2,0.71-0.26,0.9s-0.19,0.36-0.38,0.52c-0.18,0.16-0.44,0.23-0.76,0.23c-0.24,0-0.45-0.05-0.62-0.15
				c-0.17-0.1-0.3-0.23-0.39-0.39s-0.17-0.33-0.22-0.52S71.68,3.69,71.62,3.48z"/>
			<path d="M84.67-5.03c1.07,0,1.99,0.21,2.75,0.62c0.77,0.41,1.35,1,1.74,1.76c0.39,0.76,0.59,1.66,0.59,2.68
				c0,0.76-0.11,1.45-0.32,2.07c-0.22,0.62-0.54,1.16-0.97,1.62c-0.43,0.46-0.96,0.8-1.59,1.05s-1.35,0.36-2.16,0.36
				c-0.81,0-1.53-0.12-2.16-0.37s-1.17-0.6-1.6-1.05c-0.43-0.45-0.75-0.99-0.97-1.63c-0.22-0.63-0.33-1.32-0.33-2.06
				c0-0.76,0.11-1.45,0.34-2.08c0.23-0.63,0.56-1.17,0.99-1.61c0.43-0.44,0.96-0.78,1.57-1.02C83.18-4.92,83.88-5.03,84.67-5.03z
				 M87.63,0.02c0-0.72-0.12-1.34-0.37-1.87s-0.59-0.93-1.04-1.2c-0.45-0.27-0.97-0.41-1.56-0.41c-0.42,0-0.8,0.08-1.16,0.22
				c-0.35,0.15-0.66,0.37-0.91,0.65c-0.26,0.29-0.46,0.65-0.6,1.1c-0.15,0.44-0.22,0.94-0.22,1.5c0,0.56,0.07,1.06,0.22,1.52
				c0.15,0.45,0.36,0.83,0.63,1.12c0.27,0.3,0.58,0.52,0.93,0.67s0.73,0.22,1.15,0.22c0.53,0,1.02-0.13,1.47-0.38
				c0.45-0.25,0.8-0.65,1.07-1.18C87.5,1.45,87.63,0.8,87.63,0.02z"/>
			<path d="M92.68-3.73l2.33,6.59l2.34-6.64c0.12-0.35,0.21-0.59,0.27-0.73c0.06-0.14,0.16-0.26,0.3-0.37s0.33-0.16,0.58-0.16
				c0.18,0,0.34,0.04,0.5,0.13s0.27,0.2,0.36,0.34c0.09,0.14,0.13,0.28,0.13,0.43c0,0.1-0.01,0.2-0.04,0.32
				c-0.03,0.11-0.06,0.23-0.11,0.34s-0.08,0.22-0.13,0.34l-2.49,6.42c-0.09,0.25-0.18,0.48-0.27,0.7s-0.19,0.42-0.31,0.58
				c-0.12,0.17-0.27,0.31-0.47,0.41c-0.19,0.11-0.43,0.16-0.71,0.16c-0.28,0-0.52-0.05-0.71-0.16c-0.19-0.1-0.35-0.24-0.47-0.42
				c-0.12-0.17-0.22-0.37-0.31-0.59c-0.09-0.22-0.18-0.45-0.27-0.7L90.75-3.1c-0.04-0.12-0.09-0.23-0.13-0.34s-0.08-0.23-0.11-0.36
				c-0.03-0.13-0.05-0.24-0.05-0.33c0-0.23,0.1-0.44,0.29-0.62c0.19-0.19,0.43-0.28,0.72-0.28c0.36,0,0.61,0.1,0.76,0.31
				C92.38-4.51,92.53-4.18,92.68-3.73z"/>
			<path d="M107.85-3.33h-4.7v2.41h4.33c0.32,0,0.56,0.07,0.71,0.2c0.16,0.14,0.24,0.32,0.24,0.54s-0.08,0.41-0.23,0.55
				c-0.15,0.14-0.39,0.21-0.72,0.21h-4.33v2.8h4.86c0.33,0,0.57,0.07,0.74,0.22c0.17,0.15,0.25,0.34,0.25,0.58
				c0,0.23-0.08,0.42-0.25,0.57c-0.17,0.15-0.41,0.22-0.74,0.22h-5.67c-0.45,0-0.78-0.1-0.98-0.29c-0.2-0.19-0.3-0.5-0.3-0.93v-7.39
				c0-0.29,0.04-0.52,0.13-0.7c0.09-0.18,0.23-0.31,0.42-0.4c0.19-0.08,0.43-0.12,0.73-0.12h5.51c0.33,0,0.58,0.07,0.74,0.21
				s0.24,0.33,0.24,0.55c0,0.23-0.08,0.42-0.24,0.56S108.18-3.33,107.85-3.33z"/>
			<path d="M111.95-4.86h2.72c0.71,0,1.31,0.06,1.82,0.19s0.96,0.36,1.38,0.7c1.07,0.88,1.61,2.21,1.61,4
				c0,0.59-0.05,1.13-0.16,1.62c-0.11,0.49-0.27,0.93-0.5,1.32c-0.23,0.39-0.51,0.74-0.87,1.05c-0.28,0.24-0.58,0.43-0.91,0.57
				s-0.68,0.24-1.06,0.3c-0.38,0.06-0.8,0.09-1.28,0.09h-2.72c-0.38,0-0.67-0.05-0.86-0.16c-0.19-0.11-0.32-0.26-0.38-0.46
				c-0.06-0.2-0.09-0.46-0.09-0.77v-7.21c0-0.43,0.1-0.74,0.3-0.93C111.18-4.77,111.5-4.86,111.95-4.86z M112.76-3.29v6.67h1.58
				c0.35,0,0.62-0.01,0.81-0.03c0.2-0.02,0.4-0.06,0.61-0.13c0.21-0.07,0.39-0.17,0.55-0.3c0.7-0.56,1.05-1.53,1.05-2.91
				c0-0.97-0.15-1.7-0.46-2.18c-0.31-0.48-0.68-0.79-1.13-0.92c-0.45-0.13-0.99-0.2-1.63-0.2H112.76z"/>
			<path d="M131.5,3.85l-0.49-1.23h-4.19l-0.49,1.26c-0.19,0.49-0.36,0.82-0.49,1c-0.14,0.17-0.36,0.26-0.67,0.26
				c-0.26,0-0.49-0.09-0.7-0.27c-0.2-0.18-0.3-0.39-0.3-0.62c0-0.13,0.02-0.27,0.07-0.42c0.05-0.14,0.12-0.34,0.23-0.6l2.63-6.38
				c0.07-0.18,0.17-0.4,0.27-0.66c0.11-0.26,0.22-0.47,0.34-0.64c0.12-0.17,0.28-0.31,0.47-0.41c0.2-0.1,0.43-0.16,0.72-0.16
				c0.29,0,0.53,0.05,0.73,0.16c0.2,0.1,0.35,0.24,0.47,0.41c0.12,0.17,0.22,0.34,0.3,0.53s0.19,0.44,0.31,0.76l2.69,6.34
				c0.21,0.48,0.32,0.83,0.32,1.05c0,0.23-0.1,0.44-0.3,0.63s-0.44,0.28-0.72,0.28c-0.16,0-0.3-0.03-0.42-0.08
				c-0.12-0.06-0.22-0.13-0.3-0.23c-0.08-0.1-0.16-0.24-0.26-0.44S131.56,4,131.5,3.85z M127.37,1.12h3.08l-1.55-4.06L127.37,1.12z"
				/>
			<path d="M140.68-3.22h-2.28v7.14c0,0.41-0.1,0.72-0.29,0.92s-0.44,0.3-0.75,0.3c-0.31,0-0.56-0.1-0.76-0.3
				c-0.19-0.2-0.29-0.5-0.29-0.91v-7.14h-2.28c-0.36,0-0.62-0.07-0.79-0.22C133.08-3.6,133-3.79,133-4.04c0-0.25,0.09-0.46,0.27-0.6
				c0.18-0.15,0.44-0.22,0.78-0.22h6.63c0.36,0,0.63,0.08,0.8,0.23c0.18,0.15,0.26,0.35,0.26,0.6c0,0.25-0.09,0.44-0.27,0.59
				C141.31-3.3,141.04-3.22,140.68-3.22z"/>
			<path d="M153.37-3.33h-4.7v2.41H153c0.32,0,0.56,0.07,0.71,0.2c0.16,0.14,0.24,0.32,0.24,0.54s-0.08,0.41-0.23,0.55
				c-0.15,0.14-0.39,0.21-0.72,0.21h-4.33v2.8h4.86c0.33,0,0.57,0.07,0.74,0.22c0.17,0.15,0.25,0.34,0.25,0.58
				c0,0.23-0.08,0.42-0.25,0.57c-0.17,0.15-0.41,0.22-0.74,0.22h-5.67c-0.45,0-0.78-0.1-0.98-0.29c-0.2-0.19-0.3-0.5-0.3-0.93v-7.39
				c0-0.29,0.04-0.52,0.13-0.7c0.09-0.18,0.23-0.31,0.42-0.4c0.19-0.08,0.43-0.12,0.73-0.12h5.51c0.33,0,0.58,0.07,0.74,0.21
				s0.24,0.33,0.24,0.55c0,0.23-0.08,0.42-0.24,0.56S153.7-3.33,153.37-3.33z"/>
			<path d="M157.71-3.73l2.33,6.59l2.34-6.64c0.12-0.35,0.21-0.59,0.27-0.73c0.06-0.14,0.16-0.26,0.3-0.37s0.33-0.16,0.58-0.16
				c0.18,0,0.34,0.04,0.5,0.13c0.15,0.08,0.27,0.2,0.36,0.34c0.09,0.14,0.13,0.28,0.13,0.43c0,0.1-0.01,0.2-0.04,0.32
				c-0.03,0.11-0.06,0.23-0.11,0.34c-0.04,0.11-0.08,0.22-0.13,0.34l-2.49,6.42c-0.09,0.25-0.18,0.48-0.27,0.7s-0.19,0.42-0.31,0.58
				c-0.12,0.17-0.27,0.31-0.47,0.41c-0.19,0.11-0.43,0.16-0.71,0.16s-0.52-0.05-0.71-0.16c-0.2-0.1-0.35-0.24-0.47-0.42
				c-0.12-0.17-0.22-0.37-0.31-0.59c-0.09-0.22-0.18-0.45-0.27-0.7l-2.45-6.37c-0.04-0.12-0.08-0.23-0.13-0.34
				c-0.04-0.11-0.08-0.23-0.11-0.36c-0.03-0.13-0.04-0.24-0.04-0.33c0-0.23,0.1-0.44,0.29-0.62c0.19-0.19,0.43-0.28,0.72-0.28
				c0.36,0,0.61,0.1,0.75,0.31C157.4-4.51,157.55-4.18,157.71-3.73z"/>
			<path d="M172.87-3.33h-4.7v2.41h4.33c0.32,0,0.56,0.07,0.71,0.2c0.16,0.14,0.24,0.32,0.24,0.54s-0.08,0.41-0.23,0.55
				c-0.16,0.14-0.39,0.21-0.72,0.21h-4.33v2.8h4.86c0.33,0,0.58,0.07,0.74,0.22c0.17,0.15,0.25,0.34,0.25,0.58
				c0,0.23-0.08,0.42-0.25,0.57c-0.17,0.15-0.41,0.22-0.74,0.22h-5.67c-0.46,0-0.78-0.1-0.98-0.29c-0.2-0.19-0.3-0.5-0.3-0.93v-7.39
				c0-0.29,0.04-0.52,0.13-0.7c0.09-0.18,0.23-0.31,0.42-0.4c0.19-0.08,0.43-0.12,0.73-0.12h5.51c0.33,0,0.58,0.07,0.74,0.21
				s0.24,0.33,0.24,0.55c0,0.23-0.08,0.42-0.24,0.56S173.2-3.33,172.87-3.33z"/>
			<path d="M178.49,0.76h-0.73v3.16c0,0.42-0.1,0.72-0.29,0.92c-0.19,0.2-0.44,0.29-0.75,0.29c-0.33,0-0.59-0.1-0.77-0.31
				s-0.27-0.51-0.27-0.91v-7.56c0-0.43,0.1-0.74,0.3-0.93c0.2-0.19,0.53-0.29,0.98-0.29h3.39c0.47,0,0.87,0.02,1.2,0.06
				c0.33,0.04,0.63,0.12,0.9,0.23c0.32,0.13,0.61,0.31,0.86,0.56c0.25,0.24,0.44,0.52,0.57,0.84c0.13,0.32,0.19,0.66,0.19,1.02
				c0,0.73-0.22,1.32-0.65,1.76s-1.09,0.75-1.97,0.93c0.37,0.19,0.72,0.46,1.06,0.83c0.34,0.37,0.64,0.76,0.9,1.17
				c0.27,0.41,0.47,0.79,0.62,1.12c0.15,0.33,0.22,0.56,0.22,0.69c0,0.13-0.04,0.26-0.13,0.39c-0.09,0.13-0.21,0.23-0.36,0.3
				s-0.32,0.11-0.52,0.11c-0.23,0-0.43-0.05-0.59-0.16s-0.3-0.24-0.41-0.4c-0.12-0.16-0.27-0.4-0.47-0.71l-0.84-1.33
				c-0.3-0.49-0.57-0.86-0.8-1.11s-0.48-0.43-0.72-0.52C179.16,0.81,178.86,0.76,178.49,0.76z M179.68-3.37h-1.92v2.7h1.87
				c0.5,0,0.92-0.04,1.26-0.12s0.6-0.22,0.78-0.42c0.18-0.2,0.27-0.47,0.27-0.82c0-0.27-0.07-0.51-0.22-0.72
				c-0.14-0.21-0.35-0.36-0.6-0.47C180.88-3.32,180.4-3.37,179.68-3.37z"/>
			<path d="M187.78,3.92V0.8l-2.52-3.72c-0.22-0.34-0.38-0.6-0.47-0.78c-0.09-0.19-0.14-0.35-0.14-0.49c0-0.23,0.09-0.42,0.28-0.59
				c0.19-0.17,0.41-0.25,0.69-0.25c0.29,0,0.5,0.08,0.65,0.23c0.15,0.15,0.37,0.46,0.66,0.92l1.92,2.98l1.95-2.98
				c0.12-0.18,0.22-0.34,0.29-0.46c0.08-0.12,0.17-0.24,0.26-0.35c0.1-0.11,0.2-0.19,0.32-0.25s0.26-0.09,0.43-0.09
				c0.26,0,0.48,0.08,0.66,0.24c0.17,0.16,0.26,0.35,0.26,0.57c0,0.17-0.04,0.35-0.13,0.52c-0.09,0.17-0.24,0.42-0.46,0.72
				l-2.58,3.77v3.12c0,0.41-0.1,0.71-0.29,0.91c-0.2,0.2-0.45,0.3-0.75,0.3c-0.31,0-0.56-0.1-0.75-0.3S187.78,4.33,187.78,3.92z"/>
			<path d="M205.9,2.01c0,0.59-0.16,1.13-0.48,1.6c-0.32,0.47-0.79,0.84-1.41,1.11c-0.62,0.27-1.35,0.4-2.2,0.4
				c-1.02,0-1.86-0.18-2.52-0.55c-0.47-0.26-0.85-0.62-1.14-1.06c-0.29-0.44-0.44-0.87-0.44-1.28c0-0.24,0.09-0.45,0.26-0.62
				c0.18-0.17,0.4-0.26,0.67-0.26c0.22,0,0.41,0.07,0.56,0.2c0.15,0.13,0.28,0.33,0.39,0.6c0.13,0.31,0.27,0.57,0.42,0.78
				s0.37,0.38,0.64,0.52c0.28,0.14,0.64,0.2,1.09,0.2c0.62,0,1.12-0.14,1.51-0.41s0.58-0.62,0.58-1.03c0-0.33-0.11-0.59-0.31-0.79
				c-0.21-0.2-0.48-0.36-0.81-0.47c-0.33-0.11-0.77-0.22-1.32-0.34c-0.74-0.17-1.36-0.36-1.86-0.58c-0.5-0.22-0.89-0.52-1.19-0.9
				c-0.29-0.38-0.44-0.86-0.44-1.42c0-0.54,0.15-1.02,0.46-1.44c0.31-0.42,0.76-0.74,1.34-0.97s1.27-0.34,2.07-0.34
				c0.63,0,1.18,0.08,1.64,0.22c0.46,0.15,0.84,0.35,1.15,0.6s0.53,0.51,0.67,0.78c0.14,0.27,0.21,0.54,0.21,0.8
				c0,0.24-0.09,0.45-0.26,0.64s-0.39,0.29-0.66,0.29c-0.24,0-0.42-0.06-0.54-0.17c-0.12-0.11-0.26-0.3-0.4-0.56
				c-0.19-0.37-0.41-0.66-0.68-0.87c-0.26-0.21-0.68-0.31-1.26-0.31c-0.54,0-0.97,0.11-1.3,0.34c-0.33,0.23-0.49,0.5-0.49,0.81
				c0,0.2,0.06,0.37,0.17,0.51c0.11,0.14,0.27,0.27,0.46,0.37c0.2,0.1,0.4,0.18,0.6,0.24c0.2,0.06,0.54,0.14,1,0.25
				c0.58,0.13,1.11,0.27,1.58,0.43c0.47,0.16,0.87,0.35,1.2,0.57c0.33,0.22,0.59,0.51,0.77,0.85C205.81,1.1,205.9,1.52,205.9,2.01z"
				/>
			<path d="M214.36-3.22h-2.28v7.14c0,0.41-0.1,0.72-0.29,0.92c-0.19,0.2-0.44,0.3-0.74,0.3c-0.31,0-0.56-0.1-0.76-0.3
				c-0.19-0.2-0.29-0.5-0.29-0.91v-7.14h-2.28c-0.36,0-0.62-0.07-0.79-0.22c-0.17-0.15-0.26-0.35-0.26-0.59
				c0-0.25,0.09-0.46,0.27-0.6s0.44-0.22,0.78-0.22h6.63c0.36,0,0.63,0.08,0.8,0.23c0.18,0.15,0.26,0.35,0.26,0.6
				c0,0.25-0.09,0.44-0.27,0.59C214.99-3.3,214.72-3.22,214.36-3.22z"/>
			<path d="M223.46-3.33h-4.7v2.41h4.33c0.32,0,0.56,0.07,0.71,0.2c0.16,0.14,0.24,0.32,0.24,0.54s-0.08,0.41-0.23,0.55
				c-0.15,0.14-0.39,0.21-0.72,0.21h-4.33v2.8h4.86c0.33,0,0.58,0.07,0.74,0.22c0.17,0.15,0.25,0.34,0.25,0.58
				c0,0.23-0.08,0.42-0.25,0.57c-0.17,0.15-0.41,0.22-0.74,0.22h-5.67c-0.45,0-0.78-0.1-0.98-0.29c-0.2-0.19-0.3-0.5-0.3-0.93v-7.39
				c0-0.29,0.04-0.52,0.13-0.7c0.09-0.18,0.23-0.31,0.42-0.4c0.19-0.08,0.43-0.12,0.73-0.12h5.51c0.33,0,0.58,0.07,0.74,0.21
				c0.16,0.14,0.24,0.33,0.24,0.55c0,0.23-0.08,0.42-0.24,0.56C224.04-3.4,223.79-3.33,223.46-3.33z"/>
			<path d="M230.27,1.13h-1.91v2.78c0,0.4-0.1,0.7-0.29,0.91s-0.45,0.31-0.74,0.31c-0.31,0-0.57-0.1-0.76-0.3
				c-0.19-0.2-0.29-0.5-0.29-0.9v-7.58c0-0.44,0.11-0.75,0.32-0.94c0.21-0.19,0.55-0.28,1-0.28h2.68c0.79,0,1.4,0.06,1.83,0.17
				c0.42,0.11,0.79,0.3,1.09,0.56c0.31,0.26,0.54,0.58,0.7,0.95c0.16,0.38,0.24,0.8,0.24,1.27c0,1-0.32,1.76-0.97,2.28
				S231.54,1.13,230.27,1.13z M229.76-3.37h-1.41v3h1.41c0.49,0,0.9-0.05,1.23-0.15c0.33-0.1,0.58-0.26,0.76-0.48
				c0.17-0.22,0.26-0.52,0.26-0.88c0-0.43-0.13-0.79-0.4-1.06C231.31-3.22,230.69-3.37,229.76-3.37z"/>
		</g>
	</g>
	<g>
		<path class="st9" d="M301.38,226.01l30.2-35.87L295,226.01l-3.01-2.95l3.01,2.95l-2,1.97l2-1.27L400.73,329.7L301.38,226.01"/>
		<ellipse class="st10" cx="301.38" cy="226.01" rx="4" ry="3.92"/>
		<ellipse class="st10" cx="331.58" cy="190.14" rx="4" ry="3.92"/>
		<ellipse class="st10" cx="295" cy="226.01" rx="4" ry="3.92"/>
		<ellipse class="st10" cx="291.99" cy="223.06" rx="4" ry="3.92"/>
		<ellipse class="st10" cx="295" cy="226.01" rx="4" ry="3.92"/>
		<ellipse class="st10" cx="293" cy="227.98" rx="4" ry="3.92"/>
		<ellipse class="st10" cx="295" cy="226.7" rx="4" ry="3.92"/>
		<ellipse class="st10" cx="400.73" cy="329.69" rx="4" ry="3.92"/>
		<ellipse class="st10" cx="301.38" cy="226.01" rx="4" ry="3.92"/>
	</g>
	<g transform="translate(328.378,206)">
	</g>
</g>
<text transform="matrix(1 0 0 1 533 216)" class="st11 st12 st13">A</text>
<text transform="matrix(1 0 0 1 490 90)" class="st11 st12 st13">B</text>
<text transform="matrix(1.2322 0 0 1 336 57.2461)" class="st11 st12 st14">C</text>
<text transform="matrix(1 0 0 1 96 92)" class="st11 st12 st13">D</text>
<text transform="matrix(1 0 0 1 80 214)" class="st11 st12 st13">E</text>
<text transform="matrix(1 0 0 1 85 343)" class="st11 st12 st13">F</text>
<text transform="matrix(1.2742 0 0 1 261.999 415.6348)" class="st11 st12 st13">G</text>
<text transform="matrix(1 0 0 1 416 371)" class="st11 st12 st13">H</text>
</svg>
