<?xml version="1.0" encoding="utf-8"?>
<!-- Generator: Adobe Illustrator 29.8.2, SVG Export Plug-In . SVG Version: 9.03 Build 0)  -->
<svg version="1.0" id="Layer_1" xmlns="http://www.w3.org/2000/svg" xmlns:xlink="http://www.w3.org/1999/xlink" x="0px" y="0px"
	 viewBox="0 0 570 413" style="enable-background:new 0 0 570 413;" xml:space="preserve">
<style type="text/css">
	.st0{clip-path:url(#SVGID_00000037662152977604165080000008702855740639159959_);fill:#FFFFFF;}
	.st1{fill:#FFFFFF;}
	.st2{fill:none;stroke:#262626;stroke-width:0.6667;stroke-linejoin:round;stroke-miterlimit:10;stroke-opacity:0.149;}
	
		.st3{fill:none;stroke:#262626;stroke-width:0.6667;stroke-linecap:square;stroke-linejoin:round;stroke-miterlimit:10;stroke-opacity:0.149;}
	.st4{fill:#262626;}
	.st5{font-family:'MyriadPro-Regular';}
	.st6{font-size:13.237px;}
	.st7{font-family:'ArialRoundedMTBold';}
	.st8{font-size:14px;}
	.st9{fill:none;stroke:#0072BD;stroke-width:2;stroke-linejoin:round;stroke-miterlimit:10;}
	.st10{fill:none;stroke:#0072BD;stroke-width:2;stroke-miterlimit:10;}
	.st11{fill:#F15923;}
	.st12{font-size:10.9424px;}
	.st13{font-size:12px;}
	.st14{font-size:10.9253px;}
	.st15{font-size:14.3126px;}
	.st16{font-size:14.1046px;}
	.st17{font-size:11.8503px;}
	.st18{font-size:12.4964px;}
	.st19{font-size:12.4779px;}
</style>
<g>
	<g>
		<g>
			<defs>
				<rect id="SVGID_1_" x="15.13" y="3.98" width="554.44" height="410.02"/>
			</defs>
			<clipPath id="SVGID_00000119827172573629200870000005674662421978084511_">
				<use xlink:href="#SVGID_1_"  style="overflow:visible;"/>
			</clipPath>
			
				<rect x="15.13" y="3.98" style="clip-path:url(#SVGID_00000119827172573629200870000005674662421978084511_);fill:#FFFFFF;" width="554.44" height="410.02"/>
		</g>
	</g>
	<g>
		<rect x="-0.44" y="1.5" class="st1" width="554.44" height="410.02"/>
		<path class="st1" d="M459.65,208.49l-0.5-12.78l-1.49-12.7l-2.47-12.54l-3.44-12.3l-4.39-11.98l-5.31-11.58l-6.19-11.12
			l-7.04-10.58l-7.84-9.98l-8.59-9.31l-9.29-8.58l-9.93-7.8l-10.5-6.97l-11.01-6.1l-11.45-5.19l-11.82-4.24l-12.11-3.27l-12.33-2.28
			l-12.47-1.27l-12.53-0.25l-12.51,0.76l-12.41,1.77l-12.23,2.77l-11.98,3.76l-11.65,4.72l-11.24,5.65l-10.77,6.54l-10.22,7.39
			l-9.62,8.2l-8.95,8.95l-8.22,9.65l-7.45,10.29L165.09,129l-5.75,11.36l-4.85,11.79l-3.92,12.15l-2.96,12.43l-1.98,12.63l-1,12.75
			v12.79l1,12.75l1.98,12.63l2.96,12.43l3.92,12.15l4.85,11.79l5.75,11.36l6.62,10.86l7.45,10.29l8.22,9.65l8.95,8.95l9.62,8.2
			l10.22,7.39l10.77,6.54l11.24,5.65l11.65,4.72l11.98,3.76l12.23,2.77l12.41,1.77l12.51,0.76l12.53-0.25l12.47-1.27l12.33-2.28
			l12.11-3.27l11.82-4.24l11.45-5.19l11.01-6.1l10.5-6.97l9.93-7.8l9.29-8.58l8.59-9.31l7.84-9.98l7.04-10.58l6.19-11.12l5.31-11.58
			l4.39-11.98l3.44-12.3l2.47-12.54l1.49-12.7L459.65,208.49z"/>
	</g>
	<g>
		<line class="st2" x1="302.07" y1="208.49" x2="459.65" y2="208.49"/>
		<line class="st2" x1="302.07" y1="208.49" x2="413.5" y2="94.77"/>
		<line class="st2" x1="302.07" y1="208.49" x2="302.07" y2="47.66"/>
		<line class="st2" x1="302.07" y1="208.49" x2="190.65" y2="94.77"/>
		<line class="st2" x1="302.07" y1="208.49" x2="144.49" y2="208.49"/>
		<line class="st2" x1="302.07" y1="208.49" x2="190.65" y2="322.22"/>
		<line class="st2" x1="302.07" y1="208.49" x2="302.07" y2="369.32"/>
		<line class="st2" x1="302.07" y1="208.49" x2="413.5" y2="322.22"/>
		<path class="st2" d="M302.07,208.49L302.07,208.49L302.07,208.49L302.07,208.49L302.07,208.49L302.07,208.49L302.07,208.49
			L302.07,208.49L302.07,208.49L302.07,208.49L302.07,208.49L302.07,208.49L302.07,208.49L302.07,208.49L302.07,208.49
			L302.07,208.49L302.07,208.49L302.07,208.49L302.07,208.49L302.07,208.49L302.07,208.49L302.07,208.49L302.07,208.49
			L302.07,208.49L302.07,208.49L302.07,208.49L302.07,208.49L302.07,208.49L302.07,208.49L302.07,208.49L302.07,208.49
			L302.07,208.49L302.07,208.49L302.07,208.49L302.07,208.49L302.07,208.49L302.07,208.49L302.07,208.49L302.07,208.49
			L302.07,208.49L302.07,208.49L302.07,208.49L302.07,208.49L302.07,208.49L302.07,208.49L302.07,208.49L302.07,208.49
			L302.07,208.49L302.07,208.49L302.07,208.49L302.07,208.49L302.07,208.49L302.07,208.49L302.07,208.49L302.07,208.49
			L302.07,208.49L302.07,208.49L302.07,208.49L302.07,208.49L302.07,208.49L302.07,208.49L302.07,208.49L302.07,208.49
			L302.07,208.49L302.07,208.49L302.07,208.49L302.07,208.49L302.07,208.49L302.07,208.49L302.07,208.49L302.07,208.49
			L302.07,208.49L302.07,208.49L302.07,208.49L302.07,208.49L302.07,208.49L302.07,208.49L302.07,208.49L302.07,208.49
			L302.07,208.49"/>
		<path class="st2" d="M341.47,208.49l-0.12,3.19l-0.37,3.17l-0.62,3.13l-0.86,3.07l-1.1,2.99l-1.33,2.9l-1.55,2.78l-1.76,2.64
			l-1.96,2.49l-2.15,2.33l-2.32,2.15l-2.48,1.95l-2.63,1.74l-2.75,1.52l-2.86,1.3l-2.96,1.06l-3.03,0.82l-3.08,0.57l-3.12,0.32
			l-3.13,0.06l-3.13-0.19l-3.1-0.44l-3.06-0.69l-2.99-0.94l-2.91-1.18l-2.81-1.41l-2.69-1.64l-2.56-1.85l-2.4-2.05l-2.24-2.24
			l-2.06-2.41l-1.86-2.57l-1.66-2.71l-1.44-2.84l-1.21-2.95l-0.98-3.04l-0.74-3.11l-0.5-3.16l-0.25-3.19v-3.2l0.25-3.19l0.5-3.16
			l0.74-3.11l0.98-3.04l1.21-2.95l1.44-2.84l1.66-2.71l1.86-2.57l2.06-2.41l2.24-2.24l2.4-2.05l2.56-1.85l2.69-1.64l2.81-1.41
			l2.91-1.18l2.99-0.94l3.06-0.69l3.1-0.44l3.13-0.19l3.13,0.06l3.12,0.32l3.08,0.57l3.03,0.82l2.96,1.06l2.86,1.3l2.75,1.52
			l2.63,1.74l2.48,1.95l2.32,2.15l2.15,2.33l1.96,2.49l1.76,2.64l1.55,2.78l1.33,2.9l1.1,2.99l0.86,3.07l0.62,3.13l0.37,3.17
			L341.47,208.49"/>
		<path class="st2" d="M380.86,208.49l-0.25,6.39l-0.75,6.35l-1.24,6.27l-1.72,6.15l-2.19,5.99l-2.65,5.79l-3.1,5.56l-3.52,5.29
			l-3.92,4.99l-4.3,4.65l-4.64,4.29l-4.96,3.9l-5.25,3.49l-5.51,3.05l-5.73,2.59l-5.91,2.12l-6.06,1.63l-6.16,1.14l-6.23,0.63
			l-6.26,0.13l-6.25-0.38l-6.2-0.89l-6.12-1.39l-5.99-1.88l-5.82-2.36l-5.62-2.82l-5.38-3.27l-5.11-3.7l-4.81-4.1l-4.47-4.48
			l-4.11-4.82l-3.72-5.14l-3.31-5.43l-2.88-5.68l-2.43-5.9l-1.96-6.07l-1.48-6.21l-0.99-6.31l-0.5-6.37v-6.39l0.5-6.37l0.99-6.31
			l1.48-6.21l1.96-6.07l2.43-5.9l2.88-5.68l3.31-5.43l3.72-5.14l4.11-4.82l4.47-4.48l4.81-4.1l5.11-3.7l5.38-3.27l5.62-2.82
			l5.82-2.36l5.99-1.88l6.12-1.39l6.2-0.89l6.25-0.38l6.26,0.13l6.23,0.63l6.16,1.14l6.06,1.63l5.91,2.12l5.73,2.59l5.51,3.05
			l5.25,3.49l4.96,3.9l4.64,4.29l4.3,4.65l3.92,4.99l3.52,5.29l3.1,5.56l2.65,5.79l2.19,5.99l1.72,6.15l1.24,6.27l0.75,6.35
			L380.86,208.49"/>
		<path class="st2" d="M420.25,208.49l-0.37,9.58l-1.12,9.52l-1.86,9.4l-2.58,9.22l-3.29,8.98l-3.98,8.69l-4.64,8.34l-5.28,7.93
			l-5.88,7.48l-6.44,6.98l-6.97,6.44l-7.45,5.85l-7.88,5.23l-8.26,4.57l-8.59,3.89l-8.87,3.18l-9.08,2.45l-9.25,1.71l-9.35,0.95
			l-9.4,0.19l-9.38-0.57l-9.31-1.33l-9.17-2.08l-8.98-2.82l-8.73-3.54l-8.43-4.23l-8.08-4.91l-7.67-5.54l-7.21-6.15l-6.71-6.71
			l-6.17-7.24l-5.58-7.71l-4.97-8.14l-4.32-8.52l-3.64-8.84l-2.94-9.11l-2.22-9.32l-1.49-9.47l-0.75-9.56v-9.59l0.75-9.56l1.49-9.47
			l2.22-9.32l2.94-9.11l3.64-8.84l4.32-8.52l4.97-8.14l5.58-7.71l6.17-7.24l6.71-6.71l7.21-6.15l7.67-5.54l8.08-4.91l8.43-4.23
			l8.73-3.54l8.98-2.82l9.17-2.08l9.31-1.33l9.38-0.57l9.4,0.19l9.35,0.95l9.25,1.71l9.08,2.45l8.87,3.18l8.59,3.89l8.26,4.57
			l7.88,5.23l7.45,5.85l6.97,6.44l6.44,6.98l5.88,7.48l5.28,7.93l4.64,8.34l3.98,8.69l3.29,8.98l2.58,9.22l1.86,9.4l1.12,9.52
			L420.25,208.49"/>
		<path class="st2" d="M459.65,208.49l-0.5,12.78l-1.49,12.7l-2.47,12.54l-3.44,12.3l-4.39,11.98l-5.31,11.58l-6.19,11.12
			l-7.04,10.58l-7.84,9.98l-8.59,9.31l-9.29,8.58l-9.93,7.8l-10.5,6.97l-11.01,6.1l-11.45,5.19l-11.82,4.24l-12.11,3.27l-12.33,2.28
			l-12.47,1.27l-12.53,0.25l-12.51-0.76l-12.41-1.77l-12.23-2.77l-11.98-3.76l-11.65-4.72l-11.24-5.65l-10.77-6.54l-10.22-7.39
			l-9.62-8.2l-8.95-8.95l-8.22-9.65l-7.45-10.29l-6.62-10.86l-5.75-11.36l-4.85-11.79l-3.92-12.15l-2.96-12.43l-1.98-12.63l-1-12.75
			V202.1l1-12.75l1.98-12.63l2.96-12.43l3.92-12.15l4.85-11.79l5.75-11.36l6.62-10.86l7.45-10.29l8.22-9.65l8.95-8.95l9.62-8.2
			l10.22-7.39l10.77-6.54l11.24-5.65l11.65-4.72l11.98-3.76l12.23-2.77l12.41-1.77l12.51-0.76l12.53,0.25l12.47,1.27l12.33,2.28
			l12.11,3.27l11.82,4.24l11.45,5.19l11.01,6.1l10.5,6.97l9.93,7.8l9.29,8.58l8.59,9.31l7.84,9.98l7.04,10.58l6.19,11.12l5.31,11.58
			l4.39,11.98l3.44,12.3l2.47,12.54l1.49,12.7L459.65,208.49"/>
		<path class="st3" d="M459.65,208.49l-0.5-12.78l-1.49-12.7l-2.47-12.54l-3.44-12.3l-4.39-11.98l-5.31-11.58l-6.19-11.12
			l-7.04-10.58l-7.84-9.98l-8.59-9.31l-9.29-8.58l-9.93-7.8l-10.5-6.97l-11.01-6.1l-11.45-5.19l-11.82-4.24l-12.11-3.27l-12.33-2.28
			l-12.47-1.27l-12.53-0.25l-12.51,0.76l-12.41,1.77l-12.23,2.77l-11.98,3.76l-11.65,4.72l-11.24,5.65l-10.77,6.54l-10.22,7.39
			l-9.62,8.2l-8.95,8.95l-8.22,9.65l-7.45,10.29L165.09,129l-5.75,11.36l-4.85,11.79l-3.92,12.15l-2.96,12.43l-1.98,12.63l-1,12.75
			v12.79l1,12.75l1.98,12.63l2.96,12.43l3.92,12.15l4.85,11.79l5.75,11.36l6.62,10.86l7.45,10.29l8.22,9.65l8.95,8.95l9.62,8.2
			l10.22,7.39l10.77,6.54l11.24,5.65l11.65,4.72l11.98,3.76l12.23,2.77l12.41,1.77l12.51,0.76l12.53-0.25l12.47-1.27l12.33-2.28
			l12.11-3.27l11.82-4.24l11.45-5.19l11.01-6.1l10.5-6.97l9.93-7.8l9.29-8.58l8.59-9.31l7.84-9.98l7.04-10.58l6.19-11.12l5.31-11.58
			l4.39-11.98l3.44-12.3l2.47-12.54l1.49-12.7L459.65,208.49"/>
	</g>
	<g transform="translate(462.3333,206)">
		<text transform="matrix(0.9798 0 0 1 2.5023 6.9629)" class="st4 st5 st6">Low Firing</text>
	</g>
	<g transform="translate(413.3225,87.6775)">
		<text transform="matrix(0.9798 0 0 1 3.8412 -0.6218)" class="st4 st5 st6">Correlation</text>
	</g>
	<g transform="translate(295,38.6667)">
		<text transform="matrix(0.9798 0 0 1 -26.4867 -0.2678)" class="st4 st5 st6">Amplitude</text>
	</g>
	<g transform="translate(176.6775,87.6775)">
		<text transform="matrix(0.9798 0 0 1 -57.7862 -0.6218)" class="st4 st5 st6">Half Width</text>
	</g>
	<g transform="translate(127.6667,206)">
		<text transform="matrix(0.9798 0 0 1 -24.3492 6.9629)" class="st4 st5 st6">Slope</text>
	</g>
	<g transform="translate(176.6775,324.3225)">
		<text transform="matrix(0.9798 0 0 1 -63.6227 14.5466)" class="st4 st5 st6">ACG Empty</text>
	</g>
	<g transform="translate(295,373.3333)">
		<text transform="matrix(0.9798 0 0 1 -17.2455 14.1931)" class="st4 st5 st6">ACG All</text>
	</g>
	<g transform="translate(413.3225,324.3225)">
		<text transform="matrix(0.9798 0 0 1 3.8412 14.5466)" class="st4 st5 st6">MUA</text>
	</g>
	<g transform="translate(295,206)">
		<text transform="matrix(0.9798 0 0 1 2.694 6.9629)" class="st4 st5 st6">0</text>
	</g>
	<g transform="translate(302.0327,166.1153)">
		<text transform="matrix(0.9798 0 0 1 2.5021 7.2504)" class="st4 st5 st6">5</text>
	</g>
	<g transform="translate(309.0655,126.2306)">
		<text transform="matrix(0.9798 0 0 1 -1.5805 7.5384)" class="st4 st5 st6">10</text>
	</g>
	<g transform="translate(316.0983,86.3459)">
		<text transform="matrix(0.9798 0 0 1 -1.7725 7.8265)" class="st4 st5 st6">15</text>
	</g>
	<g transform="translate(323.131,46.4611)">
		<text transform="matrix(0.9798 0 0 1 -1.9644 8.1146)" class="st4 st5 st6">20</text>
	</g>
	<g transform="translate(295.0003,18.9167)">
		<text transform="matrix(0.9798 0 0 1 -261.0324 3.8748)" class="st7 st8">PERCENTAGE OF NOISY CLUSTERS REMOVED AT EACH STEP OF PIPELINE</text>
	</g>
	<g>
		<path class="st9" d="M320.68,208.49L413.2,95.07L302.07,195.83l-8.77,3.71l8.77,8.95l-5.85,5.97l5.85-3.86v-2.11H320.68"/>
		<ellipse class="st10" cx="320.68" cy="208.49" rx="3.89" ry="3.97"/>
		<ellipse class="st10" cx="413.2" cy="95.07" rx="3.89" ry="3.97"/>
		<ellipse class="st10" cx="302.07" cy="195.83" rx="3.89" ry="3.97"/>
		<ellipse class="st10" cx="293.3" cy="199.54" rx="3.89" ry="3.97"/>
		<ellipse class="st10" cx="302.07" cy="208.49" rx="3.89" ry="3.97"/>
		<ellipse class="st10" cx="296.22" cy="214.46" rx="3.89" ry="3.97"/>
		<ellipse class="st10" cx="302.07" cy="210.61" rx="3.89" ry="3.97"/>
		<ellipse class="st10" cx="302.07" cy="208.49" rx="3.89" ry="3.97"/>
		<ellipse class="st10" cx="320.68" cy="208.49" rx="3.89" ry="3.97"/>
	</g>
</g>
<text transform="matrix(1.2794 0 0 1 520 197.314)" class="st11 st7 st12">1</text>
<text transform="matrix(1.6239 0 0 1 480 72.1348)" class="st11 st7 st13">2</text>
<text transform="matrix(1.2814 0 0 1 329 35.3433)" class="st11 st7 st14">3</text>
<text transform="matrix(0.9782 0 0 1 101 73.6963)" class="st11 st7 st15">4</text>
<text transform="matrix(0.9028 0 0 1 86.4658 204.0903)" class="st11 st7 st16">5</text>
<text transform="matrix(1.7479 0 0 1 92.0005 332.7607)" class="st11 st7 st17">6</text>
<text transform="matrix(1.1203 0 0 1 264 401.1211)" class="st11 st7 st18">7</text>
<text transform="matrix(1.2009 0 0 1 450 351.6875)" class="st11 st7 st19">8</text>
</svg>
